%TF.GenerationSoftware,KiCad,Pcbnew,(6.0.11)*%
%TF.CreationDate,2024-04-05T19:30:15-05:00*%
%TF.ProjectId,TrebleSynth,54726562-6c65-4537-996e-74682e6b6963,rev?*%
%TF.SameCoordinates,Original*%
%TF.FileFunction,Copper,L2,Bot*%
%TF.FilePolarity,Positive*%
%FSLAX46Y46*%
G04 Gerber Fmt 4.6, Leading zero omitted, Abs format (unit mm)*
G04 Created by KiCad (PCBNEW (6.0.11)) date 2024-04-05 19:30:15*
%MOMM*%
%LPD*%
G01*
G04 APERTURE LIST*
G04 Aperture macros list*
%AMRoundRect*
0 Rectangle with rounded corners*
0 $1 Rounding radius*
0 $2 $3 $4 $5 $6 $7 $8 $9 X,Y pos of 4 corners*
0 Add a 4 corners polygon primitive as box body*
4,1,4,$2,$3,$4,$5,$6,$7,$8,$9,$2,$3,0*
0 Add four circle primitives for the rounded corners*
1,1,$1+$1,$2,$3*
1,1,$1+$1,$4,$5*
1,1,$1+$1,$6,$7*
1,1,$1+$1,$8,$9*
0 Add four rect primitives between the rounded corners*
20,1,$1+$1,$2,$3,$4,$5,0*
20,1,$1+$1,$4,$5,$6,$7,0*
20,1,$1+$1,$6,$7,$8,$9,0*
20,1,$1+$1,$8,$9,$2,$3,0*%
G04 Aperture macros list end*
%TA.AperFunction,ComponentPad*%
%ADD10C,2.000000*%
%TD*%
%TA.AperFunction,ComponentPad*%
%ADD11C,1.600000*%
%TD*%
%TA.AperFunction,ComponentPad*%
%ADD12R,1.600000X1.600000*%
%TD*%
%TA.AperFunction,ComponentPad*%
%ADD13R,1.500000X1.500000*%
%TD*%
%TA.AperFunction,ComponentPad*%
%ADD14C,1.500000*%
%TD*%
%TA.AperFunction,ComponentPad*%
%ADD15O,1.500000X2.000000*%
%TD*%
%TA.AperFunction,ComponentPad*%
%ADD16O,2.000000X1.500000*%
%TD*%
%TA.AperFunction,ComponentPad*%
%ADD17O,1.600000X1.600000*%
%TD*%
%TA.AperFunction,ComponentPad*%
%ADD18R,2.200000X2.200000*%
%TD*%
%TA.AperFunction,ComponentPad*%
%ADD19O,2.200000X2.200000*%
%TD*%
%TA.AperFunction,ComponentPad*%
%ADD20R,1.800000X1.800000*%
%TD*%
%TA.AperFunction,ComponentPad*%
%ADD21C,1.800000*%
%TD*%
%TA.AperFunction,ComponentPad*%
%ADD22RoundRect,0.750000X-0.750000X1.250000X-0.750000X-1.250000X0.750000X-1.250000X0.750000X1.250000X0*%
%TD*%
%TA.AperFunction,ComponentPad*%
%ADD23R,2.000000X1.905000*%
%TD*%
%TA.AperFunction,ComponentPad*%
%ADD24O,2.000000X1.905000*%
%TD*%
%TA.AperFunction,ComponentPad*%
%ADD25R,1.700000X1.700000*%
%TD*%
%TA.AperFunction,ComponentPad*%
%ADD26O,1.700000X1.700000*%
%TD*%
%TA.AperFunction,ComponentPad*%
%ADD27C,2.800000*%
%TD*%
%TA.AperFunction,ComponentPad*%
%ADD28R,3.500000X3.500000*%
%TD*%
%TA.AperFunction,ComponentPad*%
%ADD29RoundRect,0.750000X-1.000000X0.750000X-1.000000X-0.750000X1.000000X-0.750000X1.000000X0.750000X0*%
%TD*%
%TA.AperFunction,ComponentPad*%
%ADD30RoundRect,0.500000X-0.500000X1.250000X-0.500000X-1.250000X0.500000X-1.250000X0.500000X1.250000X0*%
%TD*%
%TA.AperFunction,ComponentPad*%
%ADD31R,3.000000X3.000000*%
%TD*%
%TA.AperFunction,ComponentPad*%
%ADD32C,3.000000*%
%TD*%
%TA.AperFunction,ComponentPad*%
%ADD33C,2.500000*%
%TD*%
%TA.AperFunction,WasherPad*%
%ADD34O,5.000000X3.100000*%
%TD*%
%TA.AperFunction,ComponentPad*%
%ADD35O,1.600000X2.000000*%
%TD*%
%TA.AperFunction,ViaPad*%
%ADD36C,0.800000*%
%TD*%
%TA.AperFunction,Conductor*%
%ADD37C,0.350000*%
%TD*%
G04 APERTURE END LIST*
D10*
%TO.P,SW23,1,1*%
%TO.N,GND*%
X227250000Y-141250000D03*
X220750000Y-141250000D03*
%TO.P,SW23,2,2*%
%TO.N,Net-(SW23-Pad2)*%
X220750000Y-136750000D03*
X227250000Y-136750000D03*
%TD*%
D11*
%TO.P,C22,1*%
%TO.N,GND*%
X236226000Y-51878000D03*
%TO.P,C22,2*%
%TO.N,VREF*%
X231226000Y-51878000D03*
%TD*%
D12*
%TO.P,C15,1*%
%TO.N,Net-(C13-Pad1)*%
X88906000Y-53148000D03*
D11*
%TO.P,C15,2*%
%TO.N,Net-(C15-Pad2)*%
X86406000Y-53148000D03*
%TD*%
D13*
%TO.P,Q3,1,E*%
%TO.N,GND*%
X255784000Y-72960000D03*
D14*
%TO.P,Q3,2,B*%
%TO.N,Net-(Q3-Pad2)*%
X255784000Y-75500000D03*
%TO.P,Q3,3,C*%
%TO.N,CTRLC*%
X255784000Y-78040000D03*
%TD*%
D15*
%TO.P,J8,G*%
%TO.N,unconnected-(J8-PadG)*%
X256878000Y-114616000D03*
D16*
%TO.P,J8,S1*%
%TO.N,Net-(J8-PadS1)*%
X248978000Y-119816000D03*
%TO.P,J8,SN1*%
%TO.N,unconnected-(J8-PadSN1)*%
X249978000Y-117216000D03*
%TO.P,J8,T1*%
%TO.N,Net-(J8-PadT1)*%
X252478000Y-109816000D03*
D15*
%TO.P,J8,TN1*%
%TO.N,unconnected-(J8-PadTN1)*%
X245578000Y-110316000D03*
%TD*%
D11*
%TO.P,R46,1*%
%TO.N,Net-(J3-PadT1)*%
X72650000Y-54418000D03*
D17*
%TO.P,R46,2*%
%TO.N,Net-(C38-Pad2)*%
X72650000Y-62038000D03*
%TD*%
D11*
%TO.P,R9,1*%
%TO.N,Net-(C7-Pad1)*%
X58680000Y-50862000D03*
D17*
%TO.P,R9,2*%
%TO.N,Net-(C8-Pad2)*%
X58680000Y-58482000D03*
%TD*%
D18*
%TO.P,D1,1,K*%
%TO.N,+5V*%
X127768000Y-69150000D03*
D19*
%TO.P,D1,2,A*%
%TO.N,Net-(C21-Pad1)*%
X127768000Y-76770000D03*
%TD*%
D11*
%TO.P,R56,1*%
%TO.N,FROMDAC2*%
X193554000Y-61784000D03*
D17*
%TO.P,R56,2*%
%TO.N,Net-(R56-Pad2)*%
X201174000Y-61784000D03*
%TD*%
D20*
%TO.P,RV19,1,1*%
%TO.N,GND*%
X190500000Y-116950000D03*
D21*
%TO.P,RV19,2,2*%
%TO.N,Net-(RV19-Pad2)*%
X188000000Y-116950000D03*
%TO.P,RV19,3,3*%
%TO.N,VREF*%
X185500000Y-116950000D03*
D22*
%TO.P,RV19,MP*%
%TO.N,N/C*%
X183600000Y-123950000D03*
X192400000Y-123950000D03*
%TD*%
D11*
%TO.P,C46,1*%
%TO.N,Net-(C46-Pad1)*%
X44290000Y-70490000D03*
%TO.P,C46,2*%
%TO.N,Net-(C46-Pad2)*%
X44290000Y-65490000D03*
%TD*%
%TO.P,R67,1*%
%TO.N,Net-(Q6-Pad2)*%
X111040000Y-59380000D03*
D17*
%TO.P,R67,2*%
%TO.N,Net-(R67-Pad2)*%
X111040000Y-67000000D03*
%TD*%
D13*
%TO.P,Q5,1,E*%
%TO.N,GND*%
X135134000Y-57974000D03*
D14*
%TO.P,Q5,2,B*%
%TO.N,Net-(Q5-Pad2)*%
X135134000Y-60514000D03*
%TO.P,Q5,3,C*%
%TO.N,Net-(Q5-Pad3)*%
X135134000Y-63054000D03*
%TD*%
D20*
%TO.P,RV10,1,1*%
%TO.N,GND*%
X103000000Y-100950000D03*
D21*
%TO.P,RV10,2,2*%
%TO.N,Net-(RV10-Pad2)*%
X100500000Y-100950000D03*
%TO.P,RV10,3,3*%
%TO.N,VREF*%
X98000000Y-100950000D03*
D22*
%TO.P,RV10,MP*%
%TO.N,N/C*%
X104900000Y-107950000D03*
X96100000Y-107950000D03*
%TD*%
D11*
%TO.P,R19,1*%
%TO.N,Net-(C36-Pad2)*%
X93224000Y-64832000D03*
D17*
%TO.P,R19,2*%
%TO.N,Net-(C37-Pad1)*%
X85604000Y-64832000D03*
%TD*%
D23*
%TO.P,U4,1,VI*%
%TO.N,Net-(C20-Pad1)*%
X103920000Y-72410000D03*
D24*
%TO.P,U4,2,GND*%
%TO.N,GND*%
X103920000Y-74950000D03*
%TO.P,U4,3,VO*%
%TO.N,Net-(C21-Pad1)*%
X103920000Y-77490000D03*
%TD*%
D16*
%TO.P,J3,G*%
%TO.N,GND*%
X76714000Y-40370000D03*
D15*
%TO.P,J3,S1*%
%TO.N,Net-(J3-PadS1)*%
X81914000Y-48270000D03*
%TO.P,J3,SN1*%
%TO.N,unconnected-(J3-PadSN1)*%
X79314000Y-47270000D03*
%TO.P,J3,T1*%
%TO.N,Net-(J3-PadT1)*%
X71914000Y-44770000D03*
D16*
%TO.P,J3,TN1*%
%TO.N,unconnected-(J3-PadTN1)*%
X72414000Y-51670000D03*
%TD*%
D25*
%TO.P,JP2,1,A*%
%TO.N,Net-(J9-PadS1)*%
X241306000Y-129094000D03*
D26*
%TO.P,JP2,2,B*%
%TO.N,VREF*%
X241306000Y-131634000D03*
%TD*%
D11*
%TO.P,R64,1*%
%TO.N,+5V*%
X124212000Y-62038000D03*
D17*
%TO.P,R64,2*%
%TO.N,Net-(Q5-Pad3)*%
X131832000Y-62038000D03*
%TD*%
D12*
%TO.P,C11,1*%
%TO.N,Net-(C11-Pad1)*%
X147294888Y-77200000D03*
D11*
%TO.P,C11,2*%
%TO.N,Net-(C10-Pad2)*%
X149794888Y-77200000D03*
%TD*%
%TO.P,C41,1*%
%TO.N,+5V*%
X117090000Y-89040000D03*
%TO.P,C41,2*%
%TO.N,GND*%
X117090000Y-84040000D03*
%TD*%
D10*
%TO.P,SW32,1,1*%
%TO.N,GND*%
X238154000Y-93026000D03*
X231654000Y-93026000D03*
%TO.P,SW32,2,2*%
%TO.N,Net-(SW32-Pad2)*%
X238154000Y-97526000D03*
X231654000Y-97526000D03*
%TD*%
%TO.P,SW14,1,1*%
%TO.N,GND*%
X145750000Y-141250000D03*
X152250000Y-141250000D03*
%TO.P,SW14,2,2*%
%TO.N,Net-(SW14-Pad2)*%
X145750000Y-136750000D03*
X152250000Y-136750000D03*
%TD*%
D11*
%TO.P,R21,1*%
%TO.N,GND*%
X79508000Y-54418000D03*
D17*
%TO.P,R21,2*%
%TO.N,Net-(C15-Pad2)*%
X79508000Y-62038000D03*
%TD*%
D12*
%TO.P,C4,1*%
%TO.N,Net-(C4-Pad1)*%
X43694000Y-61784000D03*
D11*
%TO.P,C4,2*%
%TO.N,Net-(C3-Pad1)*%
X43694000Y-59284000D03*
%TD*%
%TO.P,R23,1*%
%TO.N,Net-(R23-Pad1)*%
X231580000Y-48000000D03*
D17*
%TO.P,R23,2*%
%TO.N,Net-(R23-Pad2)*%
X231580000Y-40380000D03*
%TD*%
D15*
%TO.P,J9,G*%
%TO.N,GND*%
X256878000Y-127316000D03*
D16*
%TO.P,J9,S1*%
%TO.N,Net-(J9-PadS1)*%
X248978000Y-132516000D03*
%TO.P,J9,SN1*%
%TO.N,unconnected-(J9-PadSN1)*%
X249978000Y-129916000D03*
%TO.P,J9,T1*%
%TO.N,Net-(J9-PadT1)*%
X252478000Y-122516000D03*
D15*
%TO.P,J9,TN1*%
%TO.N,unconnected-(J9-PadTN1)*%
X245578000Y-123016000D03*
%TD*%
D11*
%TO.P,R68,1*%
%TO.N,GND*%
X124466000Y-76930000D03*
D17*
%TO.P,R68,2*%
%TO.N,Net-(Q6-Pad2)*%
X124466000Y-69310000D03*
%TD*%
D11*
%TO.P,R10,1*%
%TO.N,Net-(C8-Pad2)*%
X62236000Y-56196000D03*
D17*
%TO.P,R10,2*%
%TO.N,Net-(C9-Pad2)*%
X62236000Y-63816000D03*
%TD*%
D11*
%TO.P,R70,1*%
%TO.N,+5V*%
X257816000Y-87946000D03*
D17*
%TO.P,R70,2*%
%TO.N,CTRLC*%
X257816000Y-80326000D03*
%TD*%
D12*
%TO.P,C10,1*%
%TO.N,FROMDAC1*%
X152255113Y-72050000D03*
D11*
%TO.P,C10,2*%
%TO.N,Net-(C10-Pad2)*%
X149755113Y-72050000D03*
%TD*%
D20*
%TO.P,RV7,1,1*%
%TO.N,GND*%
X82500000Y-116950000D03*
D21*
%TO.P,RV7,2,2*%
%TO.N,Net-(RV7-Pad2)*%
X80000000Y-116950000D03*
%TO.P,RV7,3,3*%
%TO.N,VREF*%
X77500000Y-116950000D03*
D22*
%TO.P,RV7,MP*%
%TO.N,N/C*%
X84400000Y-123950000D03*
X75600000Y-123950000D03*
%TD*%
D25*
%TO.P,JP1,1,A*%
%TO.N,Net-(J8-PadS1)*%
X241306000Y-118426000D03*
D26*
%TO.P,JP1,2,B*%
%TO.N,VREF*%
X241306000Y-120966000D03*
%TD*%
D12*
%TO.P,U6,1,X4*%
%TO.N,Net-(SW5-Pad2)*%
X40070000Y-94490000D03*
D17*
%TO.P,U6,2,X6*%
%TO.N,Net-(SW6-Pad2)*%
X42610000Y-94490000D03*
%TO.P,U6,3,X*%
%TO.N,BUTTON1*%
X45150000Y-94490000D03*
%TO.P,U6,4,X7*%
%TO.N,Net-(SW7-Pad2)*%
X47690000Y-94490000D03*
%TO.P,U6,5,X5*%
%TO.N,Net-(SW8-Pad2)*%
X50230000Y-94490000D03*
%TO.P,U6,6,Inh*%
%TO.N,GND*%
X52770000Y-94490000D03*
%TO.P,U6,7,VEE*%
X55310000Y-94490000D03*
%TO.P,U6,8,VSS*%
X57850000Y-94490000D03*
%TO.P,U6,9,C*%
%TO.N,CTRLC*%
X57850000Y-86870000D03*
%TO.P,U6,10,B*%
%TO.N,CTRLB*%
X55310000Y-86870000D03*
%TO.P,U6,11,A*%
%TO.N,CTRLA*%
X52770000Y-86870000D03*
%TO.P,U6,12,X3*%
%TO.N,Net-(SW4-Pad2)*%
X50230000Y-86870000D03*
%TO.P,U6,13,X0*%
%TO.N,Net-(SW3-Pad2)*%
X47690000Y-86870000D03*
%TO.P,U6,14,X1*%
%TO.N,Net-(SW2-Pad2)*%
X45150000Y-86870000D03*
%TO.P,U6,15,X2*%
%TO.N,Net-(SW1-Pad2)*%
X42610000Y-86870000D03*
%TO.P,U6,16,VDD*%
%TO.N,+5V*%
X40070000Y-86870000D03*
%TD*%
D11*
%TO.P,C36,1*%
%TO.N,BIAS*%
X94240000Y-67880000D03*
%TO.P,C36,2*%
%TO.N,Net-(C36-Pad2)*%
X94240000Y-72880000D03*
%TD*%
%TO.P,C24,1*%
%TO.N,GND*%
X151950000Y-56500000D03*
%TO.P,C24,2*%
%TO.N,Net-(Brd1-Pad2)*%
X151950000Y-51500000D03*
%TD*%
%TO.P,R28,1*%
%TO.N,Net-(R28-Pad1)*%
X191208000Y-66284000D03*
D17*
%TO.P,R28,2*%
%TO.N,GND*%
X183588000Y-66284000D03*
%TD*%
D11*
%TO.P,R2,1*%
%TO.N,GND*%
X68332000Y-44258000D03*
D17*
%TO.P,R2,2*%
%TO.N,BIAS*%
X68332000Y-51878000D03*
%TD*%
D10*
%TO.P,SW17,1,1*%
%TO.N,GND*%
X174750000Y-153750000D03*
X168250000Y-153750000D03*
%TO.P,SW17,2,2*%
%TO.N,Net-(SW17-Pad2)*%
X174750000Y-149250000D03*
X168250000Y-149250000D03*
%TD*%
D13*
%TO.P,Q2,1,E*%
%TO.N,GND*%
X250704000Y-72960000D03*
D14*
%TO.P,Q2,2,B*%
%TO.N,Net-(Q2-Pad2)*%
X250704000Y-75500000D03*
%TO.P,Q2,3,C*%
%TO.N,CTRLB*%
X250704000Y-78040000D03*
%TD*%
D11*
%TO.P,R14,1*%
%TO.N,Net-(C12-Pad2)*%
X90176000Y-79310000D03*
D17*
%TO.P,R14,2*%
%TO.N,Net-(C13-Pad2)*%
X82556000Y-79310000D03*
%TD*%
D20*
%TO.P,RV12,1,1*%
%TO.N,GND*%
X117500000Y-100950000D03*
D21*
%TO.P,RV12,2,2*%
%TO.N,Net-(RV12-Pad2)*%
X115000000Y-100950000D03*
%TO.P,RV12,3,3*%
%TO.N,VREF*%
X112500000Y-100950000D03*
D22*
%TO.P,RV12,MP*%
%TO.N,N/C*%
X110600000Y-107950000D03*
X119400000Y-107950000D03*
%TD*%
D11*
%TO.P,R47,1*%
%TO.N,VREF*%
X228352000Y-128078000D03*
D17*
%TO.P,R47,2*%
%TO.N,Net-(J8-PadT1)*%
X220732000Y-128078000D03*
%TD*%
D20*
%TO.P,RV13,1,1*%
%TO.N,GND*%
X128000000Y-116950000D03*
D21*
%TO.P,RV13,2,2*%
%TO.N,Net-(RV13-Pad2)*%
X125500000Y-116950000D03*
%TO.P,RV13,3,3*%
%TO.N,VREF*%
X123000000Y-116950000D03*
D22*
%TO.P,RV13,MP*%
%TO.N,N/C*%
X129900000Y-123950000D03*
X121100000Y-123950000D03*
%TD*%
D11*
%TO.P,C12,1*%
%TO.N,BIAS*%
X90938000Y-67880000D03*
%TO.P,C12,2*%
%TO.N,Net-(C12-Pad2)*%
X90938000Y-72880000D03*
%TD*%
%TO.P,R65,1*%
%TO.N,Net-(Q5-Pad3)*%
X131832000Y-58736000D03*
D17*
%TO.P,R65,2*%
%TO.N,Net-(J11-Pad5)*%
X124212000Y-58736000D03*
%TD*%
D11*
%TO.P,R16,1*%
%TO.N,GND*%
X93478000Y-58228000D03*
D17*
%TO.P,R16,2*%
%TO.N,Net-(C13-Pad1)*%
X85858000Y-58228000D03*
%TD*%
D11*
%TO.P,C26,1*%
%TO.N,ADC2*%
X231146000Y-55610000D03*
%TO.P,C26,2*%
%TO.N,GND*%
X236146000Y-55610000D03*
%TD*%
D10*
%TO.P,SW22,1,1*%
%TO.N,GND*%
X213250000Y-153750000D03*
X219750000Y-153750000D03*
%TO.P,SW22,2,2*%
%TO.N,Net-(SW22-Pad2)*%
X213250000Y-149250000D03*
X219750000Y-149250000D03*
%TD*%
D12*
%TO.P,U7,1*%
%TO.N,Net-(D3-Pad1)*%
X99838000Y-64827000D03*
D17*
%TO.P,U7,2*%
%TO.N,Net-(D3-Pad2)*%
X99838000Y-67367000D03*
%TO.P,U7,3*%
%TO.N,Net-(R67-Pad2)*%
X107458000Y-67367000D03*
%TO.P,U7,4*%
%TO.N,+3V3*%
X107458000Y-64827000D03*
%TD*%
D27*
%TO.P,J11,1*%
%TO.N,unconnected-(J11-Pad1)*%
X141030000Y-51690000D03*
%TO.P,J11,2*%
%TO.N,GND*%
X133530000Y-51690000D03*
%TO.P,J11,3*%
%TO.N,unconnected-(J11-Pad3)*%
X126030000Y-51690000D03*
%TO.P,J11,4*%
%TO.N,Net-(J11-Pad4)*%
X138530000Y-54190000D03*
%TO.P,J11,5*%
%TO.N,Net-(J11-Pad5)*%
X128530000Y-54190000D03*
%TO.P,J11,G*%
%TO.N,Net-(C40-Pad1)*%
X128530000Y-41790000D03*
X138530000Y-41790000D03*
%TD*%
D28*
%TO.P,J5,1*%
%TO.N,Net-(C20-Pad1)*%
X92840000Y-48760000D03*
D29*
%TO.P,J5,2*%
%TO.N,GND*%
X92840000Y-42760000D03*
D30*
%TO.P,J5,3*%
%TO.N,unconnected-(J5-Pad3)*%
X88140000Y-45760000D03*
%TD*%
D12*
%TO.P,U12,1,X4*%
%TO.N,Net-(SW29-Pad2)*%
X226828000Y-120458000D03*
D17*
%TO.P,U12,2,X6*%
%TO.N,Net-(SW31-Pad2)*%
X226828000Y-117918000D03*
%TO.P,U12,3,X*%
%TO.N,BUTTON4*%
X226828000Y-115378000D03*
%TO.P,U12,4,X7*%
%TO.N,Net-(SW32-Pad2)*%
X226828000Y-112838000D03*
%TO.P,U12,5,X5*%
%TO.N,Net-(SW26-Pad2)*%
X226828000Y-110298000D03*
%TO.P,U12,6,Inh*%
%TO.N,GND*%
X226828000Y-107758000D03*
%TO.P,U12,7,VEE*%
X226828000Y-105218000D03*
%TO.P,U12,8,VSS*%
X226828000Y-102678000D03*
%TO.P,U12,9,C*%
%TO.N,CTRLC*%
X219208000Y-102678000D03*
%TO.P,U12,10,B*%
%TO.N,CTRLB*%
X219208000Y-105218000D03*
%TO.P,U12,11,A*%
%TO.N,CTRLA*%
X219208000Y-107758000D03*
%TO.P,U12,12,X3*%
%TO.N,Net-(SW30-Pad2)*%
X219208000Y-110298000D03*
%TO.P,U12,13,X0*%
%TO.N,Net-(SW25-Pad2)*%
X219208000Y-112838000D03*
%TO.P,U12,14,X1*%
%TO.N,Net-(SW27-Pad2)*%
X219208000Y-115378000D03*
%TO.P,U12,15,X2*%
%TO.N,Net-(SW28-Pad2)*%
X219208000Y-117918000D03*
%TO.P,U12,16,VDD*%
%TO.N,+5V*%
X219208000Y-120458000D03*
%TD*%
D11*
%TO.P,R36,1*%
%TO.N,+3V3*%
X191268000Y-47814000D03*
D17*
%TO.P,R36,2*%
%TO.N,SCL*%
X183648000Y-47814000D03*
%TD*%
D11*
%TO.P,C1,1*%
%TO.N,BIAS*%
X87636000Y-67880000D03*
%TO.P,C1,2*%
%TO.N,GND*%
X87636000Y-72880000D03*
%TD*%
D10*
%TO.P,SW31,1,1*%
%TO.N,GND*%
X248060000Y-93026000D03*
X241560000Y-93026000D03*
%TO.P,SW31,2,2*%
%TO.N,Net-(SW31-Pad2)*%
X241560000Y-97526000D03*
X248060000Y-97526000D03*
%TD*%
D11*
%TO.P,C8,1*%
%TO.N,BIAS*%
X58934000Y-65848000D03*
%TO.P,C8,2*%
%TO.N,Net-(C8-Pad2)*%
X58934000Y-60848000D03*
%TD*%
D20*
%TO.P,RV17,1,1*%
%TO.N,GND*%
X167000000Y-101000000D03*
D21*
%TO.P,RV17,2,2*%
%TO.N,Net-(RV17-Pad2)*%
X164500000Y-101000000D03*
%TO.P,RV17,3,3*%
%TO.N,VREF*%
X162000000Y-101000000D03*
D22*
%TO.P,RV17,MP*%
%TO.N,N/C*%
X168900000Y-108000000D03*
X160100000Y-108000000D03*
%TD*%
D11*
%TO.P,C39,1*%
%TO.N,Net-(C39-Pad1)*%
X97542000Y-52894000D03*
%TO.P,C39,2*%
%TO.N,GND*%
X92542000Y-52894000D03*
%TD*%
%TO.P,C29,1*%
%TO.N,+5V*%
X169678000Y-85954000D03*
%TO.P,C29,2*%
%TO.N,GND*%
X169678000Y-90954000D03*
%TD*%
%TO.P,R66,1*%
%TO.N,+5V*%
X124212000Y-65340000D03*
D17*
%TO.P,R66,2*%
%TO.N,Net-(J11-Pad4)*%
X131832000Y-65340000D03*
%TD*%
D20*
%TO.P,RV20,1,1*%
%TO.N,GND*%
X196500000Y-100950000D03*
D21*
%TO.P,RV20,2,2*%
%TO.N,Net-(RV20-Pad2)*%
X194000000Y-100950000D03*
%TO.P,RV20,3,3*%
%TO.N,VREF*%
X191500000Y-100950000D03*
D22*
%TO.P,RV20,MP*%
%TO.N,N/C*%
X189600000Y-107950000D03*
X198400000Y-107950000D03*
%TD*%
D10*
%TO.P,SW12,1,1*%
%TO.N,GND*%
X123250000Y-153750000D03*
X129750000Y-153750000D03*
%TO.P,SW12,2,2*%
%TO.N,Net-(SW12-Pad2)*%
X123250000Y-149250000D03*
X129750000Y-149250000D03*
%TD*%
D20*
%TO.P,RV6,1,1*%
%TO.N,GND*%
X68000000Y-116950000D03*
D21*
%TO.P,RV6,2,2*%
%TO.N,Net-(RV6-Pad2)*%
X65500000Y-116950000D03*
%TO.P,RV6,3,3*%
%TO.N,VREF*%
X63000000Y-116950000D03*
D22*
%TO.P,RV6,MP*%
%TO.N,N/C*%
X61100000Y-123950000D03*
X69900000Y-123950000D03*
%TD*%
D11*
%TO.P,R52,1*%
%TO.N,FROMDAC2*%
X191300000Y-62400000D03*
D17*
%TO.P,R52,2*%
%TO.N,Net-(R51-Pad1)*%
X183680000Y-62400000D03*
%TD*%
D12*
%TO.P,C7,1*%
%TO.N,Net-(C7-Pad1)*%
X64522000Y-42734000D03*
D11*
%TO.P,C7,2*%
%TO.N,Net-(C46-Pad1)*%
X64522000Y-40234000D03*
%TD*%
%TO.P,R62,1*%
%TO.N,Net-(D3-Pad1)*%
X99828000Y-58482000D03*
D17*
%TO.P,R62,2*%
%TO.N,Net-(J10-Pad4)*%
X107448000Y-58482000D03*
%TD*%
D11*
%TO.P,R11,1*%
%TO.N,Net-(C9-Pad1)*%
X62744000Y-73976000D03*
D17*
%TO.P,R11,2*%
%TO.N,Net-(C8-Pad2)*%
X62744000Y-66356000D03*
%TD*%
D11*
%TO.P,R72,1*%
%TO.N,+3V3*%
X251720000Y-61784000D03*
D17*
%TO.P,R72,2*%
%TO.N,BUTTON3*%
X244100000Y-61784000D03*
%TD*%
D11*
%TO.P,C14,1*%
%TO.N,+5V*%
X73158000Y-71944000D03*
%TO.P,C14,2*%
%TO.N,GND*%
X73158000Y-76944000D03*
%TD*%
D10*
%TO.P,SW11,1,1*%
%TO.N,GND*%
X115750000Y-141250000D03*
X122250000Y-141250000D03*
%TO.P,SW11,2,2*%
%TO.N,Net-(SW11-Pad2)*%
X115750000Y-136750000D03*
X122250000Y-136750000D03*
%TD*%
D12*
%TO.P,C34,1*%
%TO.N,VREF*%
X236050000Y-48650000D03*
D11*
%TO.P,C34,2*%
%TO.N,GND*%
X236050000Y-46150000D03*
%TD*%
%TO.P,R22,1*%
%TO.N,Net-(J3-PadS1)*%
X83064000Y-54418000D03*
D17*
%TO.P,R22,2*%
%TO.N,Net-(C15-Pad2)*%
X83064000Y-62038000D03*
%TD*%
D31*
%TO.P,J1,1,Pin_1*%
%TO.N,GND*%
X29710000Y-49430000D03*
D32*
%TO.P,J1,2,Pin_2*%
%TO.N,Net-(J1-Pad2)*%
X29710000Y-54510000D03*
%TD*%
D11*
%TO.P,C23,1*%
%TO.N,ADC0*%
X231146000Y-62038000D03*
%TO.P,C23,2*%
%TO.N,GND*%
X236146000Y-62038000D03*
%TD*%
D12*
%TO.P,C2,1*%
%TO.N,BIAS*%
X63760000Y-49084000D03*
D11*
%TO.P,C2,2*%
%TO.N,GND*%
X63760000Y-46584000D03*
%TD*%
%TO.P,R60,1*%
%TO.N,+5V*%
X68840000Y-54494000D03*
D17*
%TO.P,R60,2*%
%TO.N,Net-(C35-Pad1)*%
X68840000Y-62114000D03*
%TD*%
D12*
%TO.P,U8,1,X4*%
%TO.N,Net-(RV5-Pad2)*%
X68190000Y-94690000D03*
D17*
%TO.P,U8,2,X6*%
%TO.N,Net-(RV6-Pad2)*%
X70730000Y-94690000D03*
%TO.P,U8,3,X*%
%TO.N,ADC0*%
X73270000Y-94690000D03*
%TO.P,U8,4,X7*%
%TO.N,Net-(RV7-Pad2)*%
X75810000Y-94690000D03*
%TO.P,U8,5,X5*%
%TO.N,Net-(RV8-Pad2)*%
X78350000Y-94690000D03*
%TO.P,U8,6,Inh*%
%TO.N,GND*%
X80890000Y-94690000D03*
%TO.P,U8,7,VEE*%
X83430000Y-94690000D03*
%TO.P,U8,8,VSS*%
X85970000Y-94690000D03*
%TO.P,U8,9,C*%
%TO.N,CTRLC*%
X85970000Y-87070000D03*
%TO.P,U8,10,B*%
%TO.N,CTRLB*%
X83430000Y-87070000D03*
%TO.P,U8,11,A*%
%TO.N,CTRLA*%
X80890000Y-87070000D03*
%TO.P,U8,12,X3*%
%TO.N,Net-(RV4-Pad2)*%
X78350000Y-87070000D03*
%TO.P,U8,13,X0*%
%TO.N,TOADC*%
X75810000Y-87070000D03*
%TO.P,U8,14,X1*%
%TO.N,Net-(RV2-Pad2)*%
X73270000Y-87070000D03*
%TO.P,U8,15,X2*%
%TO.N,Net-(RV3-Pad2)*%
X70730000Y-87070000D03*
%TO.P,U8,16,VDD*%
%TO.N,+5V*%
X68190000Y-87070000D03*
%TD*%
D11*
%TO.P,R25,1*%
%TO.N,Net-(R25-Pad1)*%
X250958000Y-47320000D03*
D17*
%TO.P,R25,2*%
%TO.N,Net-(C31-Pad2)*%
X250958000Y-54940000D03*
%TD*%
D11*
%TO.P,C18,1*%
%TO.N,BIAS*%
X54870000Y-76516000D03*
%TO.P,C18,2*%
%TO.N,GND*%
X59870000Y-76516000D03*
%TD*%
%TO.P,R39,1*%
%TO.N,+5V*%
X251212000Y-87946000D03*
D17*
%TO.P,R39,2*%
%TO.N,CTRLA*%
X251212000Y-80326000D03*
%TD*%
D11*
%TO.P,R55,1*%
%TO.N,Net-(R51-Pad1)*%
X193554000Y-58482000D03*
D17*
%TO.P,R55,2*%
%TO.N,Net-(R55-Pad2)*%
X201174000Y-58482000D03*
%TD*%
D20*
%TO.P,RV14,1,1*%
%TO.N,GND*%
X145100000Y-116950000D03*
D21*
%TO.P,RV14,2,2*%
%TO.N,Net-(RV14-Pad2)*%
X142600000Y-116950000D03*
%TO.P,RV14,3,3*%
%TO.N,VREF*%
X140100000Y-116950000D03*
D22*
%TO.P,RV14,MP*%
%TO.N,N/C*%
X147000000Y-123950000D03*
X138200000Y-123950000D03*
%TD*%
D11*
%TO.P,C13,1*%
%TO.N,Net-(C13-Pad1)*%
X75190000Y-79564000D03*
%TO.P,C13,2*%
%TO.N,Net-(C13-Pad2)*%
X80190000Y-79564000D03*
%TD*%
%TO.P,R73,1*%
%TO.N,+3V3*%
X251720000Y-58482000D03*
D17*
%TO.P,R73,2*%
%TO.N,BUTTON4*%
X244100000Y-58482000D03*
%TD*%
D11*
%TO.P,C30,1*%
%TO.N,+5V*%
X218700000Y-124776000D03*
%TO.P,C30,2*%
%TO.N,GND*%
X223700000Y-124776000D03*
%TD*%
D33*
%TO.P,RV1,1,1*%
%TO.N,Net-(C46-Pad2)*%
X48420000Y-43500000D03*
D21*
X50920000Y-40500000D03*
D33*
%TO.P,RV1,2,2*%
X53420000Y-43500000D03*
D21*
X53420000Y-40500000D03*
D33*
%TO.P,RV1,3,3*%
%TO.N,Net-(C46-Pad1)*%
X58420000Y-43500000D03*
D21*
X55920000Y-40500000D03*
%TD*%
D11*
%TO.P,R12,1*%
%TO.N,GND*%
X66046000Y-66356000D03*
D17*
%TO.P,R12,2*%
%TO.N,Net-(C9-Pad1)*%
X66046000Y-73976000D03*
%TD*%
D11*
%TO.P,R18,1*%
%TO.N,Net-(C36-Pad2)*%
X93478000Y-61530000D03*
D17*
%TO.P,R18,2*%
%TO.N,Net-(C37-Pad2)*%
X85858000Y-61530000D03*
%TD*%
D11*
%TO.P,R40,1*%
%TO.N,SEL1*%
X233940000Y-75754000D03*
D17*
%TO.P,R40,2*%
%TO.N,Net-(Q2-Pad2)*%
X241560000Y-75754000D03*
%TD*%
D26*
%TO.P,U3,1,GPIO0*%
%TO.N,TX0*%
X208570000Y-40910000D03*
%TO.P,U3,2,GPIO1*%
%TO.N,RX0*%
X208570000Y-43450000D03*
D25*
%TO.P,U3,3,GND*%
%TO.N,GND*%
X208570000Y-45990000D03*
D26*
%TO.P,U3,4,GPIO2*%
%TO.N,SCK*%
X208570000Y-48530000D03*
%TO.P,U3,5,GPIO3*%
%TO.N,MOSI*%
X208570000Y-51070000D03*
%TO.P,U3,6,GPIO4*%
%TO.N,MISO*%
X208570000Y-53610000D03*
%TO.P,U3,7,GPIO5*%
%TO.N,SPICS*%
X208570000Y-56150000D03*
D25*
%TO.P,U3,8,GND*%
%TO.N,GND*%
X208570000Y-58690000D03*
D26*
%TO.P,U3,9,GPIO6*%
%TO.N,Net-(R53-Pad2)*%
X208570000Y-61230000D03*
%TO.P,U3,10,GPIO7*%
%TO.N,Net-(R54-Pad2)*%
X208570000Y-63770000D03*
%TO.P,U3,11,GPIO8*%
%TO.N,Net-(R55-Pad2)*%
X208570000Y-66310000D03*
%TO.P,U3,12,GPIO9*%
%TO.N,Net-(R56-Pad2)*%
X208570000Y-68850000D03*
D25*
%TO.P,U3,13,GND*%
%TO.N,GND*%
X208570000Y-71390000D03*
D26*
%TO.P,U3,14,GPIO10*%
%TO.N,SDA*%
X208570000Y-73930000D03*
%TO.P,U3,15,GPIO11*%
%TO.N,SCL*%
X208570000Y-76470000D03*
%TO.P,U3,16,GPIO12*%
%TO.N,Net-(R29-Pad2)*%
X208570000Y-79010000D03*
%TO.P,U3,17,GPIO13*%
%TO.N,Net-(R31-Pad2)*%
X208570000Y-81550000D03*
D25*
%TO.P,U3,18,GND*%
%TO.N,GND*%
X208570000Y-84090000D03*
D26*
%TO.P,U3,19,GPIO14*%
%TO.N,Net-(R33-Pad2)*%
X208570000Y-86630000D03*
%TO.P,U3,20,GPIO15*%
%TO.N,Net-(R35-Pad2)*%
X208570000Y-89170000D03*
%TO.P,U3,21,GPIO16*%
%TO.N,SEL0*%
X226350000Y-89170000D03*
%TO.P,U3,22,GPIO17*%
%TO.N,SEL1*%
X226350000Y-86630000D03*
D25*
%TO.P,U3,23,GND*%
%TO.N,GND*%
X226350000Y-84090000D03*
D26*
%TO.P,U3,24,GPIO18*%
%TO.N,SEL2*%
X226350000Y-81550000D03*
%TO.P,U3,25,GPIO19*%
%TO.N,BUTTON1*%
X226350000Y-79010000D03*
%TO.P,U3,26,GPIO20*%
%TO.N,BUTTON2*%
X226350000Y-76470000D03*
%TO.P,U3,27,GPIO21*%
%TO.N,BUTTON3*%
X226350000Y-73930000D03*
D25*
%TO.P,U3,28,GND*%
%TO.N,GND*%
X226350000Y-71390000D03*
D26*
%TO.P,U3,29,GPIO22*%
%TO.N,BUTTON4*%
X226350000Y-68850000D03*
%TO.P,U3,30,RUN*%
%TO.N,Net-(R44-Pad2)*%
X226350000Y-66310000D03*
%TO.P,U3,31,GPIO26_ADC0*%
%TO.N,ADC0*%
X226350000Y-63770000D03*
%TO.P,U3,32,GPIO27_ADC1*%
%TO.N,ADC1*%
X226350000Y-61230000D03*
D25*
%TO.P,U3,33,AGND*%
%TO.N,GND*%
X226350000Y-58690000D03*
D26*
%TO.P,U3,34,GPIO28_ADC2*%
%TO.N,ADC2*%
X226350000Y-56150000D03*
%TO.P,U3,35,ADC_VREF*%
%TO.N,VREF*%
X226350000Y-53610000D03*
%TO.P,U3,36,3V3*%
%TO.N,+3V3*%
X226350000Y-51070000D03*
%TO.P,U3,37,3V3_EN*%
%TO.N,Net-(R23-Pad1)*%
X226350000Y-48530000D03*
D25*
%TO.P,U3,38,GND*%
%TO.N,GND*%
X226350000Y-45990000D03*
D26*
%TO.P,U3,39,VSYS*%
%TO.N,Net-(R23-Pad2)*%
X226350000Y-43450000D03*
%TO.P,U3,40,VBUS*%
%TO.N,+5V*%
X226350000Y-40910000D03*
%TO.P,U3,41,SWCLK*%
%TO.N,unconnected-(U3-Pad41)*%
X214920000Y-88940000D03*
D25*
%TO.P,U3,42,GND*%
%TO.N,unconnected-(U3-Pad42)*%
X217460000Y-88940000D03*
D26*
%TO.P,U3,43,SWDIO*%
%TO.N,unconnected-(U3-Pad43)*%
X220000000Y-88940000D03*
%TD*%
D20*
%TO.P,RV9,1,1*%
%TO.N,GND*%
X97500000Y-116950000D03*
D21*
%TO.P,RV9,2,2*%
%TO.N,Net-(RV9-Pad2)*%
X95000000Y-116950000D03*
%TO.P,RV9,3,3*%
%TO.N,VREF*%
X92500000Y-116950000D03*
D22*
%TO.P,RV9,MP*%
%TO.N,N/C*%
X90600000Y-123950000D03*
X99400000Y-123950000D03*
%TD*%
D10*
%TO.P,SW20,1,1*%
%TO.N,GND*%
X204750000Y-153750000D03*
X198250000Y-153750000D03*
%TO.P,SW20,2,2*%
%TO.N,Net-(SW20-Pad2)*%
X204750000Y-149250000D03*
X198250000Y-149250000D03*
%TD*%
D20*
%TO.P,RV11,1,1*%
%TO.N,GND*%
X113000000Y-116950000D03*
D21*
%TO.P,RV11,2,2*%
%TO.N,Net-(RV11-Pad2)*%
X110500000Y-116950000D03*
%TO.P,RV11,3,3*%
%TO.N,VREF*%
X108000000Y-116950000D03*
D22*
%TO.P,RV11,MP*%
%TO.N,N/C*%
X114900000Y-123950000D03*
X106100000Y-123950000D03*
%TD*%
D12*
%TO.P,C20,1*%
%TO.N,Net-(C20-Pad1)*%
X98800000Y-71374888D03*
D11*
%TO.P,C20,2*%
%TO.N,GND*%
X98800000Y-73874888D03*
%TD*%
%TO.P,R57,1*%
%TO.N,Net-(Q4-Pad2)*%
X146800000Y-55560000D03*
D17*
%TO.P,R57,2*%
%TO.N,TX0*%
X146800000Y-47940000D03*
%TD*%
D11*
%TO.P,C31,1*%
%TO.N,GND*%
X258792000Y-55180000D03*
%TO.P,C31,2*%
%TO.N,Net-(C31-Pad2)*%
X253792000Y-55180000D03*
%TD*%
%TO.P,R8,1*%
%TO.N,GND*%
X39122000Y-57720000D03*
D17*
%TO.P,R8,2*%
%TO.N,Net-(C46-Pad1)*%
X39122000Y-65340000D03*
%TD*%
D10*
%TO.P,SW10,1,1*%
%TO.N,GND*%
X108250000Y-153750000D03*
X114750000Y-153750000D03*
%TO.P,SW10,2,2*%
%TO.N,Net-(SW10-Pad2)*%
X108250000Y-149250000D03*
X114750000Y-149250000D03*
%TD*%
D27*
%TO.P,J10,1*%
%TO.N,unconnected-(J10-Pad1)*%
X117420000Y-51630000D03*
%TO.P,J10,2*%
%TO.N,GND*%
X109920000Y-51630000D03*
%TO.P,J10,3*%
%TO.N,unconnected-(J10-Pad3)*%
X102420000Y-51630000D03*
%TO.P,J10,4*%
%TO.N,Net-(J10-Pad4)*%
X114920000Y-54130000D03*
%TO.P,J10,5*%
%TO.N,Net-(D3-Pad2)*%
X104920000Y-54130000D03*
%TO.P,J10,G*%
%TO.N,Net-(C39-Pad1)*%
X104920000Y-41730000D03*
X114920000Y-41730000D03*
%TD*%
D10*
%TO.P,SW29,1,1*%
%TO.N,GND*%
X251466000Y-93062000D03*
X257966000Y-93062000D03*
%TO.P,SW29,2,2*%
%TO.N,Net-(SW29-Pad2)*%
X251466000Y-97562000D03*
X257966000Y-97562000D03*
%TD*%
D11*
%TO.P,R49,1*%
%TO.N,Net-(R49-Pad1)*%
X191300000Y-51950000D03*
D17*
%TO.P,R49,2*%
%TO.N,GND*%
X183680000Y-51950000D03*
%TD*%
D10*
%TO.P,SW24,1,1*%
%TO.N,GND*%
X234750000Y-153750000D03*
X228250000Y-153750000D03*
%TO.P,SW24,2,2*%
%TO.N,Net-(SW24-Pad2)*%
X228250000Y-149250000D03*
X234750000Y-149250000D03*
%TD*%
%TO.P,SW28,1,1*%
%TO.N,GND*%
X257966000Y-101408000D03*
X251466000Y-101408000D03*
%TO.P,SW28,2,2*%
%TO.N,Net-(SW28-Pad2)*%
X251466000Y-105908000D03*
X257966000Y-105908000D03*
%TD*%
D11*
%TO.P,C25,1*%
%TO.N,+5V*%
X240544000Y-40956000D03*
%TO.P,C25,2*%
%TO.N,GND*%
X245544000Y-40956000D03*
%TD*%
D20*
%TO.P,RV22,1,1*%
%TO.N,GND*%
X211500000Y-101000000D03*
D21*
%TO.P,RV22,2,2*%
%TO.N,Net-(RV22-Pad2)*%
X209000000Y-101000000D03*
%TO.P,RV22,3,3*%
%TO.N,VREF*%
X206500000Y-101000000D03*
D22*
%TO.P,RV22,MP*%
%TO.N,N/C*%
X204600000Y-108000000D03*
X213400000Y-108000000D03*
%TD*%
D10*
%TO.P,SW7,1,1*%
%TO.N,GND*%
X92250000Y-141250000D03*
X85750000Y-141250000D03*
%TO.P,SW7,2,2*%
%TO.N,Net-(SW7-Pad2)*%
X92250000Y-136750000D03*
X85750000Y-136750000D03*
%TD*%
D12*
%TO.P,U13,1,X4*%
%TO.N,Net-(RV21-Pad2)*%
X175310000Y-93650000D03*
D17*
%TO.P,U13,2,X6*%
%TO.N,Net-(RV22-Pad2)*%
X177850000Y-93650000D03*
%TO.P,U13,3,X*%
%TO.N,ADC2*%
X180390000Y-93650000D03*
%TO.P,U13,4,X7*%
%TO.N,Net-(J9-PadT1)*%
X182930000Y-93650000D03*
%TO.P,U13,5,X5*%
%TO.N,Net-(J8-PadT1)*%
X185470000Y-93650000D03*
%TO.P,U13,6,Inh*%
%TO.N,GND*%
X188010000Y-93650000D03*
%TO.P,U13,7,VEE*%
X190550000Y-93650000D03*
%TO.P,U13,8,VSS*%
X193090000Y-93650000D03*
%TO.P,U13,9,C*%
%TO.N,CTRLC*%
X193090000Y-86030000D03*
%TO.P,U13,10,B*%
%TO.N,CTRLB*%
X190550000Y-86030000D03*
%TO.P,U13,11,A*%
%TO.N,CTRLA*%
X188010000Y-86030000D03*
%TO.P,U13,12,X3*%
%TO.N,Net-(RV20-Pad2)*%
X185470000Y-86030000D03*
%TO.P,U13,13,X0*%
%TO.N,Net-(RV19-Pad2)*%
X182930000Y-86030000D03*
%TO.P,U13,14,X1*%
%TO.N,Net-(RV18-Pad2)*%
X180390000Y-86030000D03*
%TO.P,U13,15,X2*%
%TO.N,Net-(RV17-Pad2)*%
X177850000Y-86030000D03*
%TO.P,U13,16,VDD*%
%TO.N,+5V*%
X175310000Y-86030000D03*
%TD*%
D11*
%TO.P,R41,1*%
%TO.N,+5V*%
X254514000Y-87946000D03*
D17*
%TO.P,R41,2*%
%TO.N,CTRLB*%
X254514000Y-80326000D03*
%TD*%
D11*
%TO.P,C44,1*%
%TO.N,+5V*%
X90160000Y-89540000D03*
%TO.P,C44,2*%
%TO.N,GND*%
X90160000Y-84540000D03*
%TD*%
%TO.P,R48,1*%
%TO.N,VREF*%
X228352000Y-131380000D03*
D17*
%TO.P,R48,2*%
%TO.N,Net-(J9-PadT1)*%
X220732000Y-131380000D03*
%TD*%
D11*
%TO.P,R29,1*%
%TO.N,Net-(R28-Pad1)*%
X193808000Y-66102000D03*
D17*
%TO.P,R29,2*%
%TO.N,Net-(R29-Pad2)*%
X201428000Y-66102000D03*
%TD*%
D11*
%TO.P,R1,1*%
%TO.N,BIAS*%
X65538000Y-54418000D03*
D17*
%TO.P,R1,2*%
%TO.N,Net-(C35-Pad1)*%
X65538000Y-62038000D03*
%TD*%
D10*
%TO.P,SW30,1,1*%
%TO.N,GND*%
X231654000Y-101408000D03*
X238154000Y-101408000D03*
%TO.P,SW30,2,2*%
%TO.N,Net-(SW30-Pad2)*%
X238154000Y-105908000D03*
X231654000Y-105908000D03*
%TD*%
%TO.P,SW26,1,1*%
%TO.N,GND*%
X241560000Y-84934000D03*
X248060000Y-84934000D03*
%TO.P,SW26,2,2*%
%TO.N,Net-(SW26-Pad2)*%
X248060000Y-89434000D03*
X241560000Y-89434000D03*
%TD*%
D16*
%TO.P,J2,G*%
%TO.N,GND*%
X40142000Y-40110000D03*
D15*
%TO.P,J2,S1*%
%TO.N,unconnected-(J2-PadS1)*%
X45342000Y-48010000D03*
%TO.P,J2,SN1*%
%TO.N,unconnected-(J2-PadSN1)*%
X42742000Y-47010000D03*
%TO.P,J2,T1*%
%TO.N,Net-(J1-Pad2)*%
X35342000Y-44510000D03*
D16*
%TO.P,J2,TN1*%
%TO.N,unconnected-(J2-PadTN1)*%
X35842000Y-51410000D03*
%TD*%
D20*
%TO.P,RV8,1,1*%
%TO.N,GND*%
X88000000Y-101000000D03*
D21*
%TO.P,RV8,2,2*%
%TO.N,Net-(RV8-Pad2)*%
X85500000Y-101000000D03*
%TO.P,RV8,3,3*%
%TO.N,VREF*%
X83000000Y-101000000D03*
D22*
%TO.P,RV8,MP*%
%TO.N,N/C*%
X81100000Y-108000000D03*
X89900000Y-108000000D03*
%TD*%
D11*
%TO.P,R27,1*%
%TO.N,Net-(C31-Pad2)*%
X248280000Y-44410000D03*
D17*
%TO.P,R27,2*%
%TO.N,+5V*%
X240660000Y-44410000D03*
%TD*%
D11*
%TO.P,R35,1*%
%TO.N,FROMDAC1*%
X193908000Y-75762000D03*
D17*
%TO.P,R35,2*%
%TO.N,Net-(R35-Pad2)*%
X201528000Y-75762000D03*
%TD*%
D11*
%TO.P,C47,1*%
%TO.N,+3V3*%
X162210000Y-44090000D03*
%TO.P,C47,2*%
%TO.N,GND*%
X162210000Y-49090000D03*
%TD*%
%TO.P,C43,1*%
%TO.N,+5V*%
X62590000Y-87190000D03*
%TO.P,C43,2*%
%TO.N,GND*%
X62590000Y-92190000D03*
%TD*%
D10*
%TO.P,SW2,1,1*%
%TO.N,GND*%
X47250000Y-141250000D03*
X40750000Y-141250000D03*
%TO.P,SW2,2,2*%
%TO.N,Net-(SW2-Pad2)*%
X40750000Y-136750000D03*
X47250000Y-136750000D03*
%TD*%
D11*
%TO.P,R59,1*%
%TO.N,Net-(C31-Pad2)*%
X244100000Y-54910000D03*
D17*
%TO.P,R59,2*%
%TO.N,VREF*%
X244100000Y-47290000D03*
%TD*%
D10*
%TO.P,SW3,1,1*%
%TO.N,GND*%
X48250000Y-153750000D03*
X54750000Y-153750000D03*
%TO.P,SW3,2,2*%
%TO.N,Net-(SW3-Pad2)*%
X54750000Y-149250000D03*
X48250000Y-149250000D03*
%TD*%
D11*
%TO.P,R54,1*%
%TO.N,Net-(R50-Pad1)*%
X193554000Y-55180000D03*
D17*
%TO.P,R54,2*%
%TO.N,Net-(R54-Pad2)*%
X201174000Y-55180000D03*
%TD*%
D34*
%TO.P,Brd1,*%
%TO.N,*%
X156800000Y-77100000D03*
X178300000Y-53600000D03*
X156800000Y-53600000D03*
X178300000Y-77100000D03*
D35*
%TO.P,Brd1,1,GND*%
%TO.N,GND*%
X163680000Y-53500000D03*
%TO.P,Brd1,2,VCC*%
%TO.N,Net-(Brd1-Pad2)*%
X166220000Y-53500000D03*
%TO.P,Brd1,3,SCL*%
%TO.N,SCL*%
X168760000Y-53500000D03*
%TO.P,Brd1,4,SDA*%
%TO.N,SDA*%
X171300000Y-53500000D03*
%TD*%
D20*
%TO.P,RV16,1,1*%
%TO.N,GND*%
X160100000Y-117000000D03*
D21*
%TO.P,RV16,2,2*%
%TO.N,Net-(RV16-Pad2)*%
X157600000Y-117000000D03*
%TO.P,RV16,3,3*%
%TO.N,VREF*%
X155100000Y-117000000D03*
D22*
%TO.P,RV16,MP*%
%TO.N,N/C*%
X153200000Y-124000000D03*
X162000000Y-124000000D03*
%TD*%
D10*
%TO.P,SW16,1,1*%
%TO.N,GND*%
X160750000Y-141250000D03*
X167250000Y-141250000D03*
%TO.P,SW16,2,2*%
%TO.N,Net-(SW16-Pad2)*%
X167250000Y-136750000D03*
X160750000Y-136750000D03*
%TD*%
D11*
%TO.P,R33,1*%
%TO.N,Net-(R32-Pad1)*%
X193878000Y-72562000D03*
D17*
%TO.P,R33,2*%
%TO.N,Net-(R33-Pad2)*%
X201498000Y-72562000D03*
%TD*%
D11*
%TO.P,C45,1*%
%TO.N,+5V*%
X234950000Y-88850000D03*
%TO.P,C45,2*%
%TO.N,GND*%
X234950000Y-83850000D03*
%TD*%
D10*
%TO.P,SW13,1,1*%
%TO.N,GND*%
X138500000Y-153750000D03*
X145000000Y-153750000D03*
%TO.P,SW13,2,2*%
%TO.N,Net-(SW13-Pad2)*%
X138500000Y-149250000D03*
X145000000Y-149250000D03*
%TD*%
D12*
%TO.P,C35,1*%
%TO.N,Net-(C35-Pad1)*%
X36410000Y-70280000D03*
D11*
%TO.P,C35,2*%
%TO.N,GND*%
X33910000Y-70280000D03*
%TD*%
D12*
%TO.P,C5,1*%
%TO.N,Net-(C5-Pad1)*%
X51070000Y-57750000D03*
D11*
%TO.P,C5,2*%
%TO.N,GND*%
X51070000Y-55250000D03*
%TD*%
%TO.P,R5,1*%
%TO.N,Net-(C46-Pad2)*%
X55378000Y-51116000D03*
D17*
%TO.P,R5,2*%
%TO.N,Net-(C5-Pad1)*%
X55378000Y-58736000D03*
%TD*%
D10*
%TO.P,SW6,1,1*%
%TO.N,GND*%
X78250000Y-153750000D03*
X84750000Y-153750000D03*
%TO.P,SW6,2,2*%
%TO.N,Net-(SW6-Pad2)*%
X84750000Y-149250000D03*
X78250000Y-149250000D03*
%TD*%
D20*
%TO.P,RV5,1,1*%
%TO.N,GND*%
X61500000Y-99950000D03*
D21*
%TO.P,RV5,2,2*%
%TO.N,Net-(RV5-Pad2)*%
X59000000Y-99950000D03*
%TO.P,RV5,3,3*%
%TO.N,VREF*%
X56500000Y-99950000D03*
D22*
%TO.P,RV5,MP*%
%TO.N,N/C*%
X54600000Y-106950000D03*
X63400000Y-106950000D03*
%TD*%
D13*
%TO.P,Q6,1,E*%
%TO.N,GND*%
X116952000Y-64578000D03*
D14*
%TO.P,Q6,2,B*%
%TO.N,Net-(Q6-Pad2)*%
X116952000Y-62038000D03*
%TO.P,Q6,3,C*%
%TO.N,RX0*%
X116952000Y-59498000D03*
%TD*%
D11*
%TO.P,R26,1*%
%TO.N,GND*%
X247656000Y-47306000D03*
D17*
%TO.P,R26,2*%
%TO.N,Net-(R25-Pad1)*%
X247656000Y-54926000D03*
%TD*%
D20*
%TO.P,RV2,1,1*%
%TO.N,GND*%
X40000000Y-117000000D03*
D21*
%TO.P,RV2,2,2*%
%TO.N,Net-(RV2-Pad2)*%
X37500000Y-117000000D03*
%TO.P,RV2,3,3*%
%TO.N,VREF*%
X35000000Y-117000000D03*
D22*
%TO.P,RV2,MP*%
%TO.N,N/C*%
X33100000Y-124000000D03*
X41900000Y-124000000D03*
%TD*%
D11*
%TO.P,C37,1*%
%TO.N,Net-(C37-Pad1)*%
X78024000Y-64832000D03*
%TO.P,C37,2*%
%TO.N,Net-(C37-Pad2)*%
X83024000Y-64832000D03*
%TD*%
D12*
%TO.P,C16,1*%
%TO.N,FROMDAC2*%
X146450000Y-71950000D03*
D11*
%TO.P,C16,2*%
%TO.N,Net-(C16-Pad2)*%
X143950000Y-71950000D03*
%TD*%
D12*
%TO.P,U10,1,X4*%
%TO.N,Net-(RV13-Pad2)*%
X120780000Y-94550000D03*
D17*
%TO.P,U10,2,X6*%
%TO.N,Net-(RV14-Pad2)*%
X123320000Y-94550000D03*
%TO.P,U10,3,X*%
%TO.N,ADC1*%
X125860000Y-94550000D03*
%TO.P,U10,4,X7*%
%TO.N,Net-(RV15-Pad2)*%
X128400000Y-94550000D03*
%TO.P,U10,5,X5*%
%TO.N,Net-(RV16-Pad2)*%
X130940000Y-94550000D03*
%TO.P,U10,6,Inh*%
%TO.N,GND*%
X133480000Y-94550000D03*
%TO.P,U10,7,VEE*%
X136020000Y-94550000D03*
%TO.P,U10,8,VSS*%
X138560000Y-94550000D03*
%TO.P,U10,9,C*%
%TO.N,CTRLC*%
X138560000Y-86930000D03*
%TO.P,U10,10,B*%
%TO.N,CTRLB*%
X136020000Y-86930000D03*
%TO.P,U10,11,A*%
%TO.N,CTRLA*%
X133480000Y-86930000D03*
%TO.P,U10,12,X3*%
%TO.N,Net-(RV12-Pad2)*%
X130940000Y-86930000D03*
%TO.P,U10,13,X0*%
%TO.N,Net-(RV11-Pad2)*%
X128400000Y-86930000D03*
%TO.P,U10,14,X1*%
%TO.N,Net-(RV10-Pad2)*%
X125860000Y-86930000D03*
%TO.P,U10,15,X2*%
%TO.N,Net-(RV9-Pad2)*%
X123320000Y-86930000D03*
%TO.P,U10,16,VDD*%
%TO.N,+5V*%
X120780000Y-86930000D03*
%TD*%
D10*
%TO.P,SW15,1,1*%
%TO.N,GND*%
X153500000Y-153750000D03*
X160000000Y-153750000D03*
%TO.P,SW15,2,2*%
%TO.N,Net-(SW15-Pad2)*%
X160000000Y-149250000D03*
X153500000Y-149250000D03*
%TD*%
D11*
%TO.P,R4,1*%
%TO.N,GND*%
X35840000Y-65300000D03*
D17*
%TO.P,R4,2*%
%TO.N,Net-(C3-Pad1)*%
X35840000Y-57680000D03*
%TD*%
D12*
%TO.P,U1,1*%
%TO.N,Net-(C9-Pad1)*%
X55560000Y-73100000D03*
D17*
%TO.P,U1,2,-*%
%TO.N,Net-(C9-Pad2)*%
X55560000Y-70560000D03*
%TO.P,U1,3,+*%
%TO.N,BIAS*%
X55560000Y-68020000D03*
%TO.P,U1,4,V-*%
%TO.N,GND*%
X55560000Y-65480000D03*
%TO.P,U1,5,+*%
%TO.N,Net-(C4-Pad1)*%
X47940000Y-65480000D03*
%TO.P,U1,6,-*%
%TO.N,Net-(C46-Pad2)*%
X47940000Y-68020000D03*
%TO.P,U1,7*%
%TO.N,Net-(C46-Pad1)*%
X47940000Y-70560000D03*
%TO.P,U1,8,V+*%
%TO.N,Net-(C35-Pad1)*%
X47940000Y-73100000D03*
%TD*%
D11*
%TO.P,R45,1*%
%TO.N,GND*%
X76206000Y-54418000D03*
D17*
%TO.P,R45,2*%
%TO.N,Net-(C38-Pad2)*%
X76206000Y-62038000D03*
%TD*%
D11*
%TO.P,C40,1*%
%TO.N,Net-(C40-Pad1)*%
X121164000Y-59498000D03*
%TO.P,C40,2*%
%TO.N,GND*%
X121164000Y-64498000D03*
%TD*%
D12*
%TO.P,D3,1,K*%
%TO.N,Net-(D3-Pad1)*%
X99828000Y-61530000D03*
D17*
%TO.P,D3,2,A*%
%TO.N,Net-(D3-Pad2)*%
X107448000Y-61530000D03*
%TD*%
D11*
%TO.P,R7,1*%
%TO.N,Net-(C46-Pad1)*%
X55790000Y-48390000D03*
D17*
%TO.P,R7,2*%
%TO.N,Net-(C46-Pad2)*%
X48170000Y-48390000D03*
%TD*%
D12*
%TO.P,C19,1*%
%TO.N,+5V*%
X130984664Y-70000000D03*
D11*
%TO.P,C19,2*%
%TO.N,GND*%
X133484664Y-70000000D03*
%TD*%
%TO.P,R3,1*%
%TO.N,Net-(C3-Pad1)*%
X44964000Y-54672000D03*
D17*
%TO.P,R3,2*%
%TO.N,Net-(J1-Pad2)*%
X37344000Y-54672000D03*
%TD*%
D11*
%TO.P,R38,1*%
%TO.N,SEL0*%
X233940000Y-79056000D03*
D17*
%TO.P,R38,2*%
%TO.N,Net-(Q1-Pad2)*%
X241560000Y-79056000D03*
%TD*%
D10*
%TO.P,SW4,1,1*%
%TO.N,GND*%
X62250000Y-141250000D03*
X55750000Y-141250000D03*
%TO.P,SW4,2,2*%
%TO.N,Net-(SW4-Pad2)*%
X55750000Y-136750000D03*
X62250000Y-136750000D03*
%TD*%
%TO.P,SW5,1,1*%
%TO.N,GND*%
X63250000Y-153750000D03*
X69750000Y-153750000D03*
%TO.P,SW5,2,2*%
%TO.N,Net-(SW5-Pad2)*%
X63250000Y-149250000D03*
X69750000Y-149250000D03*
%TD*%
D11*
%TO.P,R17,1*%
%TO.N,Net-(C17-Pad1)*%
X138725000Y-74700000D03*
D17*
%TO.P,R17,2*%
%TO.N,Net-(C36-Pad2)*%
X131105000Y-74700000D03*
%TD*%
D11*
%TO.P,R37,1*%
%TO.N,SDA*%
X193700000Y-48600000D03*
D17*
%TO.P,R37,2*%
%TO.N,+3V3*%
X201320000Y-48600000D03*
%TD*%
D11*
%TO.P,R20,1*%
%TO.N,GND*%
X69856000Y-78548000D03*
D17*
%TO.P,R20,2*%
%TO.N,Net-(C37-Pad1)*%
X69856000Y-70928000D03*
%TD*%
D11*
%TO.P,R43,1*%
%TO.N,+3V3*%
X251720000Y-68388000D03*
D17*
%TO.P,R43,2*%
%TO.N,BUTTON1*%
X244100000Y-68388000D03*
%TD*%
D12*
%TO.P,C32,1*%
%TO.N,Net-(Brd1-Pad2)*%
X156970000Y-47375113D03*
D11*
%TO.P,C32,2*%
%TO.N,GND*%
X156970000Y-44875113D03*
%TD*%
D20*
%TO.P,RV15,1,1*%
%TO.N,GND*%
X152000000Y-100950000D03*
D21*
%TO.P,RV15,2,2*%
%TO.N,Net-(RV15-Pad2)*%
X149500000Y-100950000D03*
%TO.P,RV15,3,3*%
%TO.N,VREF*%
X147000000Y-100950000D03*
D22*
%TO.P,RV15,MP*%
%TO.N,N/C*%
X145100000Y-107950000D03*
X153900000Y-107950000D03*
%TD*%
D11*
%TO.P,R32,1*%
%TO.N,Net-(R32-Pad1)*%
X191248000Y-72584000D03*
D17*
%TO.P,R32,2*%
%TO.N,Net-(R30-Pad1)*%
X183628000Y-72584000D03*
%TD*%
D13*
%TO.P,Q4,1,E*%
%TO.N,GND*%
X140214000Y-57974000D03*
D14*
%TO.P,Q4,2,B*%
%TO.N,Net-(Q4-Pad2)*%
X140214000Y-60514000D03*
%TO.P,Q4,3,C*%
%TO.N,Net-(Q4-Pad3)*%
X140214000Y-63054000D03*
%TD*%
D11*
%TO.P,C6,1*%
%TO.N,Net-(C35-Pad1)*%
X44456000Y-73722000D03*
%TO.P,C6,2*%
%TO.N,GND*%
X39456000Y-73722000D03*
%TD*%
%TO.P,R6,1*%
%TO.N,Net-(C4-Pad1)*%
X48012000Y-61530000D03*
D17*
%TO.P,R6,2*%
%TO.N,BIAS*%
X55632000Y-61530000D03*
%TD*%
D10*
%TO.P,SW27,1,1*%
%TO.N,GND*%
X248060000Y-101408000D03*
X241560000Y-101408000D03*
%TO.P,SW27,2,2*%
%TO.N,Net-(SW27-Pad2)*%
X248060000Y-105908000D03*
X241560000Y-105908000D03*
%TD*%
D11*
%TO.P,R58,1*%
%TO.N,+3V3*%
X201300000Y-45450000D03*
D17*
%TO.P,R58,2*%
%TO.N,Net-(Brd1-Pad2)*%
X193680000Y-45450000D03*
%TD*%
D13*
%TO.P,Q1,1,E*%
%TO.N,GND*%
X245624000Y-72960000D03*
D14*
%TO.P,Q1,2,B*%
%TO.N,Net-(Q1-Pad2)*%
X245624000Y-75500000D03*
%TO.P,Q1,3,C*%
%TO.N,CTRLA*%
X245624000Y-78040000D03*
%TD*%
D11*
%TO.P,R13,1*%
%TO.N,Net-(C11-Pad1)*%
X138750000Y-77950000D03*
D17*
%TO.P,R13,2*%
%TO.N,Net-(C12-Pad2)*%
X131130000Y-77950000D03*
%TD*%
D11*
%TO.P,R30,1*%
%TO.N,Net-(R30-Pad1)*%
X191228000Y-69454000D03*
D17*
%TO.P,R30,2*%
%TO.N,Net-(R28-Pad1)*%
X183608000Y-69454000D03*
%TD*%
D13*
%TO.P,U5,1,REF*%
%TO.N,Net-(R25-Pad1)*%
X254768000Y-47306000D03*
D14*
%TO.P,U5,2,A*%
%TO.N,GND*%
X254768000Y-49846000D03*
%TO.P,U5,3,K*%
%TO.N,Net-(C31-Pad2)*%
X254768000Y-52386000D03*
%TD*%
D20*
%TO.P,RV21,1,1*%
%TO.N,GND*%
X205500000Y-116950000D03*
D21*
%TO.P,RV21,2,2*%
%TO.N,Net-(RV21-Pad2)*%
X203000000Y-116950000D03*
%TO.P,RV21,3,3*%
%TO.N,VREF*%
X200500000Y-116950000D03*
D22*
%TO.P,RV21,MP*%
%TO.N,N/C*%
X207400000Y-123950000D03*
X198600000Y-123950000D03*
%TD*%
D10*
%TO.P,SW19,1,1*%
%TO.N,GND*%
X190750000Y-141250000D03*
X197250000Y-141250000D03*
%TO.P,SW19,2,2*%
%TO.N,Net-(SW19-Pad2)*%
X190750000Y-136750000D03*
X197250000Y-136750000D03*
%TD*%
D11*
%TO.P,R44,1*%
%TO.N,+3V3*%
X240798000Y-47306000D03*
D17*
%TO.P,R44,2*%
%TO.N,Net-(R44-Pad2)*%
X240798000Y-54926000D03*
%TD*%
D11*
%TO.P,R61,1*%
%TO.N,+5V*%
X134372000Y-65848000D03*
D17*
%TO.P,R61,2*%
%TO.N,Net-(Q4-Pad3)*%
X141992000Y-65848000D03*
%TD*%
D11*
%TO.P,R34,1*%
%TO.N,FROMDAC1*%
X191268000Y-75754000D03*
D17*
%TO.P,R34,2*%
%TO.N,Net-(R32-Pad1)*%
X183648000Y-75754000D03*
%TD*%
D11*
%TO.P,C21,1*%
%TO.N,Net-(C21-Pad1)*%
X101210000Y-78800000D03*
%TO.P,C21,2*%
%TO.N,GND*%
X96210000Y-78800000D03*
%TD*%
D12*
%TO.P,U2,1*%
%TO.N,Net-(C13-Pad1)*%
X76470000Y-75744000D03*
D17*
%TO.P,U2,2,-*%
%TO.N,Net-(C13-Pad2)*%
X79010000Y-75744000D03*
%TO.P,U2,3,+*%
%TO.N,BIAS*%
X81550000Y-75744000D03*
%TO.P,U2,4,V-*%
%TO.N,GND*%
X84090000Y-75744000D03*
%TO.P,U2,5,+*%
%TO.N,BIAS*%
X84090000Y-68124000D03*
%TO.P,U2,6,-*%
%TO.N,Net-(C37-Pad2)*%
X81550000Y-68124000D03*
%TO.P,U2,7*%
%TO.N,Net-(C37-Pad1)*%
X79010000Y-68124000D03*
%TO.P,U2,8,V+*%
%TO.N,+5V*%
X76470000Y-68124000D03*
%TD*%
D10*
%TO.P,SW18,1,1*%
%TO.N,GND*%
X183250000Y-153750000D03*
X189750000Y-153750000D03*
%TO.P,SW18,2,2*%
%TO.N,Net-(SW18-Pad2)*%
X189750000Y-149250000D03*
X183250000Y-149250000D03*
%TD*%
D12*
%TO.P,D2,1,K*%
%TO.N,VREF*%
X238940000Y-57780000D03*
D17*
%TO.P,D2,2,A*%
%TO.N,ADC0*%
X238940000Y-65400000D03*
%TD*%
D11*
%TO.P,R31,1*%
%TO.N,Net-(R30-Pad1)*%
X193838000Y-69312000D03*
D17*
%TO.P,R31,2*%
%TO.N,Net-(R31-Pad2)*%
X201458000Y-69312000D03*
%TD*%
D11*
%TO.P,R63,1*%
%TO.N,Net-(Q5-Pad2)*%
X144790000Y-58330000D03*
D17*
%TO.P,R63,2*%
%TO.N,Net-(Q4-Pad3)*%
X144790000Y-65950000D03*
%TD*%
D12*
%TO.P,U9,1,X4*%
%TO.N,Net-(SW13-Pad2)*%
X96030000Y-94550000D03*
D17*
%TO.P,U9,2,X6*%
%TO.N,Net-(SW14-Pad2)*%
X98570000Y-94550000D03*
%TO.P,U9,3,X*%
%TO.N,BUTTON2*%
X101110000Y-94550000D03*
%TO.P,U9,4,X7*%
%TO.N,Net-(SW15-Pad2)*%
X103650000Y-94550000D03*
%TO.P,U9,5,X5*%
%TO.N,Net-(SW16-Pad2)*%
X106190000Y-94550000D03*
%TO.P,U9,6,Inh*%
%TO.N,GND*%
X108730000Y-94550000D03*
%TO.P,U9,7,VEE*%
X111270000Y-94550000D03*
%TO.P,U9,8,VSS*%
X113810000Y-94550000D03*
%TO.P,U9,9,C*%
%TO.N,CTRLC*%
X113810000Y-86930000D03*
%TO.P,U9,10,B*%
%TO.N,CTRLB*%
X111270000Y-86930000D03*
%TO.P,U9,11,A*%
%TO.N,CTRLA*%
X108730000Y-86930000D03*
%TO.P,U9,12,X3*%
%TO.N,Net-(SW12-Pad2)*%
X106190000Y-86930000D03*
%TO.P,U9,13,X0*%
%TO.N,Net-(SW11-Pad2)*%
X103650000Y-86930000D03*
%TO.P,U9,14,X1*%
%TO.N,Net-(SW10-Pad2)*%
X101110000Y-86930000D03*
%TO.P,U9,15,X2*%
%TO.N,Net-(SW9-Pad2)*%
X98570000Y-86930000D03*
%TO.P,U9,16,VDD*%
%TO.N,+5V*%
X96030000Y-86930000D03*
%TD*%
D11*
%TO.P,C28,1*%
%TO.N,+5V*%
X142500000Y-86208000D03*
%TO.P,C28,2*%
%TO.N,GND*%
X142500000Y-91208000D03*
%TD*%
D10*
%TO.P,SW9,1,1*%
%TO.N,GND*%
X100750000Y-141250000D03*
X107250000Y-141250000D03*
%TO.P,SW9,2,2*%
%TO.N,Net-(SW9-Pad2)*%
X107250000Y-136750000D03*
X100750000Y-136750000D03*
%TD*%
D12*
%TO.P,C33,1*%
%TO.N,+3V3*%
X236200000Y-42805112D03*
D11*
%TO.P,C33,2*%
%TO.N,GND*%
X236200000Y-40305112D03*
%TD*%
%TO.P,R71,1*%
%TO.N,+3V3*%
X251720000Y-65086000D03*
D17*
%TO.P,R71,2*%
%TO.N,BUTTON2*%
X244100000Y-65086000D03*
%TD*%
D20*
%TO.P,RV18,1,1*%
%TO.N,GND*%
X174500000Y-116950000D03*
D21*
%TO.P,RV18,2,2*%
%TO.N,Net-(RV18-Pad2)*%
X172000000Y-116950000D03*
%TO.P,RV18,3,3*%
%TO.N,VREF*%
X169500000Y-116950000D03*
D22*
%TO.P,RV18,MP*%
%TO.N,N/C*%
X167600000Y-123950000D03*
X176400000Y-123950000D03*
%TD*%
D12*
%TO.P,C17,1*%
%TO.N,Net-(C17-Pad1)*%
X141544888Y-77150000D03*
D11*
%TO.P,C17,2*%
%TO.N,Net-(C16-Pad2)*%
X144044888Y-77150000D03*
%TD*%
D12*
%TO.P,C38,1*%
%TO.N,Net-(C37-Pad1)*%
X73158000Y-66356000D03*
D11*
%TO.P,C38,2*%
%TO.N,Net-(C38-Pad2)*%
X70658000Y-66356000D03*
%TD*%
D20*
%TO.P,RV4,1,1*%
%TO.N,GND*%
X54000000Y-117000000D03*
D21*
%TO.P,RV4,2,2*%
%TO.N,Net-(RV4-Pad2)*%
X51500000Y-117000000D03*
%TO.P,RV4,3,3*%
%TO.N,VREF*%
X49000000Y-117000000D03*
D22*
%TO.P,RV4,MP*%
%TO.N,N/C*%
X47100000Y-124000000D03*
X55900000Y-124000000D03*
%TD*%
D10*
%TO.P,SW25,1,1*%
%TO.N,GND*%
X249750000Y-153750000D03*
X243250000Y-153750000D03*
%TO.P,SW25,2,2*%
%TO.N,Net-(SW25-Pad2)*%
X243250000Y-149250000D03*
X249750000Y-149250000D03*
%TD*%
D11*
%TO.P,C9,1*%
%TO.N,Net-(C9-Pad1)*%
X59442000Y-73682000D03*
%TO.P,C9,2*%
%TO.N,Net-(C9-Pad2)*%
X59442000Y-68682000D03*
%TD*%
%TO.P,R53,1*%
%TO.N,Net-(R49-Pad1)*%
X193554000Y-51878000D03*
D17*
%TO.P,R53,2*%
%TO.N,Net-(R53-Pad2)*%
X201174000Y-51878000D03*
%TD*%
D10*
%TO.P,SW21,1,1*%
%TO.N,GND*%
X205750000Y-141250000D03*
X212250000Y-141250000D03*
%TO.P,SW21,2,2*%
%TO.N,Net-(SW21-Pad2)*%
X205750000Y-136750000D03*
X212250000Y-136750000D03*
%TD*%
D11*
%TO.P,R69,1*%
%TO.N,RX0*%
X121672000Y-67372000D03*
D17*
%TO.P,R69,2*%
%TO.N,+3V3*%
X114052000Y-67372000D03*
%TD*%
D11*
%TO.P,C3,1*%
%TO.N,Net-(C3-Pad1)*%
X47504000Y-51878000D03*
%TO.P,C3,2*%
%TO.N,GND*%
X52504000Y-51878000D03*
%TD*%
%TO.P,R42,1*%
%TO.N,SEL2*%
X233940000Y-72452000D03*
D17*
%TO.P,R42,2*%
%TO.N,Net-(Q3-Pad2)*%
X241560000Y-72452000D03*
%TD*%
D11*
%TO.P,R24,1*%
%TO.N,TOADC*%
X64776000Y-84644000D03*
D17*
%TO.P,R24,2*%
%TO.N,Net-(C9-Pad1)*%
X64776000Y-77024000D03*
%TD*%
D10*
%TO.P,SW8,1,1*%
%TO.N,GND*%
X93250000Y-153750000D03*
X99750000Y-153750000D03*
%TO.P,SW8,2,2*%
%TO.N,Net-(SW8-Pad2)*%
X93250000Y-149250000D03*
X99750000Y-149250000D03*
%TD*%
D11*
%TO.P,R50,1*%
%TO.N,Net-(R50-Pad1)*%
X191250000Y-55950000D03*
D17*
%TO.P,R50,2*%
%TO.N,Net-(R49-Pad1)*%
X183630000Y-55950000D03*
%TD*%
D11*
%TO.P,R15,1*%
%TO.N,Net-(C12-Pad2)*%
X94710000Y-75650000D03*
D17*
%TO.P,R15,2*%
%TO.N,Net-(C13-Pad1)*%
X87090000Y-75650000D03*
%TD*%
D11*
%TO.P,C27,1*%
%TO.N,ADC1*%
X231146000Y-58736000D03*
%TO.P,C27,2*%
%TO.N,GND*%
X236146000Y-58736000D03*
%TD*%
%TO.P,C42,1*%
%TO.N,+5V*%
X39930000Y-83220000D03*
%TO.P,C42,2*%
%TO.N,GND*%
X44930000Y-83220000D03*
%TD*%
%TO.P,R51,1*%
%TO.N,Net-(R51-Pad1)*%
X191300000Y-59200000D03*
D17*
%TO.P,R51,2*%
%TO.N,Net-(R50-Pad1)*%
X183680000Y-59200000D03*
%TD*%
D10*
%TO.P,SW1,1,1*%
%TO.N,GND*%
X39750000Y-153750000D03*
X33250000Y-153750000D03*
%TO.P,SW1,2,2*%
%TO.N,Net-(SW1-Pad2)*%
X33250000Y-149250000D03*
X39750000Y-149250000D03*
%TD*%
D20*
%TO.P,RV3,1,1*%
%TO.N,GND*%
X47000000Y-100000000D03*
D21*
%TO.P,RV3,2,2*%
%TO.N,Net-(RV3-Pad2)*%
X44500000Y-100000000D03*
%TO.P,RV3,3,3*%
%TO.N,VREF*%
X42000000Y-100000000D03*
D22*
%TO.P,RV3,MP*%
%TO.N,N/C*%
X48900000Y-107000000D03*
X40100000Y-107000000D03*
%TD*%
D12*
%TO.P,U11,1,X4*%
%TO.N,Net-(SW21-Pad2)*%
X148310000Y-93460000D03*
D17*
%TO.P,U11,2,X6*%
%TO.N,Net-(SW22-Pad2)*%
X150850000Y-93460000D03*
%TO.P,U11,3,X*%
%TO.N,BUTTON3*%
X153390000Y-93460000D03*
%TO.P,U11,4,X7*%
%TO.N,Net-(SW23-Pad2)*%
X155930000Y-93460000D03*
%TO.P,U11,5,X5*%
%TO.N,Net-(SW24-Pad2)*%
X158470000Y-93460000D03*
%TO.P,U11,6,Inh*%
%TO.N,GND*%
X161010000Y-93460000D03*
%TO.P,U11,7,VEE*%
X163550000Y-93460000D03*
%TO.P,U11,8,VSS*%
X166090000Y-93460000D03*
%TO.P,U11,9,C*%
%TO.N,CTRLC*%
X166090000Y-85840000D03*
%TO.P,U11,10,B*%
%TO.N,CTRLB*%
X163550000Y-85840000D03*
%TO.P,U11,11,A*%
%TO.N,CTRLA*%
X161010000Y-85840000D03*
%TO.P,U11,12,X3*%
%TO.N,Net-(SW20-Pad2)*%
X158470000Y-85840000D03*
%TO.P,U11,13,X0*%
%TO.N,Net-(SW19-Pad2)*%
X155930000Y-85840000D03*
%TO.P,U11,14,X1*%
%TO.N,Net-(SW18-Pad2)*%
X153390000Y-85840000D03*
%TO.P,U11,15,X2*%
%TO.N,Net-(SW17-Pad2)*%
X150850000Y-85840000D03*
%TO.P,U11,16,VDD*%
%TO.N,+5V*%
X148310000Y-85840000D03*
%TD*%
D36*
%TO.N,+5V*%
X219716000Y-100138000D03*
X257410000Y-68300000D03*
X217188500Y-108012000D03*
X193330000Y-88450000D03*
X258578000Y-72452000D03*
%TO.N,+3V3*%
X172970000Y-45670000D03*
X187300000Y-50450000D03*
%TO.N,BUTTON1*%
X220480000Y-80460000D03*
%TO.N,BUTTON2*%
X222080000Y-77160000D03*
%TO.N,BUTTON3*%
X223770000Y-75000000D03*
%TO.N,ADC0*%
X222670000Y-65360000D03*
%TO.N,ADC1*%
X223650000Y-62230000D03*
%TO.N,CTRLA*%
X105560000Y-84950000D03*
X157610000Y-83940000D03*
X76570000Y-85300000D03*
X184225000Y-84800000D03*
X130780000Y-85150000D03*
%TO.N,CTRLB*%
X60220000Y-85136000D03*
X222002000Y-104456000D03*
X107448000Y-84136000D03*
X130710000Y-83950000D03*
X161195000Y-83505000D03*
X167650000Y-84275000D03*
X117090000Y-85560000D03*
X186137500Y-83787500D03*
X88085000Y-87245000D03*
X140490000Y-84440000D03*
X76670000Y-84180000D03*
%TO.N,CTRLC*%
X190640000Y-83475500D03*
X130800000Y-82660000D03*
X163475000Y-83625000D03*
X222510000Y-102932000D03*
X76530000Y-82910000D03*
X106476000Y-83361500D03*
%TO.N,SCK*%
X174390000Y-46235500D03*
%TO.N,MOSI*%
X172280000Y-47010000D03*
%TO.N,MISO*%
X176660000Y-47020000D03*
%TO.N,SPICS*%
X171190000Y-47860000D03*
%TD*%
D37*
%TO.N,BIAS*%
X67570000Y-71690000D02*
X67570000Y-66102000D01*
X84090000Y-68124000D02*
X84090000Y-70918000D01*
X56902000Y-55942000D02*
X56902000Y-60260000D01*
X65792000Y-54418000D02*
X65538000Y-54418000D01*
X53600000Y-75246000D02*
X53600000Y-69980000D01*
X84334000Y-67880000D02*
X84090000Y-68124000D01*
X81550000Y-74240000D02*
X81550000Y-75744000D01*
X57732000Y-65848000D02*
X55560000Y-68020000D01*
X81550000Y-73458000D02*
X84090000Y-70918000D01*
X65538000Y-49084000D02*
X68332000Y-51878000D01*
X55632000Y-61530000D02*
X58934000Y-64832000D01*
X68332000Y-51878000D02*
X65792000Y-54418000D01*
X56902000Y-60260000D02*
X55632000Y-61530000D01*
X69602000Y-60260000D02*
X68586000Y-60260000D01*
X63760000Y-49084000D02*
X65538000Y-49084000D01*
X54870000Y-76516000D02*
X53600000Y-75246000D01*
X70120000Y-74240000D02*
X67570000Y-71690000D01*
X58934000Y-64832000D02*
X58934000Y-65848000D01*
X81550000Y-74240000D02*
X70120000Y-74240000D01*
X67570000Y-66102000D02*
X70364000Y-63308000D01*
X81550000Y-73458000D02*
X81550000Y-74240000D01*
X53600000Y-69980000D02*
X55560000Y-68020000D01*
X70364000Y-63308000D02*
X70364000Y-61022000D01*
X63760000Y-49084000D02*
X56902000Y-55942000D01*
X87636000Y-67880000D02*
X84334000Y-67880000D01*
X58934000Y-65848000D02*
X57732000Y-65848000D01*
X70364000Y-61022000D02*
X69602000Y-60260000D01*
X65538000Y-57212000D02*
X65538000Y-54418000D01*
X68586000Y-60260000D02*
X65538000Y-57212000D01*
X94240000Y-67880000D02*
X90938000Y-67880000D01*
%TO.N,Net-(C4-Pad1)*%
X47940000Y-61602000D02*
X48012000Y-61530000D01*
X48012000Y-61530000D02*
X43948000Y-61530000D01*
X43948000Y-61530000D02*
X43694000Y-61784000D01*
X47940000Y-65480000D02*
X47940000Y-61602000D01*
%TO.N,Net-(C5-Pad1)*%
X51070000Y-57750000D02*
X54392000Y-57750000D01*
X54392000Y-57750000D02*
X55378000Y-58736000D01*
%TO.N,+5V*%
X156270000Y-41930000D02*
X178410000Y-41930000D01*
X127768000Y-69150000D02*
X127768000Y-67118000D01*
X67700000Y-86580000D02*
X68190000Y-87070000D01*
X218960000Y-120706000D02*
X218960000Y-124516000D01*
X119200000Y-86930000D02*
X117090000Y-89040000D01*
X219208000Y-120458000D02*
X218960000Y-120706000D01*
X33280000Y-44258000D02*
X33280000Y-40448000D01*
X240544000Y-40956000D02*
X240544000Y-39178000D01*
X31502000Y-46036000D02*
X33280000Y-44258000D01*
X72650000Y-72452000D02*
X73158000Y-71944000D01*
X68840000Y-57466000D02*
X71126000Y-59752000D01*
X258578000Y-78548000D02*
X259340000Y-79310000D01*
X210120000Y-96040000D02*
X209290000Y-95210000D01*
X68840000Y-38670000D02*
X70110000Y-39940000D01*
X68332000Y-71436000D02*
X69348000Y-72452000D01*
X217188500Y-108012000D02*
X217176000Y-108024500D01*
X121164000Y-62038000D02*
X124212000Y-62038000D01*
X120780000Y-86930000D02*
X119200000Y-86930000D01*
X219716000Y-99376000D02*
X216380000Y-96040000D01*
X200500000Y-95210000D02*
X199570000Y-94280000D01*
X221650000Y-45800000D02*
X222450000Y-45000000D01*
X209290000Y-95210000D02*
X200500000Y-95210000D01*
X259340000Y-79310000D02*
X259340000Y-86422000D01*
X246200000Y-38840000D02*
X252120000Y-44760000D01*
X90230000Y-89470000D02*
X90160000Y-89540000D01*
X219716000Y-100138000D02*
X219716000Y-99376000D01*
X136596000Y-68896000D02*
X149358000Y-68896000D01*
X26676000Y-75754000D02*
X34142000Y-83220000D01*
X130984664Y-70000000D02*
X130984664Y-69115336D01*
X148310000Y-85840000D02*
X142868000Y-85840000D01*
X142868000Y-85840000D02*
X142500000Y-86208000D01*
X70110000Y-39940000D02*
X70110000Y-53224000D01*
X175310000Y-86030000D02*
X169754000Y-86030000D01*
X225590000Y-40910000D02*
X226350000Y-40910000D01*
X210700000Y-44700000D02*
X211800000Y-45800000D01*
X71126000Y-63562000D02*
X68332000Y-66356000D01*
X169754000Y-86030000D02*
X169678000Y-85954000D01*
X131700000Y-68400000D02*
X136100000Y-68400000D01*
X193390000Y-88510000D02*
X193330000Y-88450000D01*
X73158000Y-71944000D02*
X73158000Y-71436000D01*
X149560000Y-48640000D02*
X156270000Y-41930000D01*
X119386000Y-56704000D02*
X119386000Y-60260000D01*
X130134664Y-69150000D02*
X130984664Y-70000000D01*
X149560000Y-56060000D02*
X149560000Y-48640000D01*
X217176000Y-108024500D02*
X217176000Y-118680000D01*
X133356000Y-66864000D02*
X134372000Y-65848000D01*
X27438000Y-46036000D02*
X31502000Y-46036000D01*
X136100000Y-68400000D02*
X136596000Y-68896000D01*
X33280000Y-40448000D02*
X35058000Y-38670000D01*
X69348000Y-72452000D02*
X72650000Y-72452000D01*
X217176000Y-118680000D02*
X218954000Y-120458000D01*
X237130000Y-86670000D02*
X249936000Y-86670000D01*
X254514000Y-87946000D02*
X251212000Y-87946000D01*
X222450000Y-44050000D02*
X225590000Y-40910000D01*
X218954000Y-120458000D02*
X219208000Y-120458000D01*
X26676000Y-75754000D02*
X26676000Y-46798000D01*
X39930000Y-83220000D02*
X39930000Y-86730000D01*
X257816000Y-87946000D02*
X254514000Y-87946000D01*
X207400000Y-44700000D02*
X210700000Y-44700000D01*
X211800000Y-45800000D02*
X221650000Y-45800000D01*
X127768000Y-69150000D02*
X130134664Y-69150000D01*
X240544000Y-39178000D02*
X240206000Y-38840000D01*
X196840000Y-94280000D02*
X193390000Y-90830000D01*
X62590000Y-87190000D02*
X63200000Y-86580000D01*
X127768000Y-67118000D02*
X127514000Y-66864000D01*
X73158000Y-71436000D02*
X76470000Y-68124000D01*
X68840000Y-54494000D02*
X68840000Y-57466000D01*
X26676000Y-46798000D02*
X27438000Y-46036000D01*
X121418000Y-41210000D02*
X121418000Y-54672000D01*
X199570000Y-94280000D02*
X196840000Y-94280000D01*
X258578000Y-72452000D02*
X258578000Y-78548000D01*
X39930000Y-83220000D02*
X34142000Y-83220000D01*
X71126000Y-59752000D02*
X71126000Y-63562000D01*
X252120000Y-44760000D02*
X255830000Y-44760000D01*
X257410000Y-46340000D02*
X257410000Y-68300000D01*
X150374000Y-67880000D02*
X150374000Y-56874000D01*
X121418000Y-54672000D02*
X119386000Y-56704000D01*
X240206000Y-38840000D02*
X228420000Y-38840000D01*
X249936000Y-86670000D02*
X251212000Y-87946000D01*
X130984664Y-69115336D02*
X131700000Y-68400000D01*
X125990000Y-65340000D02*
X127514000Y-66864000D01*
X68840000Y-38670000D02*
X118878000Y-38670000D01*
X255830000Y-44760000D02*
X257410000Y-46340000D01*
X127514000Y-66864000D02*
X133356000Y-66864000D01*
X95620000Y-86930000D02*
X93080000Y-89470000D01*
X193390000Y-90830000D02*
X193390000Y-88510000D01*
X68332000Y-66356000D02*
X68332000Y-71436000D01*
X218960000Y-124516000D02*
X218700000Y-124776000D01*
X118878000Y-38670000D02*
X121418000Y-41210000D01*
X240544000Y-44294000D02*
X240660000Y-44410000D01*
X202800000Y-40100000D02*
X207400000Y-44700000D01*
X119386000Y-60260000D02*
X121164000Y-62038000D01*
X216380000Y-96040000D02*
X210120000Y-96040000D01*
X63200000Y-86580000D02*
X67700000Y-86580000D01*
X39930000Y-86730000D02*
X40070000Y-86870000D01*
X149358000Y-68896000D02*
X150374000Y-67880000D01*
X96030000Y-86930000D02*
X95620000Y-86930000D01*
X240206000Y-38840000D02*
X246200000Y-38840000D01*
X234950000Y-88850000D02*
X237130000Y-86670000D01*
X70110000Y-53224000D02*
X68840000Y-54494000D01*
X124212000Y-65340000D02*
X125990000Y-65340000D01*
X150374000Y-56874000D02*
X149560000Y-56060000D01*
X178410000Y-41930000D02*
X180240000Y-40100000D01*
X240544000Y-40956000D02*
X240544000Y-44294000D01*
X228420000Y-38840000D02*
X226350000Y-40910000D01*
X259340000Y-86422000D02*
X257816000Y-87946000D01*
X180240000Y-40100000D02*
X202800000Y-40100000D01*
X93080000Y-89470000D02*
X90230000Y-89470000D01*
X222450000Y-45000000D02*
X222450000Y-44050000D01*
X35058000Y-38670000D02*
X68840000Y-38670000D01*
%TO.N,Net-(C8-Pad2)*%
X60458000Y-56196000D02*
X58680000Y-57974000D01*
X58680000Y-57974000D02*
X58680000Y-58482000D01*
X62236000Y-56196000D02*
X60458000Y-56196000D01*
X58934000Y-60848000D02*
X58934000Y-58736000D01*
X58934000Y-60848000D02*
X61808000Y-60848000D01*
X63760000Y-62800000D02*
X63760000Y-65340000D01*
X63760000Y-65340000D02*
X62744000Y-66356000D01*
X58934000Y-58736000D02*
X58680000Y-58482000D01*
X61808000Y-60848000D02*
X63760000Y-62800000D01*
%TO.N,Net-(C9-Pad2)*%
X59442000Y-68682000D02*
X60458000Y-67666000D01*
X60458000Y-65594000D02*
X62236000Y-63816000D01*
X57564000Y-70560000D02*
X59442000Y-68682000D01*
X60458000Y-67666000D02*
X60458000Y-65594000D01*
X55560000Y-70560000D02*
X57564000Y-70560000D01*
%TO.N,Net-(C46-Pad1)*%
X55920000Y-40500000D02*
X58420000Y-43000000D01*
X55790000Y-48390000D02*
X55790000Y-46130000D01*
X64522000Y-40234000D02*
X61686000Y-40234000D01*
X56910000Y-49510000D02*
X56910000Y-53100000D01*
X51010000Y-60470000D02*
X51010000Y-67490000D01*
X49340000Y-54510000D02*
X49340000Y-58800000D01*
X44360000Y-70560000D02*
X44290000Y-70490000D01*
X47940000Y-70560000D02*
X44360000Y-70560000D01*
X51010000Y-67490000D02*
X47940000Y-70560000D01*
X55790000Y-46130000D02*
X58420000Y-43500000D01*
X55790000Y-48390000D02*
X56910000Y-49510000D01*
X44272000Y-70490000D02*
X44290000Y-70490000D01*
X49900000Y-53950000D02*
X49340000Y-54510000D01*
X49340000Y-58800000D02*
X51010000Y-60470000D01*
X58420000Y-43000000D02*
X58420000Y-43500000D01*
X56060000Y-53950000D02*
X49900000Y-53950000D01*
X61686000Y-40234000D02*
X58420000Y-43500000D01*
X56910000Y-53100000D02*
X56060000Y-53950000D01*
X39122000Y-65340000D02*
X44272000Y-70490000D01*
%TO.N,TOADC*%
X65284000Y-85152000D02*
X74428000Y-85152000D01*
X75810000Y-86534000D02*
X75810000Y-87070000D01*
X64776000Y-84644000D02*
X65284000Y-85152000D01*
X74428000Y-85152000D02*
X75810000Y-86534000D01*
%TO.N,Net-(C10-Pad2)*%
X149794888Y-72089775D02*
X149755113Y-72050000D01*
X149794888Y-77200000D02*
X149794888Y-72089775D01*
%TO.N,Net-(C11-Pad1)*%
X139500000Y-78700000D02*
X146500000Y-78700000D01*
X146500000Y-78700000D02*
X147294888Y-77905112D01*
X147294888Y-77905112D02*
X147294888Y-77200000D01*
X138750000Y-77950000D02*
X139500000Y-78700000D01*
%TO.N,Net-(C12-Pad2)*%
X93836000Y-75650000D02*
X90176000Y-79310000D01*
X90790000Y-81010000D02*
X90176000Y-80396000D01*
X130530000Y-77950000D02*
X131130000Y-77950000D01*
X93708000Y-75650000D02*
X94710000Y-75650000D01*
X90176000Y-80396000D02*
X90176000Y-79310000D01*
X90938000Y-72880000D02*
X93708000Y-75650000D01*
X94710000Y-75650000D02*
X93836000Y-75650000D01*
X128916000Y-79564000D02*
X130530000Y-77950000D01*
X109050000Y-81010000D02*
X110496000Y-79564000D01*
X110496000Y-79564000D02*
X128916000Y-79564000D01*
X90790000Y-81010000D02*
X109050000Y-81010000D01*
%TO.N,Net-(C13-Pad1)*%
X84342000Y-81080000D02*
X77214000Y-81080000D01*
X76470000Y-75744000D02*
X76470000Y-78284000D01*
X75698000Y-79564000D02*
X75190000Y-79564000D01*
X87090000Y-78332000D02*
X84342000Y-81080000D01*
X89414000Y-61784000D02*
X85858000Y-58228000D01*
X76470000Y-78284000D02*
X75190000Y-79564000D01*
X87090000Y-75650000D02*
X87406000Y-75650000D01*
X88906000Y-53148000D02*
X88906000Y-53402000D01*
X87090000Y-75650000D02*
X87090000Y-78332000D01*
X85858000Y-56450000D02*
X85858000Y-58228000D01*
X87406000Y-75650000D02*
X89414000Y-73642000D01*
X77214000Y-81080000D02*
X75698000Y-79564000D01*
X89414000Y-73642000D02*
X89414000Y-61784000D01*
X88906000Y-53402000D02*
X85858000Y-56450000D01*
%TO.N,Net-(C13-Pad2)*%
X79010000Y-78384000D02*
X80190000Y-79564000D01*
X80444000Y-79310000D02*
X80190000Y-79564000D01*
X79010000Y-75744000D02*
X79010000Y-78384000D01*
X82556000Y-79310000D02*
X80444000Y-79310000D01*
%TO.N,Net-(C15-Pad2)*%
X83064000Y-56450000D02*
X86366000Y-53148000D01*
X79762000Y-62292000D02*
X79508000Y-62038000D01*
X83064000Y-62038000D02*
X83064000Y-56450000D01*
X82810000Y-62292000D02*
X79762000Y-62292000D01*
X83064000Y-62038000D02*
X82810000Y-62292000D01*
X86366000Y-53148000D02*
X86406000Y-53148000D01*
%TO.N,Net-(C3-Pad1)*%
X44964000Y-54672000D02*
X47504000Y-52132000D01*
X47504000Y-52132000D02*
X47504000Y-51878000D01*
X36650000Y-57680000D02*
X35840000Y-57680000D01*
X44964000Y-54672000D02*
X39658000Y-54672000D01*
X44964000Y-58014000D02*
X43694000Y-59284000D01*
X39658000Y-54672000D02*
X36650000Y-57680000D01*
X44964000Y-54672000D02*
X44964000Y-58014000D01*
%TO.N,Net-(C17-Pad1)*%
X139300000Y-74700000D02*
X141544888Y-76944888D01*
X138725000Y-74700000D02*
X139300000Y-74700000D01*
X141544888Y-76944888D02*
X141544888Y-77150000D01*
%TO.N,Net-(C20-Pad1)*%
X97924888Y-71374888D02*
X97000000Y-70450000D01*
X100264888Y-71374888D02*
X98800000Y-71374888D01*
X103920000Y-72410000D02*
X101300000Y-72410000D01*
X94470000Y-50390000D02*
X92840000Y-48760000D01*
X97000000Y-70450000D02*
X97000000Y-57400000D01*
X98800000Y-71374888D02*
X97924888Y-71374888D01*
X101300000Y-72410000D02*
X100264888Y-71374888D01*
X97000000Y-57400000D02*
X94470000Y-54870000D01*
X94470000Y-54870000D02*
X94470000Y-50390000D01*
%TO.N,Net-(J3-PadS1)*%
X82990000Y-49346000D02*
X82990000Y-54344000D01*
X81914000Y-48270000D02*
X82990000Y-49346000D01*
X82990000Y-54344000D02*
X83064000Y-54418000D01*
%TO.N,FROMDAC1*%
X193908000Y-75762000D02*
X191276000Y-75762000D01*
X181875000Y-74115000D02*
X181875000Y-76300000D01*
X183225000Y-77650000D02*
X189372000Y-77650000D01*
X152255113Y-72050000D02*
X179810000Y-72050000D01*
X191276000Y-75762000D02*
X191268000Y-75754000D01*
X189372000Y-77650000D02*
X191268000Y-75754000D01*
X181875000Y-76300000D02*
X183225000Y-77650000D01*
X179810000Y-72050000D02*
X181875000Y-74115000D01*
%TO.N,Net-(C21-Pad1)*%
X126244000Y-75246000D02*
X127768000Y-76770000D01*
X109258000Y-77500000D02*
X111512000Y-75246000D01*
X103930000Y-77500000D02*
X109258000Y-77500000D01*
X111512000Y-75246000D02*
X126244000Y-75246000D01*
X103920000Y-77490000D02*
X102520000Y-77490000D01*
X102520000Y-77490000D02*
X101210000Y-78800000D01*
X103920000Y-77490000D02*
X103930000Y-77500000D01*
%TO.N,Net-(C9-Pad1)*%
X59736000Y-73976000D02*
X59442000Y-73682000D01*
X56142000Y-73682000D02*
X55560000Y-73100000D01*
X59442000Y-73682000D02*
X56142000Y-73682000D01*
X62744000Y-73976000D02*
X66046000Y-73976000D01*
X65538000Y-76262000D02*
X65538000Y-74484000D01*
X65538000Y-74484000D02*
X66046000Y-73976000D01*
X62744000Y-73976000D02*
X59736000Y-73976000D01*
X64776000Y-77024000D02*
X65538000Y-76262000D01*
%TO.N,Net-(R29-Pad2)*%
X201428000Y-66102000D02*
X201428000Y-66610000D01*
X203502000Y-71597092D02*
X204476000Y-72571092D01*
X201428000Y-66610000D02*
X203502000Y-68684000D01*
X204476000Y-77278000D02*
X206208000Y-79010000D01*
X203502000Y-68684000D02*
X203502000Y-71597092D01*
X204476000Y-72571092D02*
X204476000Y-77278000D01*
X206208000Y-79010000D02*
X208570000Y-79010000D01*
%TO.N,+3V3*%
X251720000Y-61784000D02*
X251720000Y-58482000D01*
X183030000Y-54100000D02*
X182090000Y-55040000D01*
X151610000Y-53900000D02*
X150300000Y-52590000D01*
X229240000Y-49980000D02*
X228150000Y-51070000D01*
X151610000Y-53930000D02*
X151610000Y-53900000D01*
X243846000Y-56958000D02*
X242322000Y-55434000D01*
X242322000Y-55434000D02*
X242322000Y-53148000D01*
X182090000Y-55040000D02*
X182090000Y-59010000D01*
X107458000Y-64827000D02*
X111507000Y-64827000D01*
X159160000Y-61450000D02*
X151780000Y-54070000D01*
X220020000Y-57400000D02*
X226350000Y-51070000D01*
X246386000Y-58482000D02*
X244862000Y-56958000D01*
X149767000Y-69658000D02*
X157975000Y-61450000D01*
X201320000Y-48600000D02*
X201320000Y-49320000D01*
X114052000Y-67522000D02*
X118240000Y-71710000D01*
X231940000Y-49980000D02*
X229240000Y-49980000D01*
X171390000Y-44090000D02*
X172970000Y-45670000D01*
X150300000Y-49000000D02*
X156660000Y-42640000D01*
X162210000Y-44090000D02*
X171390000Y-44090000D01*
X203500000Y-55850000D02*
X205050000Y-57400000D01*
X240798000Y-47306000D02*
X240798000Y-51372000D01*
X201300000Y-46900000D02*
X201300000Y-45450000D01*
X151780000Y-54070000D02*
X151750000Y-54070000D01*
X200696000Y-47050000D02*
X200698000Y-47052000D01*
X182090000Y-59010000D02*
X179650000Y-61450000D01*
X111507000Y-64827000D02*
X114052000Y-67372000D01*
X187300000Y-52240000D02*
X185440000Y-54100000D01*
X151750000Y-54070000D02*
X151610000Y-53930000D01*
X242322000Y-53148000D02*
X240672000Y-51498000D01*
X200698000Y-47052000D02*
X201148000Y-47052000D01*
X150300000Y-52590000D02*
X150300000Y-49000000D01*
X251720000Y-61784000D02*
X251720000Y-65086000D01*
X233430000Y-43830000D02*
X233430000Y-48490000D01*
X179650000Y-61450000D02*
X168575000Y-61450000D01*
X200698000Y-47052000D02*
X201320000Y-47674000D01*
X157975000Y-61450000D02*
X168575000Y-61450000D01*
X236200000Y-42805112D02*
X234454888Y-42805112D01*
X201320000Y-49320000D02*
X203500000Y-51500000D01*
X203500000Y-51500000D02*
X203500000Y-55850000D01*
X205050000Y-57400000D02*
X220020000Y-57400000D01*
X134880000Y-71710000D02*
X136932000Y-69658000D01*
X114052000Y-67372000D02*
X114052000Y-67522000D01*
X228150000Y-51070000D02*
X226350000Y-51070000D01*
X192032000Y-47050000D02*
X200696000Y-47050000D01*
X201320000Y-47674000D02*
X201320000Y-48600000D01*
X244862000Y-56958000D02*
X243846000Y-56958000D01*
X187300000Y-50450000D02*
X187300000Y-52240000D01*
X191268000Y-47814000D02*
X192032000Y-47050000D01*
X168575000Y-61450000D02*
X159160000Y-61450000D01*
X240798000Y-51372000D02*
X240672000Y-51498000D01*
X233430000Y-48490000D02*
X231940000Y-49980000D01*
X156660000Y-42640000D02*
X159590000Y-42640000D01*
X251720000Y-58482000D02*
X246386000Y-58482000D01*
X234454888Y-42805112D02*
X233430000Y-43830000D01*
X251720000Y-65086000D02*
X251720000Y-68388000D01*
X136932000Y-69658000D02*
X149767000Y-69658000D01*
X185440000Y-54100000D02*
X183030000Y-54100000D01*
X161040000Y-44090000D02*
X162210000Y-44090000D01*
X201148000Y-47052000D02*
X201300000Y-46900000D01*
X118240000Y-71710000D02*
X134880000Y-71710000D01*
X159590000Y-42640000D02*
X161040000Y-44090000D01*
%TO.N,SCL*%
X171060000Y-58040000D02*
X169880000Y-56860000D01*
X198126000Y-51624000D02*
X196602000Y-50100000D01*
X202900000Y-67050000D02*
X202900000Y-65150000D01*
X169880000Y-56860000D02*
X169850000Y-56860000D01*
X200412000Y-64324000D02*
X198126000Y-62038000D01*
X185490000Y-49656000D02*
X185490000Y-52510000D01*
X206970000Y-76470000D02*
X205492000Y-74992000D01*
X183648000Y-47814000D02*
X185490000Y-49656000D01*
X181380000Y-54860000D02*
X181380000Y-57070000D01*
X169850000Y-56860000D02*
X168760000Y-55770000D01*
X186044000Y-47814000D02*
X183648000Y-47814000D01*
X196602000Y-50100000D02*
X188330000Y-50100000D01*
X184670000Y-53330000D02*
X182910000Y-53330000D01*
X204150000Y-71078365D02*
X204150000Y-68300000D01*
X205492000Y-74992000D02*
X205492000Y-72420365D01*
X180410000Y-58040000D02*
X171060000Y-58040000D01*
X188330000Y-50100000D02*
X186044000Y-47814000D01*
X168760000Y-55770000D02*
X168760000Y-53500000D01*
X182910000Y-53330000D02*
X181380000Y-54860000D01*
X208570000Y-76470000D02*
X206970000Y-76470000D01*
X202900000Y-65150000D02*
X202074000Y-64324000D01*
X202074000Y-64324000D02*
X200412000Y-64324000D01*
X198126000Y-62038000D02*
X198126000Y-51624000D01*
X185490000Y-52510000D02*
X184670000Y-53330000D01*
X204150000Y-68300000D02*
X202900000Y-67050000D01*
X181380000Y-57070000D02*
X180410000Y-58040000D01*
X205492000Y-72420365D02*
X204150000Y-71078365D01*
%TO.N,SDA*%
X203550000Y-66700000D02*
X204950000Y-68100000D01*
X194184000Y-49084000D02*
X198126000Y-49084000D01*
X200666000Y-63562000D02*
X202412000Y-63562000D01*
X174220000Y-51280000D02*
X175970000Y-51280000D01*
X171300000Y-53500000D02*
X172000000Y-53500000D01*
X184900000Y-45450000D02*
X188788000Y-49338000D01*
X198126000Y-49084000D02*
X198888000Y-49846000D01*
X203550000Y-64700000D02*
X203550000Y-66700000D01*
X202412000Y-63562000D02*
X203550000Y-64700000D01*
X175970000Y-51280000D02*
X181800000Y-45450000D01*
X204950000Y-68100000D02*
X204950000Y-70310000D01*
X181800000Y-45450000D02*
X184900000Y-45450000D01*
X188788000Y-49338000D02*
X192962000Y-49338000D01*
X192962000Y-49338000D02*
X193700000Y-48600000D01*
X204950000Y-70310000D02*
X208570000Y-73930000D01*
X198888000Y-61784000D02*
X200666000Y-63562000D01*
X198888000Y-49846000D02*
X198888000Y-61784000D01*
X193700000Y-48600000D02*
X194184000Y-49084000D01*
X172000000Y-53500000D02*
X174220000Y-51280000D01*
%TO.N,VREF*%
X246132000Y-134682000D02*
X243084000Y-131634000D01*
X241410000Y-121070000D02*
X246730000Y-121070000D01*
X168480000Y-143750000D02*
X166320000Y-143750000D01*
X191500000Y-100950000D02*
X191500000Y-104050000D01*
X206500000Y-104510000D02*
X208330000Y-106340000D01*
X251780000Y-45470000D02*
X248810000Y-42500000D01*
X35000000Y-117000000D02*
X37010000Y-119010000D01*
X108000000Y-117650000D02*
X108000000Y-116950000D01*
X208652000Y-119300000D02*
X207158000Y-119300000D01*
X245604000Y-42500000D02*
X244100000Y-44004000D01*
X115500000Y-117930000D02*
X114510000Y-118920000D01*
X255560000Y-45470000D02*
X251780000Y-45470000D01*
X237400000Y-148302000D02*
X237400000Y-153880000D01*
X228352000Y-131380000D02*
X224288000Y-131380000D01*
X236226000Y-53656000D02*
X234194000Y-53656000D01*
X91410000Y-130610000D02*
X94980000Y-134180000D01*
X210572000Y-121220000D02*
X208652000Y-119300000D01*
X41790000Y-112970000D02*
X44030000Y-110730000D01*
X260610000Y-151192000D02*
X260610000Y-71928183D01*
X226350000Y-53610000D02*
X226490000Y-53750000D01*
X152800000Y-118920000D02*
X153180000Y-118920000D01*
X255530000Y-156272000D02*
X260610000Y-151192000D01*
X169500000Y-116950000D02*
X169500000Y-114220000D01*
X106730000Y-118920000D02*
X108000000Y-117650000D01*
X167430000Y-132960000D02*
X171520000Y-137050000D01*
X236630000Y-48650000D02*
X239450000Y-45830000D01*
X37010000Y-119010000D02*
X49580000Y-119010000D01*
X193080000Y-119300000D02*
X197940000Y-119300000D01*
X248810000Y-42500000D02*
X245604000Y-42500000D01*
X60920000Y-119010000D02*
X75440000Y-119010000D01*
X256390000Y-69150000D02*
X256390000Y-46300000D01*
X235572000Y-156272000D02*
X255530000Y-156272000D01*
X169500000Y-114220000D02*
X164700000Y-109420000D01*
X94980000Y-134810000D02*
X97680000Y-137510000D01*
X191500000Y-104050000D02*
X193080000Y-105630000D01*
X83000000Y-101000000D02*
X83000000Y-112210000D01*
X260610000Y-71928183D02*
X258121817Y-69440000D01*
X63000000Y-112840000D02*
X63000000Y-116950000D01*
X241306000Y-131634000D02*
X241172000Y-131500000D01*
X103080000Y-154250000D02*
X104820000Y-155990000D01*
X251720000Y-134682000D02*
X246132000Y-134682000D01*
X49000000Y-118430000D02*
X49580000Y-119010000D01*
X228352000Y-128078000D02*
X228352000Y-131380000D01*
X198150000Y-119300000D02*
X200500000Y-116950000D01*
X137890000Y-118920000D02*
X138130000Y-118920000D01*
X112500000Y-100950000D02*
X112500000Y-105620000D01*
X101830000Y-104780000D02*
X101830000Y-118020000D01*
X104820000Y-155990000D02*
X162220000Y-155990000D01*
X147000000Y-100950000D02*
X147000000Y-118300000D01*
X101830000Y-118020000D02*
X102730000Y-118920000D01*
X112500000Y-105620000D02*
X115500000Y-108620000D01*
X228352000Y-131380000D02*
X233178000Y-136206000D01*
X258121817Y-69440000D02*
X256680000Y-69440000D01*
X80530000Y-127050000D02*
X84090000Y-130610000D01*
X243720000Y-45830000D02*
X244100000Y-46210000D01*
X147000000Y-118300000D02*
X146380000Y-118920000D01*
X114510000Y-118920000D02*
X121030000Y-118920000D01*
X241306000Y-120966000D02*
X241410000Y-121070000D01*
X164700000Y-104840000D02*
X162000000Y-102140000D01*
X84150000Y-118110000D02*
X83250000Y-119010000D01*
X60920000Y-119010000D02*
X60940000Y-119010000D01*
X222764000Y-132904000D02*
X218954000Y-132904000D01*
X246730000Y-121070000D02*
X247134000Y-121474000D01*
X253498000Y-120204000D02*
X254260000Y-120966000D01*
X210572000Y-124522000D02*
X210572000Y-121220000D01*
X102730000Y-118920000D02*
X94470000Y-118920000D01*
X166320000Y-143750000D02*
X165180000Y-144890000D01*
X183150000Y-119300000D02*
X193080000Y-119300000D01*
X239450000Y-45830000D02*
X243720000Y-45830000D01*
X237400000Y-153880000D02*
X235290000Y-155990000D01*
X228512000Y-53750000D02*
X230384000Y-51878000D01*
X146380000Y-118920000D02*
X152800000Y-118920000D01*
X165180000Y-144890000D02*
X165180000Y-153520000D01*
X236050000Y-48950000D02*
X233122000Y-51878000D01*
X94980000Y-134180000D02*
X94980000Y-134810000D01*
X233178000Y-144080000D02*
X237400000Y-148302000D01*
X56500000Y-106340000D02*
X63000000Y-112840000D01*
X241172000Y-131500000D02*
X228472000Y-131500000D01*
X153900000Y-118920000D02*
X156330000Y-121350000D01*
X254260000Y-132142000D02*
X251720000Y-134682000D01*
X244100000Y-46210000D02*
X244100000Y-47290000D01*
X235290000Y-155990000D02*
X235572000Y-156272000D01*
X233122000Y-51878000D02*
X231226000Y-51878000D01*
X102730000Y-118920000D02*
X106730000Y-118920000D01*
X224288000Y-131380000D02*
X222764000Y-132904000D01*
X233178000Y-136206000D02*
X233178000Y-144080000D01*
X115500000Y-108620000D02*
X115500000Y-117930000D01*
X247134000Y-121474000D02*
X250426000Y-121474000D01*
X152800000Y-118920000D02*
X153900000Y-118920000D01*
X256680000Y-69440000D02*
X256390000Y-69150000D01*
X60940000Y-119010000D02*
X63000000Y-116950000D01*
X49000000Y-117000000D02*
X49000000Y-118430000D01*
X121030000Y-118920000D02*
X123000000Y-116950000D01*
X206500000Y-101000000D02*
X206500000Y-104510000D01*
X218954000Y-132904000D02*
X210572000Y-124522000D01*
X197940000Y-119300000D02*
X207158000Y-119300000D01*
X256390000Y-46300000D02*
X255560000Y-45470000D01*
X233122000Y-52584000D02*
X233122000Y-51878000D01*
X164700000Y-109420000D02*
X164700000Y-104840000D01*
X254260000Y-120966000D02*
X254260000Y-132142000D01*
X171850000Y-119300000D02*
X183150000Y-119300000D01*
X49580000Y-119010000D02*
X60920000Y-119010000D01*
X75440000Y-119010000D02*
X77500000Y-116950000D01*
X138130000Y-118920000D02*
X140100000Y-116950000D01*
X156330000Y-128550000D02*
X160740000Y-132960000D01*
X97680000Y-141920000D02*
X103080000Y-147320000D01*
X234194000Y-53656000D02*
X233122000Y-52584000D01*
X243084000Y-131634000D02*
X241306000Y-131634000D01*
X114510000Y-118920000D02*
X106730000Y-118920000D01*
X226490000Y-53750000D02*
X228512000Y-53750000D01*
X44030000Y-102030000D02*
X42000000Y-100000000D01*
X162220000Y-155990000D02*
X235290000Y-155990000D01*
X56500000Y-99950000D02*
X56500000Y-106340000D01*
X238940000Y-57780000D02*
X238940000Y-56370000D01*
X97680000Y-137510000D02*
X97680000Y-141920000D01*
X197940000Y-119300000D02*
X198150000Y-119300000D01*
X83000000Y-112210000D02*
X84150000Y-113360000D01*
X80530000Y-119010000D02*
X80530000Y-127050000D01*
X169500000Y-116950000D02*
X171850000Y-119300000D01*
X146380000Y-118920000D02*
X137890000Y-118920000D01*
X236050000Y-48650000D02*
X236630000Y-48650000D01*
X193080000Y-105630000D02*
X193080000Y-119300000D01*
X35000000Y-117000000D02*
X39030000Y-112970000D01*
X84090000Y-130610000D02*
X91410000Y-130610000D01*
X171520000Y-140710000D02*
X168480000Y-143750000D01*
X208330000Y-118340000D02*
X207370000Y-119300000D01*
X208330000Y-106340000D02*
X208330000Y-118340000D01*
X103080000Y-147320000D02*
X103080000Y-154250000D01*
X83250000Y-119010000D02*
X80530000Y-119010000D01*
X165180000Y-153520000D02*
X162710000Y-155990000D01*
X156330000Y-121350000D02*
X156330000Y-128550000D01*
X121030000Y-118920000D02*
X137890000Y-118920000D01*
X80530000Y-119010000D02*
X75440000Y-119010000D01*
X207158000Y-119300000D02*
X207370000Y-119300000D01*
X153180000Y-118920000D02*
X155100000Y-117000000D01*
X230384000Y-51878000D02*
X231226000Y-51878000D01*
X162710000Y-155990000D02*
X162220000Y-155990000D01*
X160740000Y-132960000D02*
X167430000Y-132960000D01*
X171520000Y-137050000D02*
X171520000Y-140710000D01*
X84150000Y-113360000D02*
X84150000Y-118110000D01*
X44030000Y-110730000D02*
X44030000Y-102030000D01*
X228472000Y-131500000D02*
X228352000Y-131380000D01*
X98000000Y-100950000D02*
X101830000Y-104780000D01*
X236050000Y-48650000D02*
X236050000Y-48950000D01*
X162000000Y-102140000D02*
X162000000Y-101000000D01*
X250426000Y-121474000D02*
X251696000Y-120204000D01*
X238940000Y-56370000D02*
X236226000Y-53656000D01*
X94470000Y-118920000D02*
X92500000Y-116950000D01*
X39030000Y-112970000D02*
X41790000Y-112970000D01*
X183150000Y-119300000D02*
X185500000Y-116950000D01*
X251696000Y-120204000D02*
X253498000Y-120204000D01*
X244100000Y-44004000D02*
X244100000Y-47290000D01*
%TO.N,Net-(Q1-Pad2)*%
X245116000Y-75500000D02*
X245624000Y-75500000D01*
X241560000Y-79056000D02*
X245116000Y-75500000D01*
%TO.N,Net-(Q2-Pad2)*%
X250704000Y-75500000D02*
X249434000Y-74230000D01*
X249434000Y-74230000D02*
X243846000Y-74230000D01*
X243846000Y-74230000D02*
X242322000Y-75754000D01*
X242322000Y-75754000D02*
X241560000Y-75754000D01*
%TO.N,Net-(Q3-Pad2)*%
X251466000Y-71182000D02*
X255784000Y-75500000D01*
X241560000Y-72452000D02*
X242830000Y-71182000D01*
X242830000Y-71182000D02*
X251466000Y-71182000D01*
%TO.N,SEL0*%
X229876000Y-82358000D02*
X233178000Y-79056000D01*
X233178000Y-79056000D02*
X233940000Y-79056000D01*
X226350000Y-89170000D02*
X229876000Y-85644000D01*
X229876000Y-85644000D02*
X229876000Y-82358000D01*
%TO.N,SEL1*%
X233940000Y-76516000D02*
X233940000Y-75754000D01*
X229114000Y-81342000D02*
X233940000Y-76516000D01*
X226350000Y-86630000D02*
X229114000Y-83866000D01*
X229114000Y-83866000D02*
X229114000Y-81342000D01*
%TO.N,SEL2*%
X231400000Y-74738000D02*
X233686000Y-72452000D01*
X233686000Y-72452000D02*
X233940000Y-72452000D01*
X231400000Y-76262000D02*
X231400000Y-74738000D01*
X226350000Y-81312000D02*
X231400000Y-76262000D01*
X226350000Y-81550000D02*
X226350000Y-81312000D01*
%TO.N,BUTTON1*%
X229876000Y-74230000D02*
X229876000Y-75484000D01*
X229876000Y-75484000D02*
X226350000Y-79010000D01*
X138400000Y-79600000D02*
X137674000Y-80326000D01*
X220520000Y-86190000D02*
X219780000Y-86930000D01*
X212260000Y-91000000D02*
X202450000Y-91000000D01*
X198610000Y-83096000D02*
X195114000Y-79600000D01*
X82642000Y-82190000D02*
X82312000Y-81860000D01*
X214600000Y-86930000D02*
X212870000Y-88660000D01*
X244100000Y-68388000D02*
X242278000Y-70210000D01*
X93800000Y-81680000D02*
X93290000Y-82190000D01*
X82312000Y-81860000D02*
X67800000Y-81860000D01*
X67800000Y-81860000D02*
X66520000Y-80580000D01*
X220520000Y-80500000D02*
X220520000Y-86190000D01*
X195114000Y-79600000D02*
X138400000Y-79600000D01*
X219780000Y-86930000D02*
X214600000Y-86930000D01*
X212870000Y-90390000D02*
X212260000Y-91000000D01*
X52168000Y-85152000D02*
X51500000Y-85820000D01*
X201300000Y-89850000D02*
X200050000Y-89850000D01*
X242278000Y-70210000D02*
X233896000Y-70210000D01*
X110750000Y-80326000D02*
X109396000Y-81680000D01*
X137674000Y-80326000D02*
X110750000Y-80326000D01*
X200050000Y-89850000D02*
X198610000Y-88410000D01*
X57410000Y-85152000D02*
X52168000Y-85152000D01*
X61982000Y-80580000D02*
X57410000Y-85152000D01*
X202450000Y-91000000D02*
X201300000Y-89850000D01*
X93290000Y-82190000D02*
X82642000Y-82190000D01*
X198610000Y-88410000D02*
X198610000Y-83096000D01*
X212870000Y-88660000D02*
X212870000Y-90390000D01*
X233896000Y-70210000D02*
X229876000Y-74230000D01*
X109396000Y-81680000D02*
X93800000Y-81680000D01*
X51500000Y-85820000D02*
X51500000Y-88140000D01*
X220480000Y-80460000D02*
X220520000Y-80500000D01*
X51500000Y-88140000D02*
X45150000Y-94490000D01*
X66520000Y-80580000D02*
X61982000Y-80580000D01*
%TO.N,Net-(R44-Pad2)*%
X227404000Y-66864000D02*
X240290000Y-66864000D01*
X226350000Y-66310000D02*
X226850000Y-66310000D01*
X241052000Y-63308000D02*
X242068000Y-62292000D01*
X241052000Y-66102000D02*
X241052000Y-63308000D01*
X240290000Y-66864000D02*
X241052000Y-66102000D01*
X226850000Y-66310000D02*
X227404000Y-66864000D01*
X242068000Y-62292000D02*
X242068000Y-56196000D01*
X242068000Y-56196000D02*
X240798000Y-54926000D01*
%TO.N,Net-(J8-PadS1)*%
X241306000Y-118426000D02*
X241410000Y-118530000D01*
X248268000Y-118530000D02*
X248978000Y-119240000D01*
X241410000Y-118530000D02*
X248268000Y-118530000D01*
X248978000Y-119240000D02*
X248978000Y-119816000D01*
%TO.N,Net-(J8-PadT1)*%
X224542000Y-127824000D02*
X220986000Y-127824000D01*
X238004000Y-122744000D02*
X234956000Y-125792000D01*
X198260000Y-96790000D02*
X187460000Y-96790000D01*
X238004000Y-117918000D02*
X238004000Y-122744000D01*
X252478000Y-109816000D02*
X251948000Y-109816000D01*
X207863909Y-97930000D02*
X199400000Y-97930000D01*
X251948000Y-109816000D02*
X248164000Y-113600000D01*
X220986000Y-127824000D02*
X220732000Y-128078000D01*
X226574000Y-125792000D02*
X224542000Y-127824000D01*
X216414000Y-125284000D02*
X216414000Y-100646000D01*
X216414000Y-100646000D02*
X214628000Y-98860000D01*
X220732000Y-128078000D02*
X219208000Y-128078000D01*
X208793909Y-98860000D02*
X207863909Y-97930000D01*
X214628000Y-98860000D02*
X208793909Y-98860000D01*
X199400000Y-97930000D02*
X198260000Y-96790000D01*
X242322000Y-113600000D02*
X238004000Y-117918000D01*
X248164000Y-113600000D02*
X242322000Y-113600000D01*
X185470000Y-94800000D02*
X185470000Y-93650000D01*
X234956000Y-125792000D02*
X226574000Y-125792000D01*
X187460000Y-96790000D02*
X185470000Y-94800000D01*
X219208000Y-128078000D02*
X216414000Y-125284000D01*
%TO.N,Net-(J9-PadT1)*%
X220732000Y-131380000D02*
X222764000Y-131380000D01*
X250170000Y-122516000D02*
X252478000Y-122516000D01*
X214310000Y-99520000D02*
X208176000Y-99520000D01*
X198954000Y-98614000D02*
X197730000Y-97390000D01*
X227590000Y-126554000D02*
X246132000Y-126554000D01*
X208176000Y-99520000D02*
X207270000Y-98614000D01*
X186670000Y-97390000D02*
X182930000Y-93650000D01*
X197730000Y-97390000D02*
X186670000Y-97390000D01*
X207270000Y-98614000D02*
X198954000Y-98614000D01*
X220400000Y-131380000D02*
X215652000Y-126632000D01*
X246132000Y-126554000D02*
X250170000Y-122516000D01*
X220732000Y-131380000D02*
X220400000Y-131380000D01*
X222764000Y-131380000D02*
X227590000Y-126554000D01*
X215652000Y-126632000D02*
X215652000Y-100862000D01*
X215652000Y-100862000D02*
X214310000Y-99520000D01*
%TO.N,Net-(J9-PadS1)*%
X241306000Y-129094000D02*
X241560000Y-128840000D01*
X241560000Y-128840000D02*
X244430000Y-128840000D01*
X248106000Y-132516000D02*
X248978000Y-132516000D01*
X244430000Y-128840000D02*
X248106000Y-132516000D01*
%TO.N,Net-(R25-Pad1)*%
X247656000Y-53824000D02*
X247656000Y-54926000D01*
X254768000Y-47306000D02*
X250972000Y-47306000D01*
X250958000Y-50522000D02*
X247656000Y-53824000D01*
X250972000Y-47306000D02*
X250958000Y-47320000D01*
X250958000Y-47320000D02*
X250958000Y-50522000D01*
%TO.N,BUTTON2*%
X222100000Y-91270000D02*
X220280000Y-93090000D01*
X197110000Y-84090000D02*
X193970000Y-80950000D01*
X233290000Y-69370000D02*
X240832000Y-69370000D01*
X160672000Y-80950000D02*
X160572000Y-81050000D01*
X226350000Y-76470000D02*
X226350000Y-76310000D01*
X197110000Y-89724000D02*
X197110000Y-84090000D01*
X108988299Y-85010000D02*
X107365000Y-86633299D01*
X201570000Y-92360000D02*
X200550000Y-91340000D01*
X139236000Y-81050000D02*
X138436000Y-81850000D01*
X114450000Y-81850000D02*
X111290000Y-85010000D01*
X211530000Y-92360000D02*
X201570000Y-92360000D01*
X193970000Y-80950000D02*
X160672000Y-80950000D01*
X105210000Y-92680000D02*
X102980000Y-92680000D01*
X226350000Y-76310000D02*
X233290000Y-69370000D01*
X220280000Y-93090000D02*
X212260000Y-93090000D01*
X111290000Y-85010000D02*
X108988299Y-85010000D01*
X240832000Y-69370000D02*
X244100000Y-66102000D01*
X102980000Y-92680000D02*
X101110000Y-94550000D01*
X160572000Y-81050000D02*
X139236000Y-81050000D01*
X212260000Y-93090000D02*
X211530000Y-92360000D01*
X200550000Y-91340000D02*
X198726000Y-91340000D01*
X107365000Y-86633299D02*
X107365000Y-90525000D01*
X138436000Y-81850000D02*
X114450000Y-81850000D01*
X198726000Y-91340000D02*
X197110000Y-89724000D01*
X107365000Y-90525000D02*
X105210000Y-92680000D01*
X222100000Y-77180000D02*
X222100000Y-91270000D01*
X222080000Y-77160000D02*
X222100000Y-77180000D01*
X244100000Y-66102000D02*
X244100000Y-65086000D01*
%TO.N,BUTTON3*%
X159750000Y-84900000D02*
X159750000Y-89930000D01*
X223740000Y-75030000D02*
X223740000Y-91970000D01*
X195586000Y-85046000D02*
X192890000Y-82350000D01*
X160250000Y-84400000D02*
X159750000Y-84900000D01*
X158130000Y-91550000D02*
X155300000Y-91550000D01*
X221210000Y-94500000D02*
X211220000Y-94500000D01*
X195586000Y-90486000D02*
X195586000Y-85046000D01*
X210470000Y-93750000D02*
X201140000Y-93750000D01*
X244100000Y-62800000D02*
X244100000Y-61784000D01*
X166136000Y-82350000D02*
X164086000Y-84400000D01*
X242576000Y-64324000D02*
X244100000Y-62800000D01*
X198060000Y-92960000D02*
X195586000Y-90486000D01*
X226970000Y-73930000D02*
X232390000Y-68510000D01*
X242576000Y-66610000D02*
X242576000Y-64324000D01*
X223740000Y-91970000D02*
X221210000Y-94500000D01*
X223770000Y-75000000D02*
X223740000Y-75030000D01*
X240676000Y-68510000D02*
X242576000Y-66610000D01*
X192890000Y-82350000D02*
X166136000Y-82350000D01*
X226350000Y-73930000D02*
X226970000Y-73930000D01*
X159750000Y-89930000D02*
X158130000Y-91550000D01*
X155300000Y-91550000D02*
X153390000Y-93460000D01*
X211220000Y-94500000D02*
X210470000Y-93750000D01*
X164086000Y-84400000D02*
X160250000Y-84400000D01*
X232390000Y-68510000D02*
X240676000Y-68510000D01*
X201140000Y-93750000D02*
X200350000Y-92960000D01*
X200350000Y-92960000D02*
X198060000Y-92960000D01*
%TO.N,BUTTON4*%
X228290000Y-94890000D02*
X232330000Y-94890000D01*
X224542000Y-98638000D02*
X228290000Y-94890000D01*
X228720000Y-68850000D02*
X229920000Y-67650000D01*
X242830000Y-62800000D02*
X242830000Y-60514000D01*
X259970000Y-72390000D02*
X258000000Y-70420000D01*
X232330000Y-94890000D02*
X239640000Y-87580000D01*
X258832000Y-89724000D02*
X259970000Y-88586000D01*
X224542000Y-113092000D02*
X224542000Y-98638000D01*
X250958000Y-89724000D02*
X258832000Y-89724000D01*
X245878000Y-69404000D02*
X245878000Y-60260000D01*
X240520000Y-67650000D02*
X241814000Y-66356000D01*
X248814000Y-87580000D02*
X250958000Y-89724000D01*
X226828000Y-115378000D02*
X224542000Y-113092000D01*
X226350000Y-68850000D02*
X228720000Y-68850000D01*
X259970000Y-88586000D02*
X259970000Y-72390000D01*
X229920000Y-67650000D02*
X240520000Y-67650000D01*
X246894000Y-70420000D02*
X245878000Y-69404000D01*
X239640000Y-87580000D02*
X248814000Y-87580000D01*
X242830000Y-60514000D02*
X244100000Y-59244000D01*
X258000000Y-70420000D02*
X246894000Y-70420000D01*
X241814000Y-63816000D02*
X242830000Y-62800000D01*
X241814000Y-66356000D02*
X241814000Y-63816000D01*
X244100000Y-59244000D02*
X244100000Y-58482000D01*
X245878000Y-60260000D02*
X244100000Y-58482000D01*
%TO.N,Net-(R35-Pad2)*%
X201936000Y-76170000D02*
X201936000Y-82612000D01*
X208494000Y-89170000D02*
X208570000Y-89170000D01*
X201936000Y-82612000D02*
X208494000Y-89170000D01*
X201528000Y-75762000D02*
X201936000Y-76170000D01*
%TO.N,Net-(C16-Pad2)*%
X143950000Y-71950000D02*
X143950000Y-77055112D01*
X143950000Y-77055112D02*
X144044888Y-77150000D01*
%TO.N,Net-(R28-Pad1)*%
X193808000Y-66102000D02*
X191390000Y-66102000D01*
X191390000Y-66102000D02*
X191208000Y-66284000D01*
X188038000Y-69454000D02*
X191208000Y-66284000D01*
X183608000Y-69454000D02*
X188038000Y-69454000D01*
%TO.N,Net-(R30-Pad1)*%
X183628000Y-72584000D02*
X186672000Y-72584000D01*
X189802000Y-69454000D02*
X191228000Y-69454000D01*
X191370000Y-69312000D02*
X191228000Y-69454000D01*
X193838000Y-69312000D02*
X191370000Y-69312000D01*
X186672000Y-72584000D02*
X189802000Y-69454000D01*
%TO.N,Net-(R31-Pad2)*%
X203714000Y-79310000D02*
X205954000Y-81550000D01*
X201458000Y-69312000D02*
X201844000Y-69312000D01*
X202952000Y-72452000D02*
X203714000Y-73214000D01*
X203714000Y-73214000D02*
X203714000Y-79310000D01*
X201844000Y-69312000D02*
X202952000Y-70420000D01*
X202952000Y-70420000D02*
X202952000Y-72452000D01*
X205954000Y-81550000D02*
X208570000Y-81550000D01*
%TO.N,Net-(R32-Pad1)*%
X191248000Y-72584000D02*
X189466000Y-72584000D01*
X191270000Y-72562000D02*
X191248000Y-72584000D01*
X186296000Y-75754000D02*
X183648000Y-75754000D01*
X193878000Y-72562000D02*
X191270000Y-72562000D01*
X189466000Y-72584000D02*
X186296000Y-75754000D01*
%TO.N,Net-(R33-Pad2)*%
X201498000Y-72562000D02*
X202952000Y-74016000D01*
X202952000Y-74016000D02*
X202952000Y-81012000D01*
X202952000Y-81012000D02*
X208570000Y-86630000D01*
%TO.N,Net-(C36-Pad2)*%
X98510000Y-79150000D02*
X99590000Y-80230000D01*
X98510000Y-77150000D02*
X98510000Y-79150000D01*
X110242000Y-78802000D02*
X128698000Y-78802000D01*
X94240000Y-72880000D02*
X98510000Y-77150000D01*
X129700000Y-77800000D02*
X129700000Y-76105000D01*
X128698000Y-78802000D02*
X129700000Y-77800000D01*
X99590000Y-80230000D02*
X108814000Y-80230000D01*
X95764000Y-71356000D02*
X94240000Y-72880000D01*
X95764000Y-65848000D02*
X95764000Y-71356000D01*
X93478000Y-64578000D02*
X93224000Y-64832000D01*
X93224000Y-64832000D02*
X94748000Y-64832000D01*
X93478000Y-61530000D02*
X93478000Y-64578000D01*
X108814000Y-80230000D02*
X110242000Y-78802000D01*
X94748000Y-64832000D02*
X95764000Y-65848000D01*
X129700000Y-76105000D02*
X131105000Y-74700000D01*
%TO.N,Net-(C37-Pad1)*%
X73158000Y-67626000D02*
X73158000Y-66356000D01*
X85604000Y-64070000D02*
X84994000Y-63460000D01*
X78024000Y-64832000D02*
X74682000Y-64832000D01*
X69856000Y-70928000D02*
X73158000Y-67626000D01*
X78024000Y-67138000D02*
X79010000Y-68124000D01*
X78168000Y-64832000D02*
X78024000Y-64832000D01*
X79540000Y-63460000D02*
X78168000Y-64832000D01*
X85604000Y-64832000D02*
X85604000Y-64070000D01*
X84994000Y-63460000D02*
X79540000Y-63460000D01*
X74682000Y-64832000D02*
X73158000Y-66356000D01*
X78024000Y-64832000D02*
X78024000Y-67138000D01*
%TO.N,Net-(C37-Pad2)*%
X83024000Y-66650000D02*
X81550000Y-68124000D01*
X87128000Y-66102000D02*
X87128000Y-62800000D01*
X83318000Y-66356000D02*
X86874000Y-66356000D01*
X87128000Y-62800000D02*
X85858000Y-61530000D01*
X83024000Y-64832000D02*
X83024000Y-66650000D01*
X86874000Y-66356000D02*
X87128000Y-66102000D01*
X83024000Y-66650000D02*
X83318000Y-66356000D01*
%TO.N,Net-(C38-Pad2)*%
X76206000Y-62038000D02*
X75952000Y-62292000D01*
X70658000Y-65447000D02*
X70658000Y-66356000D01*
X72650000Y-63455000D02*
X70658000Y-65447000D01*
X72904000Y-62292000D02*
X72650000Y-62038000D01*
X75952000Y-62292000D02*
X72904000Y-62292000D01*
X72650000Y-62038000D02*
X72650000Y-63455000D01*
%TO.N,Net-(J1-Pad2)*%
X38000000Y-53000000D02*
X37344000Y-53656000D01*
X38000000Y-50000000D02*
X38000000Y-53000000D01*
X35342000Y-47342000D02*
X38000000Y-50000000D01*
X35342000Y-44510000D02*
X35342000Y-47342000D01*
X29872000Y-54672000D02*
X29710000Y-54510000D01*
X37344000Y-54672000D02*
X29872000Y-54672000D01*
X37344000Y-53656000D02*
X37344000Y-54672000D01*
%TO.N,Net-(Brd1-Pad2)*%
X151950000Y-51500000D02*
X152500000Y-50950000D01*
X193680000Y-45450000D02*
X192996000Y-44766000D01*
X192996000Y-44766000D02*
X181414000Y-44766000D01*
X175610000Y-50570000D02*
X173630000Y-50570000D01*
X156970000Y-48630000D02*
X159290000Y-50950000D01*
X166345000Y-53500000D02*
X166220000Y-53500000D01*
X164070000Y-50950000D02*
X166220000Y-53100000D01*
X159290000Y-50950000D02*
X164070000Y-50950000D01*
X172410000Y-51790000D02*
X168055000Y-51790000D01*
X168055000Y-51790000D02*
X166345000Y-53500000D01*
X152500000Y-50950000D02*
X159290000Y-50950000D01*
X156970000Y-47375113D02*
X156970000Y-48630000D01*
X181414000Y-44766000D02*
X175610000Y-50570000D01*
X166220000Y-53100000D02*
X166220000Y-53500000D01*
X173630000Y-50570000D02*
X172410000Y-51790000D01*
%TO.N,Net-(C35-Pad1)*%
X53388000Y-78548000D02*
X47940000Y-73100000D01*
X36410000Y-70280000D02*
X41014000Y-70280000D01*
X68332000Y-73722000D02*
X68332000Y-76262000D01*
X64522000Y-63816000D02*
X64522000Y-69912000D01*
X68840000Y-62114000D02*
X65614000Y-62114000D01*
X41014000Y-70280000D02*
X44456000Y-73722000D01*
X65538000Y-62038000D02*
X65538000Y-62800000D01*
X65538000Y-62800000D02*
X64522000Y-63816000D01*
X47940000Y-73100000D02*
X45078000Y-73100000D01*
X65614000Y-62114000D02*
X65538000Y-62038000D01*
X68332000Y-76262000D02*
X66046000Y-78548000D01*
X64522000Y-69912000D02*
X68332000Y-73722000D01*
X45078000Y-73100000D02*
X44456000Y-73722000D01*
X66046000Y-78548000D02*
X53388000Y-78548000D01*
%TO.N,Net-(C31-Pad2)*%
X250958000Y-54940000D02*
X253552000Y-54940000D01*
X247497000Y-44410000D02*
X245624000Y-46283000D01*
X249194000Y-56704000D02*
X245894000Y-56704000D01*
X245624000Y-46283000D02*
X245624000Y-53386000D01*
X253552000Y-54940000D02*
X253792000Y-55180000D01*
X254768000Y-54204000D02*
X253792000Y-55180000D01*
X245894000Y-56704000D02*
X244100000Y-54910000D01*
X254768000Y-52386000D02*
X254768000Y-54204000D01*
X245624000Y-53386000D02*
X244100000Y-54910000D01*
X250958000Y-54940000D02*
X249194000Y-56704000D01*
X248280000Y-44410000D02*
X247497000Y-44410000D01*
%TO.N,Net-(C7-Pad1)*%
X62998000Y-42734000D02*
X58680000Y-47052000D01*
X58680000Y-47052000D02*
X58680000Y-50862000D01*
X64522000Y-42734000D02*
X62998000Y-42734000D01*
%TO.N,Net-(R49-Pad1)*%
X183630000Y-55950000D02*
X184260000Y-56580000D01*
X191300000Y-52250000D02*
X191300000Y-51950000D01*
X184260000Y-56580000D02*
X186970000Y-56580000D01*
X191372000Y-51878000D02*
X193554000Y-51878000D01*
X186970000Y-56580000D02*
X191300000Y-52250000D01*
X191300000Y-51950000D02*
X191372000Y-51878000D01*
%TO.N,Net-(R50-Pad1)*%
X187250000Y-58750000D02*
X190050000Y-55950000D01*
X192020000Y-55180000D02*
X191250000Y-55950000D01*
X190050000Y-55950000D02*
X191250000Y-55950000D01*
X193554000Y-55180000D02*
X192020000Y-55180000D01*
X183680000Y-59200000D02*
X184130000Y-58750000D01*
X184130000Y-58750000D02*
X187250000Y-58750000D01*
%TO.N,Net-(R51-Pad1)*%
X193136000Y-58900000D02*
X191600000Y-58900000D01*
X183680000Y-62400000D02*
X184296000Y-61784000D01*
X191600000Y-58900000D02*
X191300000Y-59200000D01*
X193554000Y-58482000D02*
X193136000Y-58900000D01*
X191150000Y-59350000D02*
X191300000Y-59200000D01*
X184296000Y-61784000D02*
X186716000Y-61784000D01*
X186716000Y-61784000D02*
X189150000Y-59350000D01*
X189150000Y-59350000D02*
X191150000Y-59350000D01*
%TO.N,Net-(C39-Pad1)*%
X114920000Y-41730000D02*
X104920000Y-41730000D01*
X97542000Y-52894000D02*
X97542000Y-49108000D01*
X97542000Y-49108000D02*
X104920000Y-41730000D01*
%TO.N,Net-(C46-Pad2)*%
X47940000Y-68020000D02*
X49970000Y-65990000D01*
X53420000Y-40500000D02*
X53420000Y-43500000D01*
X50920000Y-40500000D02*
X53420000Y-40500000D01*
X47120000Y-68020000D02*
X44590000Y-65490000D01*
X47940000Y-68020000D02*
X47120000Y-68020000D01*
X49300000Y-52876000D02*
X49300000Y-49520000D01*
X48420000Y-43500000D02*
X48420000Y-48140000D01*
X48170000Y-48390000D02*
X52652000Y-48390000D01*
X48420000Y-48140000D02*
X48170000Y-48390000D01*
X49300000Y-49520000D02*
X48170000Y-48390000D01*
X49970000Y-60660000D02*
X47758000Y-58448000D01*
X44590000Y-65490000D02*
X44290000Y-65490000D01*
X49970000Y-65990000D02*
X49970000Y-60660000D01*
X47758000Y-54418000D02*
X49300000Y-52876000D01*
X48420000Y-43000000D02*
X48420000Y-43500000D01*
X52652000Y-48390000D02*
X55378000Y-51116000D01*
X50920000Y-40500000D02*
X48420000Y-43000000D01*
X47758000Y-58448000D02*
X47758000Y-54418000D01*
X53420000Y-43500000D02*
X48420000Y-43500000D01*
%TO.N,Net-(D3-Pad2)*%
X101606000Y-62394000D02*
X102470000Y-61530000D01*
X104920000Y-58494000D02*
X107448000Y-61022000D01*
X99838000Y-67367000D02*
X100595000Y-67367000D01*
X104920000Y-54130000D02*
X104920000Y-58494000D01*
X107448000Y-61022000D02*
X107448000Y-61530000D01*
X101606000Y-66356000D02*
X101606000Y-62394000D01*
X100595000Y-67367000D02*
X101606000Y-66356000D01*
X102470000Y-61530000D02*
X107448000Y-61530000D01*
%TO.N,Net-(R23-Pad1)*%
X231500000Y-47920000D02*
X231580000Y-48000000D01*
X226350000Y-48530000D02*
X226960000Y-47920000D01*
X226960000Y-47920000D02*
X231500000Y-47920000D01*
%TO.N,TX0*%
X147960000Y-47940000D02*
X146800000Y-47940000D01*
X208570000Y-40910000D02*
X206330000Y-38670000D01*
X177680000Y-40490000D02*
X155410000Y-40490000D01*
X206330000Y-38670000D02*
X179500000Y-38670000D01*
X155410000Y-40490000D02*
X147960000Y-47940000D01*
X179500000Y-38670000D02*
X177680000Y-40490000D01*
%TO.N,RX0*%
X120656000Y-67372000D02*
X118878000Y-65594000D01*
X145670000Y-50180000D02*
X148070000Y-50180000D01*
X123080000Y-63680000D02*
X126300000Y-63680000D01*
X129060000Y-60920000D02*
X129060000Y-57430000D01*
X133610000Y-47540000D02*
X143030000Y-47540000D01*
X118878000Y-61276000D02*
X118730000Y-61276000D01*
X148790000Y-48310000D02*
X155880000Y-41220000D01*
X148790000Y-49460000D02*
X148790000Y-48310000D01*
X203886000Y-39350000D02*
X207986000Y-43450000D01*
X207986000Y-43450000D02*
X208570000Y-43450000D01*
X148070000Y-50180000D02*
X148790000Y-49460000D01*
X129060000Y-57430000D02*
X131060000Y-55430000D01*
X155880000Y-41220000D02*
X178040000Y-41220000D01*
X131060000Y-50090000D02*
X133610000Y-47540000D01*
X118878000Y-62892000D02*
X122292000Y-62892000D01*
X118878000Y-62892000D02*
X118878000Y-61276000D01*
X121672000Y-67372000D02*
X120656000Y-67372000D01*
X178040000Y-41220000D02*
X179910000Y-39350000D01*
X118878000Y-65594000D02*
X118878000Y-62892000D01*
X143030000Y-47540000D02*
X145670000Y-50180000D01*
X131060000Y-55430000D02*
X131060000Y-50090000D01*
X122292000Y-62892000D02*
X123080000Y-63680000D01*
X126300000Y-63680000D02*
X129060000Y-60920000D01*
X118730000Y-61276000D02*
X116952000Y-59498000D01*
X179910000Y-39350000D02*
X203886000Y-39350000D01*
%TO.N,Net-(R23-Pad2)*%
X228510000Y-43450000D02*
X226350000Y-43450000D01*
X231580000Y-40380000D02*
X228510000Y-43450000D01*
%TO.N,Net-(C40-Pad1)*%
X121164000Y-56256000D02*
X122260000Y-55160000D01*
X121164000Y-59498000D02*
X121164000Y-56256000D01*
X138530000Y-41790000D02*
X128530000Y-41790000D01*
X122260000Y-55160000D02*
X122260000Y-48060000D01*
X122260000Y-48060000D02*
X128530000Y-41790000D01*
%TO.N,Net-(D3-Pad1)*%
X99828000Y-58482000D02*
X99828000Y-61530000D01*
X99828000Y-61530000D02*
X99828000Y-64817000D01*
X99828000Y-64817000D02*
X99838000Y-64827000D01*
%TO.N,Net-(R53-Pad2)*%
X203400000Y-56628183D02*
X203400000Y-58700000D01*
X203400000Y-58700000D02*
X204050000Y-59350000D01*
X204930000Y-61230000D02*
X208570000Y-61230000D01*
X204050000Y-60350000D02*
X204930000Y-61230000D01*
X204050000Y-59350000D02*
X204050000Y-60350000D01*
X201174000Y-51878000D02*
X202800000Y-53504000D01*
X202800000Y-56028183D02*
X203400000Y-56628183D01*
X202800000Y-53504000D02*
X202800000Y-56028183D01*
%TO.N,Net-(J10-Pad4)*%
X111038000Y-54130000D02*
X107448000Y-57720000D01*
X107448000Y-57720000D02*
X107448000Y-58482000D01*
X114920000Y-54130000D02*
X111038000Y-54130000D01*
%TO.N,Net-(J11-Pad4)*%
X131832000Y-55942000D02*
X130054000Y-57720000D01*
X130054000Y-63562000D02*
X131832000Y-65340000D01*
X130054000Y-57720000D02*
X130054000Y-63562000D01*
X136778000Y-55942000D02*
X131832000Y-55942000D01*
X138530000Y-54190000D02*
X136778000Y-55942000D01*
%TO.N,Net-(J11-Pad5)*%
X124212000Y-58736000D02*
X128530000Y-54418000D01*
X128530000Y-54418000D02*
X128530000Y-54190000D01*
%TO.N,Net-(Q4-Pad2)*%
X143860000Y-55810000D02*
X146550000Y-55810000D01*
X140214000Y-60514000D02*
X142570000Y-58158000D01*
X146550000Y-55810000D02*
X146800000Y-55560000D01*
X142570000Y-58158000D02*
X142570000Y-57100000D01*
X142570000Y-57100000D02*
X143860000Y-55810000D01*
%TO.N,Net-(Q4-Pad3)*%
X144790000Y-65950000D02*
X144688000Y-65848000D01*
X141992000Y-64832000D02*
X141992000Y-65848000D01*
X144688000Y-65848000D02*
X141992000Y-65848000D01*
X140214000Y-63054000D02*
X141992000Y-64832000D01*
%TO.N,Net-(Q5-Pad2)*%
X136814000Y-60514000D02*
X138110000Y-61810000D01*
X144790000Y-58380000D02*
X144790000Y-58330000D01*
X138110000Y-61810000D02*
X141360000Y-61810000D01*
X135134000Y-60514000D02*
X136814000Y-60514000D01*
X141360000Y-61810000D02*
X144790000Y-58380000D01*
%TO.N,Net-(Q5-Pad3)*%
X135134000Y-63054000D02*
X132848000Y-63054000D01*
X131832000Y-62038000D02*
X131832000Y-58736000D01*
X132848000Y-63054000D02*
X131832000Y-62038000D01*
%TO.N,Net-(Q6-Pad2)*%
X124372000Y-69404000D02*
X124466000Y-69310000D01*
X115068000Y-62800000D02*
X115068000Y-65340000D01*
X115174000Y-60260000D02*
X116952000Y-62038000D01*
X115068000Y-65340000D02*
X119132000Y-69404000D01*
X111040000Y-59380000D02*
X111920000Y-60260000D01*
X115830000Y-62038000D02*
X115068000Y-62800000D01*
X111920000Y-60260000D02*
X115174000Y-60260000D01*
X116952000Y-62038000D02*
X115830000Y-62038000D01*
X119132000Y-69404000D02*
X124372000Y-69404000D01*
%TO.N,Net-(R67-Pad2)*%
X107971000Y-67880000D02*
X107458000Y-67367000D01*
X111040000Y-67000000D02*
X110160000Y-67880000D01*
X110160000Y-67880000D02*
X107971000Y-67880000D01*
%TO.N,ADC0*%
X160181000Y-80425000D02*
X160306000Y-80300000D01*
X197830000Y-83680000D02*
X197830000Y-89174000D01*
X236480000Y-65594000D02*
X238746000Y-65594000D01*
X227930000Y-62190000D02*
X226350000Y-63770000D01*
X231146000Y-62038000D02*
X232924000Y-62038000D01*
X232924000Y-62038000D02*
X236480000Y-65594000D01*
X93710000Y-83100000D02*
X94380000Y-82430000D01*
X94380000Y-82430000D02*
X109662000Y-82430000D01*
X221305000Y-66725000D02*
X222670000Y-65360000D01*
X212740000Y-92400000D02*
X219920000Y-92400000D01*
X199316000Y-90660000D02*
X201070000Y-90660000D01*
X79610000Y-88350000D02*
X79610000Y-86180000D01*
X212100000Y-91760000D02*
X212740000Y-92400000D01*
X230994000Y-62190000D02*
X227930000Y-62190000D01*
X109662000Y-82430000D02*
X111004000Y-81088000D01*
X111004000Y-81088000D02*
X137928000Y-81088000D01*
X221410000Y-77586016D02*
X221305000Y-77481016D01*
X219920000Y-92400000D02*
X221410000Y-90910000D01*
X202170000Y-91760000D02*
X212100000Y-91760000D01*
X138591000Y-80425000D02*
X160181000Y-80425000D01*
X221305000Y-77481016D02*
X221305000Y-66725000D01*
X137928000Y-81088000D02*
X138591000Y-80425000D01*
X79610000Y-86180000D02*
X82690000Y-83100000D01*
X221410000Y-90910000D02*
X221410000Y-77586016D01*
X197830000Y-89174000D02*
X199316000Y-90660000D01*
X160306000Y-80300000D02*
X194450000Y-80300000D01*
X231146000Y-62038000D02*
X230994000Y-62190000D01*
X194450000Y-80300000D02*
X197830000Y-83680000D01*
X238746000Y-65594000D02*
X238940000Y-65400000D01*
X73270000Y-94690000D02*
X79610000Y-88350000D01*
X82690000Y-83100000D02*
X93710000Y-83100000D01*
X201070000Y-90660000D02*
X202170000Y-91760000D01*
%TO.N,ADC2*%
X194824000Y-90994000D02*
X197470000Y-93640000D01*
X200010000Y-93640000D02*
X200950000Y-94580000D01*
X209855818Y-94580000D02*
X210605818Y-95330000D01*
X193668000Y-84250000D02*
X194824000Y-85406000D01*
X186740000Y-85108000D02*
X187598000Y-84250000D01*
X210605818Y-95330000D02*
X221476000Y-95330000D01*
X194824000Y-85406000D02*
X194824000Y-90994000D01*
X186740000Y-87300000D02*
X186740000Y-85108000D01*
X224580000Y-57920000D02*
X226350000Y-56150000D01*
X226500000Y-56000000D02*
X226350000Y-56150000D01*
X200950000Y-94580000D02*
X209855818Y-94580000D01*
X224580000Y-92226000D02*
X224580000Y-57920000D01*
X231146000Y-55610000D02*
X230756000Y-56000000D01*
X187598000Y-84250000D02*
X193668000Y-84250000D01*
X180390000Y-93650000D02*
X186740000Y-87300000D01*
X197470000Y-93640000D02*
X200010000Y-93640000D01*
X230756000Y-56000000D02*
X226500000Y-56000000D01*
X221476000Y-95330000D02*
X224580000Y-92226000D01*
%TO.N,ADC1*%
X212010000Y-93820000D02*
X211210000Y-93020000D01*
X226350000Y-61230000D02*
X228740000Y-58840000D01*
X211210000Y-93020000D02*
X201310000Y-93020000D01*
X231042000Y-58840000D02*
X231146000Y-58736000D01*
X196348000Y-89978000D02*
X196348000Y-84628000D01*
X201310000Y-93020000D02*
X200470000Y-92180000D01*
X132230000Y-85516000D02*
X132230000Y-90220000D01*
X220820000Y-93820000D02*
X212010000Y-93820000D01*
X228740000Y-58840000D02*
X231042000Y-58840000D01*
X193380000Y-81660000D02*
X139896000Y-81660000D01*
X129820000Y-92630000D02*
X127780000Y-92630000D01*
X222870000Y-74660000D02*
X222870000Y-91770000D01*
X223610000Y-62270000D02*
X223610000Y-73920000D01*
X222870000Y-91770000D02*
X220820000Y-93820000D01*
X137420000Y-84136000D02*
X133610000Y-84136000D01*
X200470000Y-92180000D02*
X198550000Y-92180000D01*
X133610000Y-84136000D02*
X132230000Y-85516000D01*
X223650000Y-62230000D02*
X223610000Y-62270000D01*
X196348000Y-84628000D02*
X193380000Y-81660000D01*
X198550000Y-92180000D02*
X196348000Y-89978000D01*
X132230000Y-90220000D02*
X129820000Y-92630000D01*
X223610000Y-73920000D02*
X222870000Y-74660000D01*
X127780000Y-92630000D02*
X125860000Y-94550000D01*
X139896000Y-81660000D02*
X137420000Y-84136000D01*
%TO.N,CTRLA*%
X80890000Y-87160000D02*
X82200000Y-88470000D01*
X52770000Y-86870000D02*
X54320000Y-88420000D01*
X183875000Y-84450000D02*
X169270000Y-84450000D01*
X88890000Y-87900000D02*
X93000000Y-87900000D01*
X88320000Y-88470000D02*
X88890000Y-87900000D01*
X117460000Y-86890000D02*
X119290000Y-85060000D01*
X114900000Y-88740000D02*
X116750000Y-86890000D01*
X161440000Y-85840000D02*
X161010000Y-85840000D01*
X199720000Y-97200000D02*
X198660000Y-96140000D01*
X135880000Y-89330000D02*
X133480000Y-86930000D01*
X142310000Y-83940000D02*
X141030000Y-85220000D01*
X188180000Y-96140000D02*
X186780000Y-94740000D01*
X186780000Y-94740000D02*
X186780000Y-91926000D01*
X250450000Y-81088000D02*
X251212000Y-80326000D01*
X217176000Y-100392000D02*
X214934000Y-98150000D01*
X167950000Y-85770000D02*
X167950000Y-86300000D01*
X74917000Y-84390000D02*
X75827000Y-85300000D01*
X141030000Y-85220000D02*
X141030000Y-88140000D01*
X119290000Y-85060000D02*
X130690000Y-85060000D01*
X218954000Y-107758000D02*
X217176000Y-105980000D01*
X141030000Y-88140000D02*
X139840000Y-89330000D01*
X58770000Y-88420000D02*
X59210000Y-87980000D01*
X75827000Y-85300000D02*
X76570000Y-85300000D01*
X66808000Y-84390000D02*
X74917000Y-84390000D01*
X130690000Y-85060000D02*
X130780000Y-85150000D01*
X217176000Y-105980000D02*
X217176000Y-100392000D01*
X95950000Y-84950000D02*
X105560000Y-84950000D01*
X54320000Y-88420000D02*
X58770000Y-88420000D01*
X116750000Y-86890000D02*
X117460000Y-86890000D01*
X232642000Y-81088000D02*
X230560000Y-83170000D01*
X186780000Y-91926000D02*
X187966000Y-90740000D01*
X245878000Y-81088000D02*
X250450000Y-81088000D01*
X80890000Y-87070000D02*
X80890000Y-87160000D01*
X65284000Y-82866000D02*
X66808000Y-84390000D01*
X220732000Y-97518000D02*
X220732000Y-106234000D01*
X59210000Y-87670000D02*
X64014000Y-82866000D01*
X166950000Y-87300000D02*
X162900000Y-87300000D01*
X245878000Y-81088000D02*
X232642000Y-81088000D01*
X59210000Y-87980000D02*
X59210000Y-87670000D01*
X208142000Y-97200000D02*
X199720000Y-97200000D01*
X230560000Y-87690000D02*
X220732000Y-97518000D01*
X108730000Y-86930000D02*
X110540000Y-88740000D01*
X245624000Y-80834000D02*
X245878000Y-81088000D01*
X214934000Y-98150000D02*
X209092000Y-98150000D01*
X220732000Y-106234000D02*
X219208000Y-107758000D01*
X139840000Y-89330000D02*
X135880000Y-89330000D01*
X245624000Y-78040000D02*
X245624000Y-80834000D01*
X187966000Y-90740000D02*
X187966000Y-86074000D01*
X162900000Y-87300000D02*
X161440000Y-85840000D01*
X64014000Y-82866000D02*
X65284000Y-82866000D01*
X93000000Y-87900000D02*
X95950000Y-84950000D01*
X184225000Y-84800000D02*
X183875000Y-84450000D01*
X169270000Y-84450000D02*
X167950000Y-85770000D01*
X110540000Y-88740000D02*
X114900000Y-88740000D01*
X157610000Y-83940000D02*
X142310000Y-83940000D01*
X209092000Y-98150000D02*
X208142000Y-97200000D01*
X82200000Y-88470000D02*
X88320000Y-88470000D01*
X167950000Y-86300000D02*
X166950000Y-87300000D01*
X219208000Y-107758000D02*
X218954000Y-107758000D01*
X230560000Y-83170000D02*
X230560000Y-87690000D01*
X198660000Y-96140000D02*
X188180000Y-96140000D01*
X187966000Y-86074000D02*
X188010000Y-86030000D01*
%TO.N,CTRLB*%
X222002000Y-104456000D02*
X221494000Y-103948000D01*
X208448000Y-96490000D02*
X199950000Y-96490000D01*
X92335000Y-87245000D02*
X88085000Y-87245000D01*
X209358000Y-97400000D02*
X208448000Y-96490000D01*
X254006000Y-80326000D02*
X254514000Y-80326000D01*
X117790000Y-85560000D02*
X119370000Y-83980000D01*
X76118000Y-83628000D02*
X76670000Y-84180000D01*
X219208000Y-105218000D02*
X217938000Y-103948000D01*
X168150000Y-83775000D02*
X167650000Y-84275000D01*
X217938000Y-103948000D02*
X217938000Y-99884000D01*
X215454000Y-97400000D02*
X209358000Y-97400000D01*
X117090000Y-85560000D02*
X117790000Y-85560000D01*
X252990000Y-81850000D02*
X254514000Y-80326000D01*
X65792000Y-82104000D02*
X67316000Y-83628000D01*
X186125000Y-83775000D02*
X168150000Y-83775000D01*
X199000000Y-95540000D02*
X190350000Y-95540000D01*
X160790000Y-83100000D02*
X141830000Y-83100000D01*
X107448000Y-84136000D02*
X95444000Y-84136000D01*
X231320000Y-83830000D02*
X233300000Y-81850000D01*
X189270000Y-94460000D02*
X189270000Y-87310000D01*
X141830000Y-83100000D02*
X140490000Y-84440000D01*
X250704000Y-78040000D02*
X251720000Y-78040000D01*
X95444000Y-84136000D02*
X92335000Y-87245000D01*
X217938000Y-99884000D02*
X215454000Y-97400000D01*
X130680000Y-83980000D02*
X130710000Y-83950000D01*
X221494000Y-98156000D02*
X231320000Y-88330000D01*
X221494000Y-103948000D02*
X221494000Y-98156000D01*
X189270000Y-87310000D02*
X190550000Y-86030000D01*
X186137500Y-83787500D02*
X186125000Y-83775000D01*
X60220000Y-85136000D02*
X63252000Y-82104000D01*
X251720000Y-78040000D02*
X254006000Y-80326000D01*
X233300000Y-81850000D02*
X252990000Y-81850000D01*
X190350000Y-95540000D02*
X189270000Y-94460000D01*
X67316000Y-83628000D02*
X76118000Y-83628000D01*
X63252000Y-82104000D02*
X65792000Y-82104000D01*
X231320000Y-88330000D02*
X231320000Y-83830000D01*
X199950000Y-96490000D02*
X199000000Y-95540000D01*
X119370000Y-83980000D02*
X130680000Y-83980000D01*
X161195000Y-83505000D02*
X160790000Y-83100000D01*
%TO.N,CTRLC*%
X190640000Y-83475500D02*
X190164500Y-83000000D01*
X67570000Y-82866000D02*
X76486000Y-82866000D01*
X209681909Y-96700000D02*
X208791909Y-95810000D01*
X66046000Y-81342000D02*
X67570000Y-82866000D01*
X218700000Y-102170000D02*
X218700000Y-99630000D01*
X200220000Y-95810000D02*
X199320000Y-94910000D01*
X166090000Y-83490000D02*
X166090000Y-85840000D01*
X62490000Y-81342000D02*
X66046000Y-81342000D01*
X166580000Y-83000000D02*
X166090000Y-83490000D01*
X191725000Y-94405000D02*
X191725000Y-87395000D01*
X255784000Y-78294000D02*
X257816000Y-80326000D01*
X113810000Y-83690000D02*
X113810000Y-86930000D01*
X130800000Y-82660000D02*
X130752000Y-82612000D01*
X257816000Y-81088000D02*
X257816000Y-80326000D01*
X190164500Y-83000000D02*
X166580000Y-83000000D01*
X215770000Y-96700000D02*
X209681909Y-96700000D01*
X222764000Y-102678000D02*
X222764000Y-98036000D01*
X130752000Y-82612000D02*
X114888000Y-82612000D01*
X138560000Y-84310000D02*
X138560000Y-86930000D01*
X232020000Y-88780000D02*
X232020000Y-84660000D01*
X208791909Y-95810000D02*
X200220000Y-95810000D01*
X76486000Y-82866000D02*
X76530000Y-82910000D01*
X256292000Y-82612000D02*
X257816000Y-81088000D01*
X219208000Y-102678000D02*
X218700000Y-102170000D01*
X106463500Y-83374000D02*
X94576000Y-83374000D01*
X76530000Y-82910000D02*
X76510000Y-82890000D01*
X114888000Y-82612000D02*
X113810000Y-83690000D01*
X222764000Y-98036000D02*
X232020000Y-88780000D01*
X106476000Y-83361500D02*
X106463500Y-83374000D01*
X92090000Y-85860000D02*
X87180000Y-85860000D01*
X199320000Y-94910000D02*
X192230000Y-94910000D01*
X140470000Y-82400000D02*
X138560000Y-84310000D01*
X218700000Y-99630000D02*
X215770000Y-96700000D01*
X57850000Y-85982000D02*
X62490000Y-81342000D01*
X232020000Y-84660000D02*
X234068000Y-82612000D01*
X234068000Y-82612000D02*
X256292000Y-82612000D01*
X94576000Y-83374000D02*
X92090000Y-85860000D01*
X191725000Y-87395000D02*
X193090000Y-86030000D01*
X162250000Y-82400000D02*
X140470000Y-82400000D01*
X222510000Y-102932000D02*
X222764000Y-102678000D01*
X163475000Y-83625000D02*
X162250000Y-82400000D01*
X87180000Y-85860000D02*
X85970000Y-87070000D01*
X255784000Y-78040000D02*
X255784000Y-78294000D01*
X192230000Y-94910000D02*
X191725000Y-94405000D01*
X57850000Y-86870000D02*
X57850000Y-85982000D01*
%TO.N,Net-(R55-Pad2)*%
X201174000Y-58482000D02*
X202650000Y-59958000D01*
X204900000Y-65700000D02*
X205510000Y-66310000D01*
X204900000Y-63850000D02*
X204900000Y-65700000D01*
X205510000Y-66310000D02*
X208570000Y-66310000D01*
X202650000Y-59958000D02*
X202650000Y-61600000D01*
X202650000Y-61600000D02*
X204900000Y-63850000D01*
%TO.N,FROMDAC2*%
X190906000Y-62400000D02*
X191300000Y-62400000D01*
X147700000Y-70400000D02*
X151325000Y-70400000D01*
X191916000Y-61784000D02*
X191300000Y-62400000D01*
X188982000Y-64324000D02*
X190906000Y-62400000D01*
X193554000Y-61784000D02*
X191916000Y-61784000D01*
X157401000Y-64324000D02*
X188982000Y-64324000D01*
X146450000Y-71650000D02*
X147700000Y-70400000D01*
X146450000Y-71950000D02*
X146450000Y-71650000D01*
X151325000Y-70400000D02*
X157401000Y-64324000D01*
%TO.N,Net-(RV3-Pad2)*%
X44500000Y-100000000D02*
X44500000Y-99590000D01*
X68590000Y-90450000D02*
X70730000Y-88310000D01*
X70730000Y-88310000D02*
X70730000Y-87070000D01*
X60990000Y-96270000D02*
X60990000Y-96230000D01*
X52870000Y-96270000D02*
X60990000Y-96270000D01*
X46330000Y-97760000D02*
X51380000Y-97760000D01*
X44500000Y-99590000D02*
X46330000Y-97760000D01*
X60990000Y-96230000D02*
X66770000Y-90450000D01*
X66770000Y-90450000D02*
X68590000Y-90450000D01*
X51380000Y-97760000D02*
X52870000Y-96270000D01*
%TO.N,Net-(RV4-Pad2)*%
X51500000Y-117000000D02*
X52070000Y-116430000D01*
X78210000Y-87070000D02*
X78350000Y-87070000D01*
X55560000Y-97750000D02*
X62430000Y-97750000D01*
X72730000Y-92550000D02*
X78210000Y-87070000D01*
X67630000Y-92550000D02*
X72730000Y-92550000D01*
X52070000Y-101240000D02*
X55560000Y-97750000D01*
X62430000Y-97750000D02*
X67630000Y-92550000D01*
X52070000Y-116430000D02*
X52070000Y-101240000D01*
%TO.N,Net-(RV5-Pad2)*%
X60530000Y-98420000D02*
X66540000Y-98420000D01*
X66540000Y-98420000D02*
X68190000Y-96770000D01*
X68190000Y-96770000D02*
X68190000Y-94690000D01*
X59000000Y-99950000D02*
X60530000Y-98420000D01*
%TO.N,Net-(RV6-Pad2)*%
X70760000Y-94720000D02*
X70760000Y-96440000D01*
X66808000Y-115642000D02*
X65500000Y-116950000D01*
X70730000Y-94690000D02*
X70760000Y-94720000D01*
X66808000Y-100392000D02*
X66808000Y-115642000D01*
X70760000Y-96440000D02*
X66808000Y-100392000D01*
%TO.N,Net-(RV8-Pad2)*%
X79550000Y-99220000D02*
X78350000Y-98020000D01*
X78350000Y-98020000D02*
X78350000Y-94690000D01*
X85500000Y-101000000D02*
X83720000Y-99220000D01*
X83720000Y-99220000D02*
X79550000Y-99220000D01*
%TO.N,Net-(RV12-Pad2)*%
X127770000Y-92070000D02*
X130940000Y-88900000D01*
X115000000Y-99870000D02*
X118940000Y-95930000D01*
X130940000Y-88900000D02*
X130940000Y-86930000D01*
X115000000Y-100950000D02*
X115000000Y-99870000D01*
X119790000Y-92070000D02*
X127770000Y-92070000D01*
X118940000Y-92920000D02*
X119790000Y-92070000D01*
X118940000Y-95930000D02*
X118940000Y-92920000D01*
%TO.N,Net-(RV13-Pad2)*%
X120820000Y-94550000D02*
X120780000Y-94550000D01*
X125500000Y-116950000D02*
X125500000Y-99230000D01*
X125500000Y-99230000D02*
X120820000Y-94550000D01*
%TO.N,Net-(RV15-Pad2)*%
X138180000Y-99420000D02*
X136430000Y-97670000D01*
X149500000Y-100950000D02*
X147970000Y-99420000D01*
X128400000Y-95220000D02*
X128400000Y-94550000D01*
X147970000Y-99420000D02*
X138180000Y-99420000D01*
X136430000Y-97670000D02*
X130850000Y-97670000D01*
X130850000Y-97670000D02*
X128400000Y-95220000D01*
%TO.N,Net-(RV16-Pad2)*%
X136830000Y-96910000D02*
X133300000Y-96910000D01*
X153680000Y-101820000D02*
X153680000Y-99970000D01*
X152710000Y-115480000D02*
X149010000Y-111780000D01*
X133300000Y-96910000D02*
X130940000Y-94550000D01*
X149410000Y-99350000D02*
X148780000Y-98720000D01*
X152830000Y-102670000D02*
X153680000Y-101820000D01*
X149010000Y-104530000D02*
X150870000Y-102670000D01*
X156080000Y-115480000D02*
X152710000Y-115480000D01*
X149010000Y-111780000D02*
X149010000Y-104530000D01*
X138640000Y-98720000D02*
X136830000Y-96910000D01*
X148780000Y-98720000D02*
X138640000Y-98720000D01*
X150870000Y-102670000D02*
X152830000Y-102670000D01*
X153060000Y-99350000D02*
X149410000Y-99350000D01*
X157600000Y-117000000D02*
X156080000Y-115480000D01*
X153680000Y-99970000D02*
X153060000Y-99350000D01*
%TO.N,Net-(RV17-Pad2)*%
X171190000Y-95700000D02*
X171190000Y-89510000D01*
X164500000Y-99510000D02*
X167040000Y-96970000D01*
X169920000Y-96970000D02*
X171190000Y-95700000D01*
X167040000Y-96970000D02*
X169920000Y-96970000D01*
X164500000Y-101000000D02*
X164500000Y-99510000D01*
X173040000Y-87660000D02*
X176220000Y-87660000D01*
X176220000Y-87660000D02*
X177850000Y-86030000D01*
X171190000Y-89510000D02*
X173040000Y-87660000D01*
%TO.N,Net-(RV19-Pad2)*%
X173900000Y-89440000D02*
X179520000Y-89440000D01*
X172800000Y-90540000D02*
X173900000Y-89440000D01*
X188000000Y-116174000D02*
X186696000Y-114870000D01*
X188000000Y-116950000D02*
X188000000Y-116174000D01*
X176536000Y-114870000D02*
X172800000Y-111134000D01*
X172800000Y-111134000D02*
X172800000Y-90540000D01*
X186696000Y-114870000D02*
X176536000Y-114870000D01*
X179520000Y-89440000D02*
X182930000Y-86030000D01*
%TO.N,Net-(RV20-Pad2)*%
X194000000Y-100020000D02*
X193300000Y-99320000D01*
X194000000Y-100950000D02*
X194000000Y-100020000D01*
X177250000Y-99320000D02*
X173530000Y-95600000D01*
X174770000Y-90130000D02*
X181370000Y-90130000D01*
X193300000Y-99320000D02*
X177250000Y-99320000D01*
X181370000Y-90130000D02*
X185470000Y-86030000D01*
X173530000Y-91370000D02*
X174770000Y-90130000D01*
X173530000Y-95600000D02*
X173530000Y-91370000D01*
%TO.N,Net-(RV21-Pad2)*%
X201560000Y-111160000D02*
X201560000Y-103318000D01*
X203000000Y-116950000D02*
X203000000Y-112600000D01*
X201560000Y-103318000D02*
X196922000Y-98680000D01*
X196922000Y-98680000D02*
X180340000Y-98680000D01*
X180340000Y-98680000D02*
X175310000Y-93650000D01*
X203000000Y-112600000D02*
X201560000Y-111160000D01*
%TO.N,Net-(RV22-Pad2)*%
X185740000Y-98080000D02*
X183100000Y-95440000D01*
X198686000Y-99376000D02*
X197390000Y-98080000D01*
X207016000Y-99376000D02*
X198686000Y-99376000D01*
X179640000Y-95440000D02*
X177850000Y-93650000D01*
X208640000Y-101000000D02*
X207016000Y-99376000D01*
X209000000Y-101000000D02*
X208640000Y-101000000D01*
X183100000Y-95440000D02*
X179640000Y-95440000D01*
X197390000Y-98080000D02*
X185740000Y-98080000D01*
%TO.N,Net-(SW3-Pad2)*%
X54750000Y-149250000D02*
X51910000Y-146410000D01*
X54750000Y-149250000D02*
X48250000Y-149250000D01*
X45360000Y-130740000D02*
X31980000Y-130740000D01*
X38930000Y-90870000D02*
X43150000Y-90870000D01*
X28835000Y-100965000D02*
X38930000Y-90870000D01*
X43150000Y-90870000D02*
X47150000Y-86870000D01*
X28835000Y-127595000D02*
X28835000Y-100965000D01*
X51910000Y-137290000D02*
X45360000Y-130740000D01*
X31980000Y-130740000D02*
X28835000Y-127595000D01*
X51910000Y-146410000D02*
X51910000Y-137290000D01*
X47150000Y-86870000D02*
X47690000Y-86870000D01*
%TO.N,Net-(SW4-Pad2)*%
X62250000Y-136750000D02*
X55750000Y-136750000D01*
X39460000Y-91740000D02*
X44600000Y-91740000D01*
X29597000Y-126637000D02*
X29597000Y-101603000D01*
X44600000Y-91740000D02*
X49470000Y-86870000D01*
X55750000Y-136750000D02*
X48370000Y-129370000D01*
X32330000Y-129370000D02*
X29597000Y-126637000D01*
X49470000Y-86870000D02*
X50230000Y-86870000D01*
X48370000Y-129370000D02*
X32330000Y-129370000D01*
X29597000Y-101603000D02*
X39460000Y-91740000D01*
%TO.N,Net-(SW5-Pad2)*%
X66090000Y-127990000D02*
X32820000Y-127990000D01*
X69750000Y-149250000D02*
X63250000Y-149250000D01*
X30370000Y-105330000D02*
X40070000Y-95630000D01*
X40070000Y-95630000D02*
X40070000Y-94490000D01*
X30370000Y-125540000D02*
X30370000Y-105330000D01*
X69750000Y-149250000D02*
X69750000Y-131650000D01*
X69750000Y-131650000D02*
X66090000Y-127990000D01*
X32820000Y-127990000D02*
X30370000Y-125540000D01*
%TO.N,Net-(SW6-Pad2)*%
X41340000Y-96960000D02*
X42610000Y-95690000D01*
X71530000Y-121300000D02*
X34570000Y-121300000D01*
X84750000Y-149250000D02*
X78250000Y-149250000D01*
X31470000Y-118200000D02*
X31470000Y-105380000D01*
X42610000Y-95690000D02*
X42610000Y-94490000D01*
X73350000Y-144350000D02*
X73350000Y-123120000D01*
X78250000Y-149250000D02*
X73350000Y-144350000D01*
X73350000Y-123120000D02*
X71530000Y-121300000D01*
X31470000Y-105380000D02*
X39890000Y-96960000D01*
X34570000Y-121300000D02*
X31470000Y-118200000D01*
X39890000Y-96960000D02*
X41340000Y-96960000D01*
%TO.N,Net-(SW7-Pad2)*%
X32220000Y-118000000D02*
X32220000Y-105770000D01*
X85750000Y-136750000D02*
X77830000Y-128830000D01*
X47690000Y-95670000D02*
X47690000Y-94490000D01*
X92250000Y-136750000D02*
X85750000Y-136750000D01*
X32220000Y-105770000D02*
X40350000Y-97640000D01*
X76460000Y-120650000D02*
X34870000Y-120650000D01*
X45540000Y-95940000D02*
X47420000Y-95940000D01*
X77830000Y-122020000D02*
X76460000Y-120650000D01*
X77830000Y-128830000D02*
X77830000Y-122020000D01*
X40350000Y-97640000D02*
X43840000Y-97640000D01*
X43840000Y-97640000D02*
X45540000Y-95940000D01*
X34870000Y-120650000D02*
X32220000Y-118000000D01*
X47420000Y-95940000D02*
X47690000Y-95670000D01*
%TO.N,Net-(SW8-Pad2)*%
X93250000Y-149250000D02*
X99750000Y-149250000D01*
X78950000Y-121680000D02*
X77180000Y-119910000D01*
X44650000Y-98360000D02*
X46130000Y-96880000D01*
X35270000Y-119910000D02*
X33140000Y-117780000D01*
X99750000Y-149250000D02*
X99750000Y-147700000D01*
X77180000Y-119910000D02*
X35270000Y-119910000D01*
X94450000Y-136260000D02*
X89800000Y-131610000D01*
X46130000Y-96880000D02*
X49060000Y-96880000D01*
X50230000Y-95710000D02*
X50230000Y-94490000D01*
X78950000Y-126920000D02*
X78950000Y-121680000D01*
X49060000Y-96880000D02*
X50230000Y-95710000D01*
X89800000Y-131610000D02*
X83640000Y-131610000D01*
X83640000Y-131610000D02*
X78950000Y-126920000D01*
X40780000Y-98360000D02*
X44650000Y-98360000D01*
X33140000Y-117780000D02*
X33140000Y-106000000D01*
X94450000Y-142400000D02*
X94450000Y-136260000D01*
X99750000Y-147700000D02*
X94450000Y-142400000D01*
X33140000Y-106000000D02*
X40780000Y-98360000D01*
%TO.N,Net-(SW9-Pad2)*%
X100750000Y-136750000D02*
X99830000Y-136750000D01*
X107250000Y-136750000D02*
X100750000Y-136750000D01*
X99830000Y-136750000D02*
X92430000Y-129350000D01*
X85790000Y-120180000D02*
X85790000Y-105290000D01*
X82060000Y-126490000D02*
X82060000Y-121700000D01*
X85790000Y-105290000D02*
X87500000Y-103580000D01*
X88920000Y-103580000D02*
X89820000Y-102680000D01*
X87500000Y-103580000D02*
X88920000Y-103580000D01*
X94710000Y-89250000D02*
X97710000Y-89250000D01*
X97710000Y-89250000D02*
X98570000Y-88390000D01*
X89820000Y-94140000D02*
X94710000Y-89250000D01*
X85410000Y-120560000D02*
X85790000Y-120180000D01*
X82060000Y-121700000D02*
X83200000Y-120560000D01*
X98570000Y-88390000D02*
X98570000Y-86930000D01*
X84920000Y-129350000D02*
X82060000Y-126490000D01*
X92430000Y-129350000D02*
X84920000Y-129350000D01*
X89820000Y-102680000D02*
X89820000Y-94140000D01*
X83200000Y-120560000D02*
X85410000Y-120560000D01*
%TO.N,Net-(SW10-Pad2)*%
X87850000Y-104490000D02*
X89570000Y-104490000D01*
X114750000Y-149250000D02*
X111080000Y-145580000D01*
X114750000Y-149250000D02*
X108250000Y-149250000D01*
X100370000Y-90060000D02*
X101110000Y-89320000D01*
X96650000Y-132540000D02*
X92450000Y-128340000D01*
X111080000Y-135080000D02*
X108540000Y-132540000D01*
X111080000Y-145580000D02*
X111080000Y-135080000D01*
X88850000Y-128340000D02*
X86540000Y-126030000D01*
X94930000Y-90060000D02*
X100370000Y-90060000D01*
X86540000Y-105800000D02*
X87850000Y-104490000D01*
X90610000Y-94380000D02*
X94930000Y-90060000D01*
X108540000Y-132540000D02*
X96650000Y-132540000D01*
X89570000Y-104490000D02*
X90610000Y-103450000D01*
X92450000Y-128340000D02*
X88850000Y-128340000D01*
X86540000Y-126030000D02*
X86540000Y-105800000D01*
X101110000Y-89320000D02*
X101110000Y-86930000D01*
X90610000Y-103450000D02*
X90610000Y-94380000D01*
%TO.N,Net-(SW11-Pad2)*%
X102360000Y-90910000D02*
X103650000Y-89620000D01*
X92700000Y-127550000D02*
X89140000Y-127550000D01*
X122250000Y-136750000D02*
X115750000Y-136750000D01*
X88525000Y-105215000D02*
X90365000Y-105215000D01*
X110650000Y-131650000D02*
X96800000Y-131650000D01*
X95010000Y-90910000D02*
X102360000Y-90910000D01*
X91570000Y-94350000D02*
X95010000Y-90910000D01*
X90365000Y-105215000D02*
X91570000Y-104010000D01*
X96800000Y-131650000D02*
X92700000Y-127550000D01*
X89140000Y-127550000D02*
X87240000Y-125650000D01*
X87240000Y-106500000D02*
X88525000Y-105215000D01*
X103650000Y-89620000D02*
X103650000Y-86930000D01*
X115750000Y-136750000D02*
X110650000Y-131650000D01*
X91570000Y-104010000D02*
X91570000Y-94350000D01*
X87240000Y-125650000D02*
X87240000Y-106500000D01*
%TO.N,Net-(SW12-Pad2)*%
X92390000Y-109950000D02*
X92390000Y-94520000D01*
X93050000Y-126710000D02*
X89530000Y-126710000D01*
X124830000Y-133810000D02*
X124830000Y-147670000D01*
X104540000Y-91820000D02*
X106190000Y-90170000D01*
X129750000Y-149250000D02*
X123250000Y-149250000D01*
X121890000Y-130870000D02*
X97210000Y-130870000D01*
X87870000Y-125050000D02*
X87870000Y-114470000D01*
X89530000Y-126710000D02*
X87870000Y-125050000D01*
X124830000Y-147670000D02*
X123250000Y-149250000D01*
X95090000Y-91820000D02*
X104540000Y-91820000D01*
X124830000Y-133810000D02*
X121890000Y-130870000D01*
X106190000Y-90170000D02*
X106190000Y-86930000D01*
X92390000Y-94520000D02*
X95090000Y-91820000D01*
X97210000Y-130870000D02*
X93050000Y-126710000D01*
X87870000Y-114470000D02*
X92390000Y-109950000D01*
%TO.N,Net-(SW13-Pad2)*%
X145000000Y-149250000D02*
X138500000Y-149250000D01*
X93200000Y-95970000D02*
X94620000Y-94550000D01*
X88490000Y-119890000D02*
X88490000Y-114850000D01*
X141427000Y-136841000D02*
X141427000Y-140327000D01*
X97760000Y-130090000D02*
X93070000Y-125400000D01*
X88490000Y-114850000D02*
X93200000Y-110140000D01*
X94620000Y-94550000D02*
X96030000Y-94550000D01*
X89510000Y-120910000D02*
X88490000Y-119890000D01*
X91860000Y-120910000D02*
X89510000Y-120910000D01*
X93070000Y-122120000D02*
X91860000Y-120910000D01*
X93200000Y-110140000D02*
X93200000Y-95970000D01*
X93070000Y-125400000D02*
X93070000Y-122120000D01*
X141427000Y-140327000D02*
X145000000Y-143900000D01*
X134676000Y-130090000D02*
X141427000Y-136841000D01*
X134676000Y-130090000D02*
X97760000Y-130090000D01*
X145000000Y-143900000D02*
X145000000Y-149250000D01*
%TO.N,Net-(SW14-Pad2)*%
X89210000Y-115310000D02*
X93930000Y-110590000D01*
X138250000Y-129250000D02*
X98090000Y-129250000D01*
X93930000Y-97270000D02*
X95090000Y-96110000D01*
X152250000Y-136750000D02*
X145750000Y-136750000D01*
X89210000Y-119140000D02*
X89210000Y-115310000D01*
X90270000Y-120200000D02*
X89210000Y-119140000D01*
X95090000Y-96110000D02*
X97700000Y-96110000D01*
X98570000Y-95240000D02*
X98570000Y-94550000D01*
X93840000Y-125000000D02*
X93840000Y-121860000D01*
X92180000Y-120200000D02*
X90270000Y-120200000D01*
X93930000Y-110590000D02*
X93930000Y-97270000D01*
X145750000Y-136750000D02*
X138250000Y-129250000D01*
X93840000Y-121860000D02*
X92180000Y-120200000D01*
X97700000Y-96110000D02*
X98570000Y-95240000D01*
X98090000Y-129250000D02*
X93840000Y-125000000D01*
%TO.N,Net-(SW15-Pad2)*%
X103650000Y-95920000D02*
X103650000Y-94550000D01*
X102620000Y-96950000D02*
X103650000Y-95920000D01*
X94360000Y-111210000D02*
X97530000Y-111210000D01*
X94710000Y-124710000D02*
X94710000Y-121900000D01*
X91080000Y-119500000D02*
X90060000Y-118480000D01*
X160000000Y-149250000D02*
X153500000Y-149250000D01*
X160000000Y-147210000D02*
X157370000Y-144580000D01*
X157370000Y-144580000D02*
X157370000Y-134700000D01*
X157370000Y-134700000D02*
X151190000Y-128520000D01*
X98500000Y-128520000D02*
X96490000Y-126510000D01*
X98370000Y-110370000D02*
X98370000Y-105790000D01*
X92310000Y-119500000D02*
X91080000Y-119500000D01*
X94710000Y-121900000D02*
X92310000Y-119500000D01*
X98370000Y-105790000D02*
X94740000Y-102160000D01*
X94740000Y-98650000D02*
X96440000Y-96950000D01*
X96490000Y-126490000D02*
X94710000Y-124710000D01*
X96490000Y-126510000D02*
X96490000Y-126490000D01*
X151190000Y-128520000D02*
X98500000Y-128520000D01*
X90060000Y-118480000D02*
X90060000Y-115510000D01*
X97530000Y-111210000D02*
X98370000Y-110370000D01*
X90060000Y-115510000D02*
X94360000Y-111210000D01*
X94740000Y-102160000D02*
X94740000Y-98650000D01*
X96440000Y-96950000D02*
X102620000Y-96950000D01*
X160000000Y-149250000D02*
X160000000Y-147210000D01*
%TO.N,Net-(SW18-Pad2)*%
X146220000Y-97440000D02*
X144770000Y-95990000D01*
X150690000Y-110170000D02*
X150690000Y-106080000D01*
X152550000Y-88840000D02*
X153390000Y-88000000D01*
X161060000Y-114120000D02*
X157460000Y-114120000D01*
X155090000Y-111750000D02*
X152270000Y-111750000D01*
X189750000Y-149250000D02*
X183250000Y-149250000D01*
X153440000Y-97440000D02*
X146220000Y-97440000D01*
X183250000Y-140170000D02*
X174460000Y-131380000D01*
X153390000Y-88000000D02*
X153390000Y-85840000D01*
X150690000Y-106080000D02*
X152150000Y-104620000D01*
X144770000Y-90830000D02*
X146760000Y-88840000D01*
X162280000Y-115340000D02*
X161060000Y-114120000D01*
X144770000Y-95990000D02*
X144770000Y-90830000D01*
X154760000Y-104620000D02*
X156300000Y-103080000D01*
X152150000Y-104620000D02*
X154760000Y-104620000D01*
X158990000Y-127720000D02*
X158990000Y-121440000D01*
X156300000Y-100300000D02*
X153440000Y-97440000D01*
X146760000Y-88840000D02*
X152550000Y-88840000D01*
X174460000Y-131380000D02*
X171560000Y-131380000D01*
X183250000Y-149250000D02*
X183250000Y-140170000D01*
X169720000Y-129540000D02*
X160810000Y-129540000D01*
X162280000Y-119560000D02*
X162280000Y-115340000D01*
X160810000Y-129540000D02*
X158990000Y-127720000D01*
X152270000Y-111750000D02*
X150690000Y-110170000D01*
X161630000Y-120210000D02*
X162280000Y-119560000D01*
X156300000Y-103080000D02*
X156300000Y-100300000D01*
X157460000Y-114120000D02*
X155090000Y-111750000D01*
X160220000Y-120210000D02*
X161630000Y-120210000D01*
X171560000Y-131380000D02*
X169720000Y-129540000D01*
X158990000Y-121440000D02*
X160220000Y-120210000D01*
%TO.N,Net-(SW20-Pad2)*%
X165920000Y-127800000D02*
X164200000Y-126080000D01*
X158400000Y-89550000D02*
X158400000Y-85910000D01*
X164200000Y-121480000D02*
X164100000Y-121380000D01*
X156060000Y-105680000D02*
X157680000Y-104060000D01*
X158080000Y-112620000D02*
X156060000Y-110600000D01*
X172170000Y-129670000D02*
X170300000Y-127800000D01*
X146570000Y-95800000D02*
X146570000Y-91670000D01*
X204750000Y-149250000D02*
X202810000Y-147310000D01*
X157680000Y-104060000D02*
X157680000Y-99600000D01*
X154130000Y-96050000D02*
X146820000Y-96050000D01*
X197120000Y-129670000D02*
X172170000Y-129670000D01*
X170300000Y-127800000D02*
X165920000Y-127800000D01*
X202810000Y-135360000D02*
X197120000Y-129670000D01*
X147430000Y-90810000D02*
X157140000Y-90810000D01*
X204750000Y-149250000D02*
X198250000Y-149250000D01*
X162000000Y-112620000D02*
X158080000Y-112620000D01*
X146570000Y-91670000D02*
X147430000Y-90810000D01*
X157140000Y-90810000D02*
X158400000Y-89550000D01*
X164100000Y-121380000D02*
X164100000Y-114720000D01*
X157680000Y-99600000D02*
X154130000Y-96050000D01*
X164100000Y-114720000D02*
X162000000Y-112620000D01*
X158400000Y-85910000D02*
X158470000Y-85840000D01*
X146820000Y-96050000D02*
X146570000Y-95800000D01*
X164200000Y-126080000D02*
X164200000Y-121480000D01*
X156060000Y-110600000D02*
X156060000Y-105680000D01*
X202810000Y-147310000D02*
X202810000Y-135360000D01*
%TO.N,Net-(SW21-Pad2)*%
X162090000Y-111770000D02*
X158350000Y-111770000D01*
X158470000Y-104480000D02*
X158470000Y-99330000D01*
X150330000Y-95480000D02*
X148310000Y-93460000D01*
X156820000Y-110240000D02*
X156820000Y-106130000D01*
X166160000Y-126940000D02*
X165200000Y-125980000D01*
X164770000Y-119320000D02*
X164770000Y-114450000D01*
X212250000Y-136750000D02*
X205750000Y-136750000D01*
X172760000Y-128990000D02*
X170710000Y-126940000D01*
X205750000Y-136750000D02*
X197990000Y-128990000D01*
X164770000Y-114450000D02*
X162090000Y-111770000D01*
X158470000Y-99330000D02*
X154620000Y-95480000D01*
X158350000Y-111770000D02*
X156820000Y-110240000D01*
X170710000Y-126940000D02*
X166160000Y-126940000D01*
X154620000Y-95480000D02*
X150330000Y-95480000D01*
X197990000Y-128990000D02*
X172760000Y-128990000D01*
X165200000Y-125980000D02*
X165200000Y-119750000D01*
X165200000Y-119750000D02*
X164770000Y-119320000D01*
X156820000Y-106130000D02*
X158470000Y-104480000D01*
%TO.N,Net-(SW32-Pad2)*%
X231654000Y-97526000D02*
X230710000Y-97526000D01*
X230710000Y-97526000D02*
X228352000Y-99884000D01*
X228352000Y-111568000D02*
X227082000Y-112838000D01*
X231654000Y-97526000D02*
X238154000Y-97526000D01*
X227082000Y-112838000D02*
X226828000Y-112838000D01*
X228352000Y-99884000D02*
X228352000Y-111568000D01*
%TO.N,Net-(R56-Pad2)*%
X201174000Y-61784000D02*
X201734000Y-61784000D01*
X201734000Y-61784000D02*
X204150000Y-64200000D01*
X204150000Y-64200000D02*
X204150000Y-66200000D01*
X206800000Y-68850000D02*
X208570000Y-68850000D01*
X204150000Y-66200000D02*
X206800000Y-68850000D01*
%TO.N,Net-(RV2-Pad2)*%
X37500000Y-117000000D02*
X37500000Y-116540000D01*
X61680000Y-97010000D02*
X67320000Y-91370000D01*
X73270000Y-87080000D02*
X73270000Y-87070000D01*
X51015000Y-100085000D02*
X54090000Y-97010000D01*
X51070000Y-113820000D02*
X51070000Y-100140000D01*
X50130000Y-114760000D02*
X51070000Y-113820000D01*
X54090000Y-97010000D02*
X61680000Y-97010000D01*
X39280000Y-114760000D02*
X50130000Y-114760000D01*
X37500000Y-116540000D02*
X39280000Y-114760000D01*
X51070000Y-100140000D02*
X51015000Y-100085000D01*
X67320000Y-91370000D02*
X68980000Y-91370000D01*
X68980000Y-91370000D02*
X73270000Y-87080000D01*
%TO.N,Net-(RV7-Pad2)*%
X75810000Y-94690000D02*
X75810000Y-97710000D01*
X77984000Y-99884000D02*
X77984000Y-112074000D01*
X77984000Y-112074000D02*
X80000000Y-114090000D01*
X75810000Y-97710000D02*
X77984000Y-99884000D01*
X80000000Y-114090000D02*
X80000000Y-116950000D01*
%TO.N,Net-(RV14-Pad2)*%
X127100000Y-98330000D02*
X123320000Y-94550000D01*
X134600000Y-98330000D02*
X127100000Y-98330000D01*
X142600000Y-116950000D02*
X142600000Y-106330000D01*
X142600000Y-106330000D02*
X134600000Y-98330000D01*
%TO.N,Net-(RV18-Pad2)*%
X173340000Y-88610000D02*
X177810000Y-88610000D01*
X177810000Y-88610000D02*
X180390000Y-86030000D01*
X172000000Y-89950000D02*
X173340000Y-88610000D01*
X172000000Y-116950000D02*
X172000000Y-89950000D01*
%TO.N,Net-(SW1-Pad2)*%
X38410000Y-89090000D02*
X40020000Y-89090000D01*
X39750000Y-149250000D02*
X33250000Y-149250000D01*
X27184000Y-129414000D02*
X27184000Y-100316000D01*
X39750000Y-143990000D02*
X37160000Y-141400000D01*
X42240000Y-86870000D02*
X42610000Y-86870000D01*
X37160000Y-141400000D02*
X37160000Y-139390000D01*
X37160000Y-139390000D02*
X27184000Y-129414000D01*
X40020000Y-89090000D02*
X42240000Y-86870000D01*
X39750000Y-149250000D02*
X39750000Y-143990000D01*
X27184000Y-100316000D02*
X38410000Y-89090000D01*
%TO.N,Net-(SW2-Pad2)*%
X38640000Y-89960000D02*
X42220000Y-89960000D01*
X45150000Y-87030000D02*
X45150000Y-86870000D01*
X28073000Y-100527000D02*
X38640000Y-89960000D01*
X47250000Y-136750000D02*
X40750000Y-136750000D01*
X28073000Y-128723000D02*
X28073000Y-100527000D01*
X42220000Y-89960000D02*
X45150000Y-87030000D01*
X36100000Y-136750000D02*
X28073000Y-128723000D01*
X40750000Y-136750000D02*
X36100000Y-136750000D01*
%TO.N,Net-(SW16-Pad2)*%
X95520000Y-101870000D02*
X95520000Y-99170000D01*
X106000000Y-96060000D02*
X106000000Y-94740000D01*
X95520000Y-99170000D02*
X96910000Y-97780000D01*
X97430000Y-112220000D02*
X99560000Y-110090000D01*
X94530000Y-112220000D02*
X97430000Y-112220000D01*
X90790000Y-115960000D02*
X94530000Y-112220000D01*
X104280000Y-97780000D02*
X106000000Y-96060000D01*
X95520000Y-124470000D02*
X95520000Y-121620000D01*
X99560000Y-105910000D02*
X95520000Y-101870000D01*
X90790000Y-117640000D02*
X90790000Y-115960000D01*
X160750000Y-136750000D02*
X151690000Y-127690000D01*
X91990000Y-118840000D02*
X90790000Y-117640000D01*
X95520000Y-121620000D02*
X92740000Y-118840000D01*
X96910000Y-97780000D02*
X104280000Y-97780000D01*
X99560000Y-110090000D02*
X99560000Y-105910000D01*
X92740000Y-118840000D02*
X91990000Y-118840000D01*
X98740000Y-127690000D02*
X95520000Y-124470000D01*
X106000000Y-94740000D02*
X106190000Y-94550000D01*
X167250000Y-136750000D02*
X160750000Y-136750000D01*
X151690000Y-127690000D02*
X98740000Y-127690000D01*
%TO.N,Net-(RV9-Pad2)*%
X98030000Y-98500000D02*
X107910000Y-98500000D01*
X109870000Y-96540000D02*
X114010000Y-96540000D01*
X114010000Y-96540000D02*
X116920000Y-93630000D01*
X118850000Y-90090000D02*
X121050000Y-90090000D01*
X107910000Y-98500000D02*
X109870000Y-96540000D01*
X95000000Y-116950000D02*
X95000000Y-114430000D01*
X116920000Y-92020000D02*
X118850000Y-90090000D01*
X116920000Y-93630000D02*
X116920000Y-92020000D01*
X96280000Y-113150000D02*
X98220000Y-113150000D01*
X121050000Y-90090000D02*
X123320000Y-87820000D01*
X100520000Y-110850000D02*
X100520000Y-105760000D01*
X98220000Y-113150000D02*
X100520000Y-110850000D01*
X123320000Y-87820000D02*
X123320000Y-86930000D01*
X95000000Y-114430000D02*
X96280000Y-113150000D01*
X96310000Y-100220000D02*
X98030000Y-98500000D01*
X100520000Y-105760000D02*
X96310000Y-101550000D01*
X96310000Y-101550000D02*
X96310000Y-100220000D01*
%TO.N,Net-(RV10-Pad2)*%
X110620000Y-97580000D02*
X114410000Y-97580000D01*
X108700000Y-99500000D02*
X110620000Y-97580000D01*
X101950000Y-99500000D02*
X108700000Y-99500000D01*
X100500000Y-100950000D02*
X101950000Y-99500000D01*
X117570000Y-94420000D02*
X117570000Y-92410000D01*
X122030000Y-90760000D02*
X125860000Y-86930000D01*
X119220000Y-90760000D02*
X122030000Y-90760000D01*
X117570000Y-92410000D02*
X119220000Y-90760000D01*
X114410000Y-97580000D02*
X117570000Y-94420000D01*
%TO.N,Net-(RV11-Pad2)*%
X107960000Y-101670000D02*
X111170000Y-98460000D01*
X119540000Y-91340000D02*
X125320000Y-91340000D01*
X110500000Y-114580000D02*
X107960000Y-112040000D01*
X125320000Y-91340000D02*
X128400000Y-88260000D01*
X110500000Y-116950000D02*
X110500000Y-114580000D01*
X115080000Y-98460000D02*
X118230000Y-95310000D01*
X118230000Y-95310000D02*
X118230000Y-92650000D01*
X118230000Y-92650000D02*
X119540000Y-91340000D01*
X111170000Y-98460000D02*
X115080000Y-98460000D01*
X107960000Y-112040000D02*
X107960000Y-101670000D01*
X128400000Y-88260000D02*
X128400000Y-86930000D01*
%TO.N,Net-(SW17-Pad2)*%
X158120000Y-128470000D02*
X158120000Y-121090000D01*
X154510000Y-103210000D02*
X154510000Y-101240000D01*
X149660000Y-87820000D02*
X150850000Y-86630000D01*
X167040000Y-130520000D02*
X160170000Y-130520000D01*
X154510000Y-101240000D02*
X154530000Y-101220000D01*
X151540000Y-112480000D02*
X149830000Y-110770000D01*
X174750000Y-138230000D02*
X167040000Y-130520000D01*
X156820000Y-114760000D02*
X154850000Y-112790000D01*
X152597818Y-98110000D02*
X145550000Y-98110000D01*
X154530000Y-101220000D02*
X154530000Y-100042182D01*
X161650000Y-115720000D02*
X160690000Y-114760000D01*
X151580000Y-103720000D02*
X154000000Y-103720000D01*
X174750000Y-149250000D02*
X168250000Y-149250000D01*
X146520000Y-87820000D02*
X149660000Y-87820000D01*
X159640000Y-119570000D02*
X161070000Y-119570000D01*
X174750000Y-149250000D02*
X174750000Y-138230000D01*
X149830000Y-105470000D02*
X151580000Y-103720000D01*
X154570000Y-112480000D02*
X151540000Y-112480000D01*
X144120000Y-96680000D02*
X144120000Y-90220000D01*
X160170000Y-130520000D02*
X158120000Y-128470000D01*
X145550000Y-98110000D02*
X144120000Y-96680000D01*
X154530000Y-100042182D02*
X152597818Y-98110000D01*
X149830000Y-110770000D02*
X149830000Y-105470000D01*
X154000000Y-103720000D02*
X154510000Y-103210000D01*
X161070000Y-119570000D02*
X161650000Y-118990000D01*
X150850000Y-86630000D02*
X150850000Y-85840000D01*
X144120000Y-90220000D02*
X146520000Y-87820000D01*
X158120000Y-121090000D02*
X159640000Y-119570000D01*
X154850000Y-112760000D02*
X154570000Y-112480000D01*
X154850000Y-112790000D02*
X154850000Y-112760000D01*
X161650000Y-118990000D02*
X161650000Y-115720000D01*
X160690000Y-114760000D02*
X156820000Y-114760000D01*
%TO.N,Net-(SW19-Pad2)*%
X156990000Y-100040000D02*
X153680000Y-96730000D01*
X151550000Y-110120000D02*
X151550000Y-106290000D01*
X184490000Y-130490000D02*
X171970000Y-130490000D01*
X159640000Y-122050000D02*
X160690000Y-121000000D01*
X157900000Y-113450000D02*
X155300000Y-110850000D01*
X146430000Y-96730000D02*
X145790000Y-96090000D01*
X155300000Y-110850000D02*
X152280000Y-110850000D01*
X161630000Y-113450000D02*
X157900000Y-113450000D01*
X161060000Y-128570000D02*
X159640000Y-127150000D01*
X197250000Y-136750000D02*
X190750000Y-136750000D01*
X145790000Y-96090000D02*
X145790000Y-90990000D01*
X190750000Y-136750000D02*
X184490000Y-130490000D01*
X171970000Y-130490000D02*
X170050000Y-128570000D01*
X151550000Y-106290000D02*
X152550000Y-105290000D01*
X162130000Y-121000000D02*
X163070000Y-120060000D01*
X152550000Y-105290000D02*
X155430000Y-105290000D01*
X156990000Y-103730000D02*
X156990000Y-100040000D01*
X154720000Y-89820000D02*
X155930000Y-88610000D01*
X163070000Y-120060000D02*
X163070000Y-114890000D01*
X163070000Y-114890000D02*
X161630000Y-113450000D01*
X153680000Y-96730000D02*
X146430000Y-96730000D01*
X170050000Y-128570000D02*
X161060000Y-128570000D01*
X160690000Y-121000000D02*
X162130000Y-121000000D01*
X155430000Y-105290000D02*
X156990000Y-103730000D01*
X159640000Y-127150000D02*
X159640000Y-122050000D01*
X152280000Y-110850000D02*
X151550000Y-110120000D01*
X146960000Y-89820000D02*
X154720000Y-89820000D01*
X155930000Y-88610000D02*
X155930000Y-85840000D01*
X145790000Y-90990000D02*
X146960000Y-89820000D01*
%TO.N,Net-(SW22-Pad2)*%
X167670000Y-120000000D02*
X166720000Y-120000000D01*
X216970000Y-146470000D02*
X216970000Y-134640000D01*
X152240000Y-94850000D02*
X150850000Y-93460000D01*
X158860000Y-110850000D02*
X157610000Y-109600000D01*
X169720000Y-122050000D02*
X167670000Y-120000000D01*
X165500000Y-113990000D02*
X162360000Y-110850000D01*
X159300000Y-104900000D02*
X159300000Y-99080000D01*
X166720000Y-120000000D02*
X165500000Y-118780000D01*
X157610000Y-109600000D02*
X157610000Y-106590000D01*
X219750000Y-149250000D02*
X213250000Y-149250000D01*
X162360000Y-110850000D02*
X158860000Y-110850000D01*
X157610000Y-106590000D02*
X159300000Y-104900000D01*
X169720000Y-124640000D02*
X169720000Y-122050000D01*
X216970000Y-134640000D02*
X210660000Y-128330000D01*
X219750000Y-149250000D02*
X216970000Y-146470000D01*
X210660000Y-128330000D02*
X173410000Y-128330000D01*
X159300000Y-99080000D02*
X155070000Y-94850000D01*
X173410000Y-128330000D02*
X169720000Y-124640000D01*
X165500000Y-118780000D02*
X165500000Y-113990000D01*
X155070000Y-94850000D02*
X152240000Y-94850000D01*
%TO.N,Net-(SW23-Pad2)*%
X174100000Y-127670000D02*
X170490000Y-124060000D01*
X211180000Y-127670000D02*
X174100000Y-127670000D01*
X167980000Y-119240000D02*
X166810000Y-119240000D01*
X170490000Y-124060000D02*
X170490000Y-121750000D01*
X227250000Y-136750000D02*
X220750000Y-136750000D01*
X162610000Y-106010000D02*
X162635000Y-105985000D01*
X166140000Y-118570000D02*
X166140000Y-113340000D01*
X159930000Y-103280000D02*
X159930000Y-97840000D01*
X170490000Y-121750000D02*
X167980000Y-119240000D01*
X162610000Y-109810000D02*
X162610000Y-106010000D01*
X220260000Y-136750000D02*
X211180000Y-127670000D01*
X220750000Y-136750000D02*
X220260000Y-136750000D01*
X159930000Y-97840000D02*
X155930000Y-93840000D01*
X166140000Y-113340000D02*
X162610000Y-109810000D01*
X162635000Y-105985000D02*
X159930000Y-103280000D01*
X166810000Y-119240000D02*
X166140000Y-118570000D01*
X155930000Y-93840000D02*
X155930000Y-93460000D01*
%TO.N,Net-(SW24-Pad2)*%
X229475000Y-148025000D02*
X229475000Y-136059000D01*
X171180000Y-121310000D02*
X168430000Y-118560000D01*
X166890000Y-118200000D02*
X166890000Y-112770000D01*
X166890000Y-112770000D02*
X163540000Y-109420000D01*
X160550000Y-96200000D02*
X158470000Y-94120000D01*
X174580000Y-126960000D02*
X171180000Y-123560000D01*
X227271000Y-133855000D02*
X218635000Y-133855000D01*
X158470000Y-94120000D02*
X158470000Y-93460000D01*
X171180000Y-123560000D02*
X171180000Y-121310000D01*
X167250000Y-118560000D02*
X166890000Y-118200000D01*
X218635000Y-133855000D02*
X211740000Y-126960000D01*
X211740000Y-126960000D02*
X174580000Y-126960000D01*
X234750000Y-149250000D02*
X228250000Y-149250000D01*
X163540000Y-105670000D02*
X160550000Y-102680000D01*
X160550000Y-102680000D02*
X160550000Y-96200000D01*
X163540000Y-109420000D02*
X163540000Y-105670000D01*
X168430000Y-118560000D02*
X167250000Y-118560000D01*
X228250000Y-149250000D02*
X229475000Y-148025000D01*
X229475000Y-136059000D02*
X227271000Y-133855000D01*
%TO.N,Net-(SW25-Pad2)*%
X258832000Y-104202000D02*
X259760000Y-105130000D01*
X226386000Y-123506000D02*
X233432000Y-123506000D01*
X240798000Y-104202000D02*
X258832000Y-104202000D01*
X235718000Y-116582000D02*
X239782000Y-112518000D01*
X219208000Y-112838000D02*
X220224000Y-112838000D01*
X220224000Y-112838000D02*
X223272000Y-115886000D01*
X224034000Y-121982000D02*
X224862000Y-121982000D01*
X223272000Y-115886000D02*
X223272000Y-121220000D01*
X255022000Y-112076000D02*
X255022000Y-137478000D01*
X255022000Y-137478000D02*
X243250000Y-149250000D01*
X239782000Y-112518000D02*
X239782000Y-105218000D01*
X235718000Y-121220000D02*
X235718000Y-116582000D01*
X233432000Y-123506000D02*
X235718000Y-121220000D01*
X259760000Y-107338000D02*
X255022000Y-112076000D01*
X243250000Y-149250000D02*
X249750000Y-149250000D01*
X224862000Y-121982000D02*
X226386000Y-123506000D01*
X239782000Y-105218000D02*
X240798000Y-104202000D01*
X223272000Y-121220000D02*
X224034000Y-121982000D01*
X259760000Y-105130000D02*
X259760000Y-107338000D01*
%TO.N,Net-(SW26-Pad2)*%
X226066000Y-110298000D02*
X226828000Y-110298000D01*
X225304000Y-98868000D02*
X225304000Y-109536000D01*
X241560000Y-89434000D02*
X238802000Y-89434000D01*
X225304000Y-109536000D02*
X226066000Y-110298000D01*
X248060000Y-89434000D02*
X241560000Y-89434000D01*
X238802000Y-89434000D02*
X232416000Y-95820000D01*
X228352000Y-95820000D02*
X225304000Y-98868000D01*
X232416000Y-95820000D02*
X228352000Y-95820000D01*
%TO.N,Net-(SW27-Pad2)*%
X222510000Y-121982000D02*
X222510000Y-117664000D01*
X241560000Y-105908000D02*
X241560000Y-110860000D01*
X241600000Y-111900000D02*
X236480000Y-117020000D01*
X222510000Y-117664000D02*
X220224000Y-115378000D01*
X241600000Y-110900000D02*
X241600000Y-111900000D01*
X223272000Y-122744000D02*
X222510000Y-121982000D01*
X226258000Y-124268000D02*
X224734000Y-122744000D01*
X233686000Y-124268000D02*
X226258000Y-124268000D01*
X241560000Y-110860000D02*
X241600000Y-110900000D01*
X236480000Y-121474000D02*
X233686000Y-124268000D01*
X248060000Y-105908000D02*
X241560000Y-105908000D01*
X224734000Y-122744000D02*
X223272000Y-122744000D01*
X236480000Y-117020000D02*
X236480000Y-121474000D01*
X220224000Y-115378000D02*
X219208000Y-115378000D01*
%TO.N,Net-(SW28-Pad2)*%
X221748000Y-120204000D02*
X219462000Y-117918000D01*
X237242000Y-117358000D02*
X237242000Y-122236000D01*
X226066000Y-125030000D02*
X224542000Y-123506000D01*
X241800000Y-112800000D02*
X237242000Y-117358000D01*
X222764000Y-123506000D02*
X221748000Y-122490000D01*
X219462000Y-117918000D02*
X219208000Y-117918000D01*
X221748000Y-122490000D02*
X221748000Y-120204000D01*
X257966000Y-105908000D02*
X251466000Y-105908000D01*
X251466000Y-107504000D02*
X246170000Y-112800000D01*
X251466000Y-105908000D02*
X251466000Y-107504000D01*
X224542000Y-123506000D02*
X222764000Y-123506000D01*
X237242000Y-122236000D02*
X234448000Y-125030000D01*
X246170000Y-112800000D02*
X241800000Y-112800000D01*
X234448000Y-125030000D02*
X226066000Y-125030000D01*
%TO.N,Net-(SW29-Pad2)*%
X227082000Y-120458000D02*
X226828000Y-120458000D01*
X229876000Y-104710000D02*
X229876000Y-117664000D01*
X249688000Y-102424000D02*
X248672000Y-103440000D01*
X231146000Y-103440000D02*
X229876000Y-104710000D01*
X257966000Y-97562000D02*
X251466000Y-97562000D01*
X229876000Y-117664000D02*
X227082000Y-120458000D01*
X248672000Y-103440000D02*
X231146000Y-103440000D01*
X249688000Y-99340000D02*
X249688000Y-102424000D01*
X251466000Y-97562000D02*
X249688000Y-99340000D01*
%TO.N,Net-(SW30-Pad2)*%
X224542000Y-120966000D02*
X224288000Y-120712000D01*
X238154000Y-105908000D02*
X238154000Y-113046000D01*
X224288000Y-120712000D02*
X224288000Y-115632000D01*
X224876000Y-120966000D02*
X224542000Y-120966000D01*
X234956000Y-116244000D02*
X234956000Y-120712000D01*
X219208000Y-110552000D02*
X219208000Y-110298000D01*
X234956000Y-120712000D02*
X232924000Y-122744000D01*
X238154000Y-105908000D02*
X231654000Y-105908000D01*
X238154000Y-113046000D02*
X234956000Y-116244000D01*
X224288000Y-115632000D02*
X219208000Y-110552000D01*
X232924000Y-122744000D02*
X226654000Y-122744000D01*
X226654000Y-122744000D02*
X224876000Y-120966000D01*
%TO.N,Net-(SW31-Pad2)*%
X229114000Y-115886000D02*
X227082000Y-117918000D01*
X227082000Y-117918000D02*
X226828000Y-117918000D01*
X229114000Y-101408000D02*
X229114000Y-115886000D01*
X240362000Y-97526000D02*
X238258000Y-99630000D01*
X230892000Y-99630000D02*
X229114000Y-101408000D01*
X238258000Y-99630000D02*
X230892000Y-99630000D01*
X248060000Y-97526000D02*
X241560000Y-97526000D01*
X241560000Y-97526000D02*
X240362000Y-97526000D01*
%TO.N,Net-(J3-PadT1)*%
X72650000Y-54418000D02*
X74936000Y-52132000D01*
X74936000Y-47306000D02*
X72400000Y-44770000D01*
X74936000Y-52132000D02*
X74936000Y-47306000D01*
X72400000Y-44770000D02*
X71914000Y-44770000D01*
%TO.N,Net-(R54-Pad2)*%
X202650000Y-56656000D02*
X202650000Y-58957817D01*
X202650000Y-58957817D02*
X203400000Y-59707817D01*
X205895000Y-63770000D02*
X208570000Y-63770000D01*
X203400000Y-59707817D02*
X203400000Y-61275000D01*
X201174000Y-55180000D02*
X202650000Y-56656000D01*
X203400000Y-61275000D02*
X205895000Y-63770000D01*
%TO.N,SCK*%
X205250000Y-47250000D02*
X205250000Y-43900000D01*
X176230000Y-45150000D02*
X175475500Y-45150000D01*
X208570000Y-48530000D02*
X206530000Y-48530000D01*
X175475500Y-45150000D02*
X174390000Y-46235500D01*
X179930000Y-41450000D02*
X176230000Y-45150000D01*
X205250000Y-43900000D02*
X202800000Y-41450000D01*
X202800000Y-41450000D02*
X179930000Y-41450000D01*
X206530000Y-48530000D02*
X205250000Y-47250000D01*
%TO.N,MOSI*%
X176510000Y-45950000D02*
X176150000Y-45950000D01*
X180160000Y-42300000D02*
X176510000Y-45950000D01*
X206520000Y-51070000D02*
X204450000Y-49000000D01*
X202450000Y-42300000D02*
X180160000Y-42300000D01*
X175090000Y-47010000D02*
X172280000Y-47010000D01*
X204450000Y-49000000D02*
X204450000Y-44300000D01*
X176150000Y-45950000D02*
X175090000Y-47010000D01*
X208570000Y-51070000D02*
X206520000Y-51070000D01*
X204450000Y-44300000D02*
X202450000Y-42300000D01*
%TO.N,MISO*%
X203600000Y-49350000D02*
X203600000Y-44600000D01*
X205000000Y-50750000D02*
X203600000Y-49350000D01*
X201950000Y-42950000D02*
X180530000Y-42950000D01*
X205610000Y-53610000D02*
X205000000Y-53000000D01*
X208570000Y-53610000D02*
X205610000Y-53610000D01*
X176660000Y-46820000D02*
X176660000Y-47020000D01*
X180530000Y-42950000D02*
X176660000Y-46820000D01*
X203600000Y-44600000D02*
X201950000Y-42950000D01*
X205000000Y-53000000D02*
X205000000Y-50750000D01*
%TO.N,SPICS*%
X202800000Y-49700000D02*
X202800000Y-44800000D01*
X181190000Y-43700000D02*
X177030000Y-47860000D01*
X202800000Y-44800000D02*
X201700000Y-43700000D01*
X177030000Y-47860000D02*
X171190000Y-47860000D01*
X204250000Y-51150000D02*
X202800000Y-49700000D01*
X208570000Y-56150000D02*
X205200000Y-56150000D01*
X201700000Y-43700000D02*
X181190000Y-43700000D01*
X204250000Y-55200000D02*
X204250000Y-51150000D01*
X205200000Y-56150000D02*
X204250000Y-55200000D01*
%TD*%
M02*
