M48
; DRILL file {KiCad (6.0.11)} date Sun Jun  2 13:27:07 2024
; FORMAT={-:-/ absolute / inch / decimal}
; #@! TF.CreationDate,2024-06-02T13:27:07-05:00
; #@! TF.GenerationSoftware,Kicad,Pcbnew,(6.0.11)
; #@! TF.FileFunction,Plated,1,2,PTH
FMAT,2
INCH
; #@! TA.AperFunction,Plated,PTH,ViaDrill
T1C0.0157
; #@! TA.AperFunction,Plated,PTH,ComponentDrill
T2C0.0295
; #@! TA.AperFunction,Plated,PTH,ComponentDrill
T3C0.0315
; #@! TA.AperFunction,Plated,PTH,ComponentDrill
T4C0.0394
; #@! TA.AperFunction,Plated,PTH,ComponentDrill
T5C0.0402
; #@! TA.AperFunction,Plated,PTH,ComponentDrill
T6C0.0433
; #@! TA.AperFunction,Plated,PTH,ComponentDrill
T7C0.0472
; #@! TA.AperFunction,Plated,PTH,ComponentDrill
T8C0.0598
; #@! TA.AperFunction,Plated,PTH,ComponentDrill
T9C0.0630
; #@! TA.AperFunction,Plated,PTH,ComponentDrill
T10C0.0709
%
G90
G05
T1
X1.1114Y-2.4197
X1.1114Y-3.2354
X1.1161Y-3.0665
X1.3228Y-3.2236
X1.4598Y-3.2752
X1.5268Y-3.0898
X1.8413Y-3.187
X1.9783Y-3.2874
X2.1291Y-3.1941
X2.3299Y-3.2705
X2.4059Y-3.4543
X2.6665Y-3.2866
X2.6969Y-3.2134
X3.0248Y-3.4421
X3.0445Y-3.2492
X3.0878Y-3.3091
X3.235Y-3.4236
X3.3024Y-3.4197
X3.4205Y-3.2362
X3.4867Y-3.3025
X3.5083Y-3.4882
X3.626Y-3.2618
X3.7441Y-3.1892
X4.1287Y-3.4146
X4.1791Y-3.2396
X4.2539Y-3.1811
X4.3427Y-3.375
X4.422Y-3.3681
X4.5217Y-3.1921
X4.6146Y-3.4894
X4.7402Y-3.1843
X4.7631Y-3.2834
X4.9937Y-3.2406
X5.111Y-3.4728
X5.2291Y-3.2252
X5.2756Y-3.4508
X5.3636Y-3.4423
X5.4358Y-3.1823
X5.4374Y-3.2811
X5.5303Y-3.4563
X5.5882Y-3.1071
X5.7457Y-3.0406
X5.9563Y-3.0323
X6.0189Y-2.8799
X6.0264Y-3.0945
X6.2051Y-3.3047
X6.3441Y-2.8642
X6.3463Y-3.2876
X6.3508Y-2.9657
X6.436Y-3.2923
X6.6004Y-3.3179
X6.6583Y-2.8669
X6.7024Y-2.9555
X6.7398Y-1.8843
X6.7827Y-1.8508
X6.8098Y-1.798
X6.8657Y-1.8203
X6.9551Y-1.8512
X7.0276Y-2.8933
X7.0707Y-2.9246
X7.148Y-3.103
X7.253Y-3.3386
X7.3282Y-3.2987
X7.374Y-1.9862
X7.5055Y-3.2864
X7.5335Y-3.0602
X7.6114Y-3.4823
X7.7268Y-3.0646
X7.7402Y-3.1331
X7.8291Y-3.176
X7.8764Y-3.1213
X7.9445Y-3.3177
X7.9972Y-3.363
X8.5507Y-4.2524
X8.6502Y-3.9424
X8.6803Y-3.1677
X8.7402Y-4.1124
X8.7433Y-3.0378
X8.7602Y-4.0524
X8.7665Y-2.5732
X8.8051Y-2.45
X8.8098Y-2.9528
X10.1343Y-2.689
X10.1802Y-2.8524
T3
X1.335Y-2.7669
X1.411Y-2.2709
X1.411Y-2.5709
X1.4335Y-2.7669
X1.4702Y-2.1524
X1.5402Y-2.2724
X1.5402Y-2.5724
X1.5534Y-2.9024
X1.5693Y-3.3386
X1.5811Y-3.4705
X1.5811Y-3.7705
X1.6811Y-3.4705
X1.6811Y-3.7705
X1.7202Y-2.334
X1.7202Y-2.4324
X1.7437Y-2.5783
X1.7437Y-2.7752
X1.7502Y-2.9024
X1.7661Y-3.3386
X1.7702Y-2.1524
X1.7811Y-3.4705
X1.7811Y-3.7705
X1.8702Y-2.0424
X1.8811Y-3.4705
X1.8811Y-3.7705
X1.8874Y-2.578
X1.8874Y-2.678
X1.8874Y-2.778
X1.8874Y-2.878
X1.8902Y-2.4224
X1.8965Y-1.9051
X1.9811Y-3.4705
X1.9811Y-3.7705
X2.0106Y-2.1752
X2.0106Y-2.2736
X2.0671Y-2.0424
X2.0811Y-3.4705
X2.0811Y-3.7705
X2.1602Y-3.0124
X2.1802Y-2.0124
X2.1802Y-2.3124
X2.1811Y-3.4705
X2.1811Y-3.7705
X2.1874Y-2.578
X2.1874Y-2.678
X2.1874Y-2.778
X2.1874Y-2.878
X2.1902Y-2.4224
X2.1965Y-1.9051
X2.2811Y-3.4705
X2.2811Y-3.7705
X2.3102Y-2.0024
X2.3102Y-2.3024
X2.3202Y-2.3956
X2.3202Y-2.5924
X2.3402Y-2.704
X2.3402Y-2.9009
X2.3571Y-3.0124
X2.4502Y-2.2124
X2.4502Y-2.5124
X2.4512Y-3.5484
X2.4512Y-3.7453
X2.4702Y-2.6124
X2.4702Y-2.9124
X2.5102Y-1.834
X2.5102Y-1.9324
X2.528Y-3.1252
X2.528Y-3.4252
X2.5402Y-1.584
X2.5402Y-1.6824
X2.5802Y-2.1424
X2.5802Y-2.4424
X2.6002Y-2.6124
X2.6002Y-2.9124
X2.6902Y-1.7424
X2.6902Y-2.0424
X2.7102Y-2.1454
X2.7102Y-2.4454
X2.7154Y-3.5272
X2.7154Y-3.8272
X2.7502Y-2.7924
X2.7502Y-3.0924
X2.7818Y-2.6124
X2.8154Y-3.5272
X2.8154Y-3.8272
X2.8602Y-2.1424
X2.8602Y-2.4424
X2.8802Y-2.6124
X2.8802Y-2.8324
X2.8802Y-3.0293
X2.9154Y-3.5272
X2.9154Y-3.8272
X2.9602Y-3.1324
X3.0002Y-2.1424
X3.0002Y-2.4424
X3.0106Y-2.682
X3.0106Y-2.982
X3.0154Y-3.5272
X3.0154Y-3.8272
X3.0718Y-2.5524
X3.1106Y-2.682
X3.1106Y-2.982
X3.1154Y-3.5272
X3.1154Y-3.8272
X3.1302Y-2.1424
X3.1302Y-2.4424
X3.1571Y-3.1324
X3.2106Y-2.682
X3.2106Y-2.982
X3.2154Y-3.5272
X3.2154Y-3.8272
X3.2502Y-3.1224
X3.2687Y-2.5524
X3.2702Y-2.1424
X3.2702Y-2.4424
X3.3106Y-2.682
X3.3106Y-2.982
X3.3154Y-3.5272
X3.3154Y-3.8272
X3.3702Y-2.5524
X3.3802Y-2.2924
X3.3802Y-2.4224
X3.4018Y-2.0924
X3.4154Y-3.5272
X3.4154Y-3.8272
X3.4287Y-2.9783
X3.4502Y-2.6724
X3.4502Y-2.8693
X3.5002Y-2.0924
X3.5502Y-3.1224
X3.5802Y-2.6724
X3.5802Y-2.8693
X3.5957Y-3.3815
X3.5957Y-3.5783
X3.6434Y-2.0824
X3.6702Y-2.5524
X3.6802Y-2.2924
X3.6802Y-2.4224
X3.7102Y-2.6724
X3.7102Y-2.8693
X3.7287Y-2.9783
X3.7791Y-3.4634
X3.7791Y-3.7634
X3.7878Y-3.1024
X3.8402Y-2.0824
X3.8791Y-3.4634
X3.8791Y-3.7634
X3.8898Y-2.81
X3.8898Y-2.9085
X3.9302Y-2.3024
X3.9302Y-2.4224
X3.9306Y-2.5522
X3.9306Y-2.6522
X3.9791Y-3.4634
X3.9791Y-3.7634
X3.9846Y-3.1024
X4.0791Y-3.4634
X4.0791Y-3.7634
X4.1791Y-3.4634
X4.1791Y-3.7634
X4.2302Y-2.3024
X4.2302Y-2.4224
X4.2306Y-2.5522
X4.2306Y-2.6522
X4.2791Y-3.4634
X4.2791Y-3.7634
X4.3791Y-3.4634
X4.3791Y-3.7634
X4.3909Y-2.3701
X4.3909Y-2.6701
X4.4791Y-3.4634
X4.4791Y-3.7634
X4.4976Y-2.6535
X4.6002Y-2.3424
X4.6002Y-2.4424
X4.6002Y-2.5424
X4.615Y-3.4087
X4.615Y-3.6055
X4.7575Y-3.5409
X4.7575Y-3.8409
X4.7702Y-2.3424
X4.7702Y-2.5393
X4.7976Y-2.6535
X4.8575Y-3.5409
X4.8575Y-3.8409
X4.8902Y-2.3118
X4.8902Y-2.4424
X4.8902Y-2.5724
X4.9575Y-3.5409
X4.9575Y-3.8409
X5.0575Y-3.5409
X5.0575Y-3.8409
X5.0974Y-2.752
X5.1439Y-2.9232
X5.1575Y-3.5409
X5.1575Y-3.8409
X5.1902Y-2.3118
X5.1902Y-2.4424
X5.1902Y-2.5724
X5.1959Y-2.752
X5.2575Y-3.5409
X5.2575Y-3.8409
X5.2902Y-2.5924
X5.3202Y-2.2824
X5.3202Y-2.3824
X5.3202Y-2.4824
X5.3575Y-3.5409
X5.3575Y-3.8409
X5.4018Y-2.7579
X5.4439Y-2.9232
X5.4575Y-3.5409
X5.4575Y-3.8409
X5.5202Y-2.2824
X5.5202Y-2.3824
X5.5202Y-2.4824
X5.5679Y-2.9291
X5.5902Y-2.5924
X5.6043Y-3.522
X5.6043Y-3.7189
X5.6663Y-2.9291
X5.7004Y-2.2965
X5.7004Y-2.5965
X5.7018Y-2.7579
X5.7795Y-1.8874
X5.7795Y-2.1874
X5.839Y-3.3795
X5.839Y-3.6795
X5.8809Y-2.7874
X5.8809Y-2.8858
X5.9002Y-2.3324
X5.9002Y-2.4309
X5.9002Y-2.5615
X5.9002Y-2.6599
X5.939Y-3.3795
X5.939Y-3.6795
X5.9823Y-2.0276
X5.9823Y-2.2244
X6.039Y-3.3795
X6.039Y-3.6795
X6.139Y-3.3795
X6.139Y-3.6795
X6.1799Y-1.7667
X6.1799Y-1.8652
X6.239Y-3.3795
X6.239Y-3.6795
X6.339Y-3.3795
X6.339Y-3.6795
X6.3862Y-1.7358
X6.3862Y-1.9327
X6.439Y-3.3795
X6.439Y-3.6795
X6.539Y-3.3795
X6.539Y-3.6795
X6.6802Y-3.384
X6.6802Y-3.5809
X6.902Y-3.387
X6.902Y-3.687
X7.002Y-3.387
X7.002Y-3.687
X7.102Y-3.387
X7.102Y-3.687
X7.202Y-3.387
X7.202Y-3.687
X7.2279Y-2.6096
X7.2287Y-2.7344
X7.2294Y-2.8576
X7.2295Y-2.2028
X7.2302Y-1.8824
X7.2302Y-2.9824
X7.2315Y-2.0453
X7.2315Y-2.3307
X7.2315Y-2.4567
X7.302Y-3.387
X7.302Y-3.687
X7.402Y-3.387
X7.402Y-3.687
X7.502Y-3.387
X7.502Y-3.687
X7.5279Y-2.6096
X7.5287Y-2.7344
X7.5294Y-2.8576
X7.5295Y-2.2028
X7.5302Y-1.8824
X7.5302Y-2.9824
X7.5315Y-2.0453
X7.5315Y-2.3307
X7.5315Y-2.4567
X7.602Y-3.387
X7.602Y-3.687
X7.6202Y-2.0424
X7.6202Y-2.1724
X7.6202Y-2.3024
X7.6202Y-2.4324
X7.6252Y-1.7894
X7.626Y-1.9134
X7.6302Y-2.6024
X7.6314Y-2.7288
X7.633Y-2.8568
X7.6342Y-2.9828
X7.9202Y-2.0424
X7.9202Y-2.1724
X7.9202Y-2.3024
X7.9202Y-2.4324
X7.9252Y-1.7894
X7.926Y-1.9134
X7.9302Y-2.6024
X7.9314Y-2.7288
X7.933Y-2.8568
X7.9342Y-2.9828
X8.6102Y-4.9124
X8.6302Y-4.0424
X8.6302Y-4.1424
X8.6302Y-4.2424
X8.6302Y-4.3424
X8.6302Y-4.4424
X8.6302Y-4.5424
X8.6302Y-4.6424
X8.6302Y-4.7424
X8.6902Y-5.0424
X8.6902Y-5.1724
X8.8071Y-4.9124
X8.9302Y-4.0424
X8.9302Y-4.1424
X8.9302Y-4.2424
X8.9302Y-4.3424
X8.9302Y-4.4424
X8.9302Y-4.5424
X8.9302Y-4.6424
X8.9302Y-4.7424
X8.9902Y-5.0424
X8.9902Y-5.1724
X9.1002Y-2.1894
X9.1002Y-2.3124
X9.1002Y-2.4424
X9.1034Y-2.0424
X9.1173Y-1.5898
X9.1173Y-1.8898
X9.2102Y-2.8524
X9.2102Y-2.9824
X9.2102Y-3.1124
X9.25Y-3.3012
X9.25Y-3.498
X9.2933Y-1.8169
X9.2933Y-1.9154
X9.2971Y-2.1894
X9.2971Y-2.3124
X9.2971Y-2.4424
X9.2992Y-1.5868
X9.2992Y-1.6852
X9.3002Y-2.0424
X9.4071Y-2.2748
X9.4071Y-2.5748
X9.4702Y-1.6124
X9.4748Y-1.7484
X9.4802Y-1.8624
X9.4802Y-2.1624
X9.5102Y-2.8524
X9.5102Y-2.9824
X9.5102Y-3.1124
X9.6102Y-1.8618
X9.6102Y-2.1618
X9.6102Y-2.3024
X9.6102Y-2.4324
X9.6102Y-2.5624
X9.6102Y-2.6924
X9.6671Y-1.6124
X9.6702Y-2.8724
X9.6702Y-2.9724
X9.6702Y-3.0724
X9.7502Y-1.8624
X9.7502Y-2.1624
X9.7748Y-1.7484
X9.8702Y-2.8724
X9.8702Y-2.9724
X9.8702Y-3.0724
X9.8802Y-1.863
X9.8802Y-2.163
X9.8902Y-3.1624
X9.8902Y-3.4624
X9.9102Y-2.3024
X9.9102Y-2.4324
X9.9102Y-2.5624
X9.9102Y-2.6924
X9.9918Y-2.1724
X10.0202Y-3.1624
X10.0202Y-3.4624
X10.0302Y-1.8624
X10.0302Y-1.9624
X10.0302Y-2.0624
X10.0702Y-2.8724
X10.0702Y-2.9724
X10.0702Y-3.0724
X10.1502Y-3.1624
X10.1502Y-3.4624
X10.1887Y-2.1724
T4
X1.378Y-4.6063
X1.4764Y-4.6063
X1.5748Y-4.6063
X1.6534Y-3.9824
X1.7518Y-3.9824
X1.8502Y-3.9824
X1.9291Y-4.6063
X2.0047Y-1.5945
X2.0276Y-4.6063
X2.1031Y-1.5945
X2.126Y-4.6063
X2.2016Y-1.5945
X2.2244Y-3.9824
X2.3228Y-3.9824
X2.4213Y-3.9824
X2.4803Y-4.6043
X2.5787Y-4.6043
X2.6772Y-4.6043
X3.0512Y-4.6043
X3.1496Y-4.6043
X3.248Y-4.6043
X3.2677Y-3.9764
X3.3661Y-3.9764
X3.4646Y-3.9764
X3.6417Y-4.6043
X3.7402Y-4.6043
X3.8386Y-4.6043
X3.8583Y-3.9744
X3.9567Y-3.9744
X4.0551Y-3.9744
X4.252Y-4.6043
X4.3504Y-4.6043
X4.4291Y-3.9744
X4.4488Y-4.6043
X4.5276Y-3.9744
X4.626Y-3.9744
X4.8425Y-4.6043
X4.9409Y-4.6043
X5.0394Y-4.6043
X5.5157Y-4.6043
X5.6142Y-4.6043
X5.7126Y-4.6043
X5.7874Y-3.9744
X5.8858Y-3.9744
X5.9843Y-3.9744
X6.1063Y-4.6063
X6.2047Y-4.6063
X6.3031Y-4.6063
X6.378Y-3.9764
X6.4441Y-2.1063
X6.4764Y-3.9764
X6.5441Y-2.1063
X6.5748Y-3.9764
X6.6441Y-2.1063
X6.6732Y-4.6043
X6.7441Y-2.1063
X6.7717Y-4.6043
X6.8701Y-4.6043
X7.3031Y-4.6043
X7.4016Y-4.6043
X7.5Y-4.6043
X7.5394Y-3.9744
X7.6378Y-3.9744
X7.7362Y-3.9744
X7.8937Y-4.6043
X7.9921Y-4.6043
X8.0906Y-4.6043
X8.1299Y-3.9764
X8.2283Y-3.9764
X8.3268Y-3.9764
X9.5002Y-4.6624
X9.5002Y-4.7624
X9.5002Y-5.0824
X9.5002Y-5.1824
T5
X8.2114Y-1.6106
X8.2114Y-1.7106
X8.2114Y-1.8106
X8.2114Y-1.9106
X8.2114Y-2.0106
X8.2114Y-2.1106
X8.2114Y-2.2106
X8.2114Y-2.3106
X8.2114Y-2.4106
X8.2114Y-2.5106
X8.2114Y-2.6106
X8.2114Y-2.7106
X8.2114Y-2.8106
X8.2114Y-2.9106
X8.2114Y-3.0106
X8.2114Y-3.1106
X8.2114Y-3.2106
X8.2114Y-3.3106
X8.2114Y-3.4106
X8.2114Y-3.5106
X8.4614Y-3.5016
X8.5614Y-3.5016
X8.6614Y-3.5016
X8.9114Y-1.6106
X8.9114Y-1.7106
X8.9114Y-1.8106
X8.9114Y-1.9106
X8.9114Y-2.0106
X8.9114Y-2.1106
X8.9114Y-2.2106
X8.9114Y-2.3106
X8.9114Y-2.4106
X8.9114Y-2.5106
X8.9114Y-2.6106
X8.9114Y-2.7106
X8.9114Y-2.8106
X8.9114Y-2.9106
X8.9114Y-3.0106
X8.9114Y-3.1106
X8.9114Y-3.2106
X8.9114Y-3.3106
X8.9114Y-3.4106
X8.9114Y-3.5106
T6
X1.3091Y-5.876
X1.3091Y-6.0531
X1.565Y-5.876
X1.565Y-6.0531
X1.6043Y-5.3839
X1.6043Y-5.561
X1.8602Y-5.3839
X1.8602Y-5.561
X1.8996Y-5.876
X1.8996Y-6.0531
X2.1555Y-5.876
X2.1555Y-6.0531
X2.1949Y-5.3839
X2.1949Y-5.561
X2.4508Y-5.3839
X2.4508Y-5.561
X2.4902Y-5.876
X2.4902Y-6.0531
X2.7461Y-5.876
X2.7461Y-6.0531
X3.0807Y-5.876
X3.0807Y-6.0531
X3.3366Y-5.876
X3.3366Y-6.0531
X3.376Y-5.3839
X3.376Y-5.561
X3.6319Y-5.3839
X3.6319Y-5.561
X3.6713Y-5.876
X3.6713Y-6.0531
X3.9272Y-5.876
X3.9272Y-6.0531
X3.9665Y-5.3839
X3.9665Y-5.561
X4.0913Y-2.8508
X4.0913Y-2.9508
X4.0913Y-3.0508
X4.2224Y-5.3839
X4.2224Y-5.561
X4.2618Y-5.876
X4.2618Y-6.0531
X4.5177Y-5.876
X4.5177Y-6.0531
X4.5571Y-5.3839
X4.5571Y-5.561
X4.813Y-5.3839
X4.813Y-5.561
X4.8524Y-5.876
X4.8524Y-6.0531
X4.9449Y-2.6959
X4.9449Y-2.9959
X5.1083Y-5.876
X5.1083Y-6.0531
X5.4528Y-5.876
X5.4528Y-6.0531
X5.7087Y-5.876
X5.7087Y-6.0531
X5.7382Y-5.3839
X5.7382Y-5.561
X5.9941Y-5.3839
X5.9941Y-5.561
X6.0433Y-5.876
X6.0433Y-6.0531
X6.2992Y-5.876
X6.2992Y-6.0531
X6.3287Y-5.3839
X6.3287Y-5.561
X6.5846Y-5.3839
X6.5846Y-5.561
X6.624Y-5.876
X6.624Y-6.0531
X6.8799Y-5.876
X6.8799Y-6.0531
X7.2146Y-5.876
X7.2146Y-6.0531
X7.4705Y-5.876
X7.4705Y-6.0531
X7.5098Y-5.3839
X7.5098Y-5.561
X7.7657Y-5.3839
X7.7657Y-5.561
X7.8051Y-5.876
X7.8051Y-6.0531
X8.061Y-5.876
X8.061Y-6.0531
X8.1004Y-5.3839
X8.1004Y-5.561
X8.3563Y-5.3839
X8.3563Y-5.561
X8.3957Y-5.876
X8.3957Y-6.0531
X8.6516Y-5.876
X8.6516Y-6.0531
X8.6909Y-5.3839
X8.6909Y-5.561
X8.9469Y-5.3839
X8.9469Y-5.561
X8.9862Y-5.876
X8.9862Y-6.0531
X9.1202Y-3.6624
X9.1202Y-3.8396
X9.1202Y-3.9924
X9.1202Y-4.1696
X9.2421Y-5.876
X9.2421Y-6.0531
X9.3761Y-3.6624
X9.3761Y-3.8396
X9.3761Y-3.9924
X9.3761Y-4.1696
X9.5102Y-3.3439
X9.5102Y-3.521
X9.5102Y-3.6624
X9.5102Y-3.8396
X9.5102Y-3.9924
X9.5102Y-4.1696
X9.5768Y-5.876
X9.5768Y-6.0531
X9.7661Y-3.3439
X9.7661Y-3.521
X9.7661Y-3.6624
X9.7661Y-3.8396
X9.7661Y-3.9924
X9.7661Y-4.1696
X9.8327Y-5.876
X9.8327Y-6.0531
X9.9002Y-3.6639
X9.9002Y-3.841
X9.9002Y-3.9924
X9.9002Y-4.1696
X10.1561Y-3.6639
X10.1561Y-3.841
X10.1561Y-3.9924
X10.1561Y-4.1696
T7
X1.9063Y-1.7126
X2.1031Y-1.7126
X2.3Y-1.7126
T8
X1.1697Y-1.9461
X1.1697Y-2.1461
T9
X4.0323Y-2.0327
X4.1307Y-1.6429
X4.1307Y-2.1311
X4.3276Y-2.0327
X4.5244Y-1.6429
X4.5244Y-2.1311
X4.6228Y-2.0327
X4.9618Y-2.035
X5.0602Y-1.6453
X5.0602Y-2.1335
X5.2571Y-2.035
X5.4539Y-1.6453
X5.4539Y-2.1335
X5.5524Y-2.035
T2
G00X1.3914Y-1.7376
M15
G01X1.3914Y-1.7671
M16
G05
G00X1.5656Y-1.5791
M15
G01X1.5952Y-1.5791
M16
G05
G00X1.7851Y-1.8754
M15
G01X1.7851Y-1.9049
M16
G05
G00X2.8313Y-1.7478
M15
G01X2.8313Y-1.7774
M16
G05
G00X3.0055Y-1.5894
M15
G01X3.035Y-1.5894
M16
G05
G00X3.225Y-1.8856
M15
G01X3.225Y-1.9152
M16
G05
G00X9.817Y-4.7172
M15
G01X9.7875Y-4.7172
M16
G05
G00X9.817Y-5.2172
M15
G01X9.7875Y-5.2172
M16
G05
G00X9.9548Y-4.3235
M15
G01X9.9253Y-4.3235
M16
G05
G00X9.9548Y-4.8235
M15
G01X9.9253Y-4.8235
M16
G05
G00X10.1133Y-4.4977
M15
G01X10.1133Y-4.5272
M16
G05
G00X10.1133Y-4.9977
M15
G01X10.1133Y-5.0272
M16
G05
T4
G00X1.4013Y-2.024
M15
G01X1.4209Y-2.024
M16
G05
G00X1.6828Y-1.8409
M15
G01X1.6828Y-1.8606
M16
G05
G00X2.8411Y-2.0343
M15
G01X2.8608Y-2.0343
M16
G05
G00X3.1226Y-1.8512
M15
G01X3.1226Y-1.8709
M16
G05
G00X3.4701Y-1.7622
M15
G01X3.4701Y-1.8409
M16
G05
G00X3.6945Y-1.6835
M15
G01X3.6157Y-1.6835
M16
G05
G00X3.6945Y-1.9197
M15
G01X3.6157Y-1.9197
M16
G05
G00X9.6684Y-4.3333
M15
G01X9.6684Y-4.353
M16
G05
G00X9.6684Y-4.8333
M15
G01X9.6684Y-4.853
M16
G05
G00X9.8515Y-4.6148
M15
G01X9.8318Y-4.6148
M16
G05
G00X9.8515Y-5.1148
M15
G01X9.8318Y-5.1148
M16
G05
T10
G00X1.3031Y-4.876
M15
G01X1.3031Y-4.8878
M16
G05
G00X1.5786Y-4.2521
M15
G01X1.5786Y-4.2639
M16
G05
G00X1.6496Y-4.876
M15
G01X1.6496Y-4.8878
M16
G05
G00X1.8543Y-4.876
M15
G01X1.8543Y-4.8878
M16
G05
G00X1.925Y-4.2521
M15
G01X1.925Y-4.2639
M16
G05
G00X2.1496Y-4.2521
M15
G01X2.1496Y-4.2639
M16
G05
G00X2.2008Y-4.876
M15
G01X2.2008Y-4.8878
M16
G05
G00X2.4055Y-4.874
M15
G01X2.4055Y-4.8858
M16
G05
G00X2.4961Y-4.2521
M15
G01X2.4961Y-4.2639
M16
G05
G00X2.752Y-4.874
M15
G01X2.752Y-4.8858
M16
G05
G00X2.9764Y-4.874
M15
G01X2.9764Y-4.8858
M16
G05
G00X3.1929Y-4.2461
M15
G01X3.1929Y-4.2579
M16
G05
G00X3.3228Y-4.874
M15
G01X3.3228Y-4.8858
M16
G05
G00X3.5394Y-4.2461
M15
G01X3.5394Y-4.2579
M16
G05
G00X3.5669Y-4.874
M15
G01X3.5669Y-4.8858
M16
G05
G00X3.7835Y-4.2441
M15
G01X3.7835Y-4.2559
M16
G05
G00X3.9134Y-4.874
M15
G01X3.9134Y-4.8858
M16
G05
G00X4.1299Y-4.2441
M15
G01X4.1299Y-4.2559
M16
G05
G00X4.1772Y-4.874
M15
G01X4.1772Y-4.8858
M16
G05
G00X4.3543Y-4.2441
M15
G01X4.3543Y-4.2559
M16
G05
G00X4.5236Y-4.874
M15
G01X4.5236Y-4.8858
M16
G05
G00X4.7008Y-4.2441
M15
G01X4.7008Y-4.2559
M16
G05
G00X4.7677Y-4.874
M15
G01X4.7677Y-4.8858
M16
G05
G00X5.1142Y-4.874
M15
G01X5.1142Y-4.8858
M16
G05
G00X5.4409Y-4.874
M15
G01X5.4409Y-4.8858
M16
G05
G00X5.7126Y-4.2441
M15
G01X5.7126Y-4.2559
M16
G05
G00X5.7874Y-4.874
M15
G01X5.7874Y-4.8858
M16
G05
G00X6.0315Y-4.876
M15
G01X6.0315Y-4.8878
M16
G05
G00X6.0591Y-4.2441
M15
G01X6.0591Y-4.2559
M16
G05
G00X6.3031Y-4.2461
M15
G01X6.3031Y-4.2579
M16
G05
G00X6.378Y-4.876
M15
G01X6.378Y-4.8878
M16
G05
G00X6.5984Y-4.874
M15
G01X6.5984Y-4.8858
M16
G05
G00X6.6496Y-4.2461
M15
G01X6.6496Y-4.2579
M16
G05
G00X6.9449Y-4.874
M15
G01X6.9449Y-4.8858
M16
G05
G00X7.2283Y-4.874
M15
G01X7.2283Y-4.8858
M16
G05
G00X7.4646Y-4.2441
M15
G01X7.4646Y-4.2559
M16
G05
G00X7.5748Y-4.874
M15
G01X7.5748Y-4.8858
M16
G05
G00X7.811Y-4.2441
M15
G01X7.811Y-4.2559
M16
G05
G00X7.8189Y-4.874
M15
G01X7.8189Y-4.8858
M16
G05
G00X8.0551Y-4.2461
M15
G01X8.0551Y-4.2579
M16
G05
G00X8.1654Y-4.874
M15
G01X8.1654Y-4.8858
M16
G05
G00X8.4016Y-4.2461
M15
G01X8.4016Y-4.2579
M16
G05
T0
M30
